M48
METRIC,TZ
T1C0.762
T2C0.800
T3C1.000
T4C1.020
T5C1.200
T6C1.300
T7C1.500
T8C3.050
T9C3.200
T10C3.600
%
G90
G05
T1
X86360Y87900
X88900Y87900
X91440Y87900
X93980Y87900
X96520Y87900
X99060Y87900
X101600Y87900
X104140Y87900
X106680Y87900
X109220Y87900
T2
X21750Y86550
X21750Y83050
X34175Y27150
X37519Y60063
X37519Y52443
X37935Y17870
X37935Y10250
X38670Y37825
X38670Y30205
X39375Y69345
X40059Y60063
X40059Y52443
X40475Y17870
X40475Y10250
X41210Y37825
X41210Y30205
X42599Y60063
X42599Y52443
X42925Y6675
X43015Y17870
X43015Y10250
X43325Y78975
X43750Y37825
X43750Y30205
X45139Y60063
X45139Y52443
X45555Y17870
X45555Y10250
X45606Y73201
X46290Y37825
X46290Y30205
X53350Y25250
X53956Y70689
X55475Y76225
X55500Y82000
X55628Y74298
X57225Y84100
X58850Y8850
X61575Y69600
X65380Y74655
X65380Y72115
X65380Y69575
X65380Y67035
X73000Y74655
X73000Y72115
X73000Y69575
X73000Y67035
X75375Y91100
X78725Y74925
X81375Y89975
X92400Y76925
X106075Y80025
T3
X105650Y70475
X105650Y67935
X105650Y65395
T4
X17100Y69390
X17100Y66600
X17100Y63930
X17100Y61140
X19640Y70790
X19640Y68000
X19640Y65200
X19640Y62540
X19640Y59740
T5
X58560Y52575
X58560Y33575
X58750Y24575
X58750Y4255
X86500Y52575
X86500Y33575
T6
X50175Y16000
X50175Y11000
X50500Y36325
X50500Y31325
X52675Y13500
X53000Y33825
T7
X96000Y58075
X96000Y52625
X96000Y47175
X96000Y39075
X96000Y33625
X96000Y28175
T8
X17100Y78030
X17100Y52630
T9
X65600Y15000
X73300Y14900
T10
X115860Y52625
X115860Y33625
T0
M30
