G04 #@! TF.FileFunction,Copper,L1,Top,Signal*
%FSLAX46Y46*%
G04 Gerber Fmt 4.6, Leading zero omitted, Abs format (unit mm)*
G04 Created by KiCad (PCBNEW 4.0.6) date 08/31/17 21:12:42*
%MOMM*%
%LPD*%
G01*
G04 APERTURE LIST*
%ADD10C,0.100000*%
%ADD11R,1.600000X2.400000*%
%ADD12O,1.600000X2.400000*%
%ADD13O,1.600000X1.200000*%
%ADD14O,1.200000X1.200000*%
%ADD15R,1.500000X1.250000*%
%ADD16R,1.600000X1.600000*%
%ADD17C,1.600000*%
%ADD18R,4.600000X1.100000*%
%ADD19R,9.400000X10.800000*%
%ADD20R,4.550000X5.250000*%
%ADD21R,1.300000X1.500000*%
%ADD22C,3.810000*%
%ADD23R,1.520000X1.520000*%
%ADD24C,1.520000*%
%ADD25R,4.500000X2.500000*%
%ADD26O,4.500000X2.500000*%
%ADD27R,1.500000X1.300000*%
%ADD28C,2.400000*%
%ADD29O,2.400000X2.400000*%
%ADD30C,2.340000*%
%ADD31C,3.000000*%
%ADD32C,1.524000*%
%ADD33O,1.524000X1.524000*%
%ADD34R,0.650000X1.060000*%
%ADD35R,1.800000X1.800000*%
%ADD36O,1.800000X1.800000*%
%ADD37C,1.500000*%
%ADD38C,0.500000*%
%ADD39C,5.000000*%
%ADD40C,2.000000*%
%ADD41C,4.000000*%
%ADD42C,0.254000*%
G04 APERTURE END LIST*
D10*
D11*
X27200000Y75300000D03*
D12*
X19580000Y67680000D03*
X24660000Y75300000D03*
X22120000Y67680000D03*
X22120000Y75300000D03*
X24660000Y67680000D03*
X19580000Y75300000D03*
X27200000Y67680000D03*
D13*
X70200000Y57700000D03*
D14*
X68930000Y58970000D03*
X67660000Y57700000D03*
D11*
X45660000Y5100000D03*
D12*
X53280000Y12720000D03*
X48200000Y5100000D03*
X50740000Y12720000D03*
X50740000Y5100000D03*
X48200000Y12720000D03*
X53280000Y5100000D03*
X45660000Y12720000D03*
D15*
X76050000Y63300000D03*
X73550000Y63300000D03*
D16*
X21800000Y93800000D03*
D17*
X21800000Y90300000D03*
D18*
X70050000Y9040000D03*
X70050000Y3960000D03*
D19*
X79200000Y6500000D03*
D20*
X81625000Y3725000D03*
X76775000Y9275000D03*
X81625000Y9275000D03*
X76775000Y3725000D03*
D21*
X71900000Y86350000D03*
X71900000Y83650000D03*
X79400000Y83650000D03*
X79400000Y86350000D03*
X75700000Y83650000D03*
X75700000Y86350000D03*
D22*
X10000000Y95200000D03*
X10000000Y69800000D03*
D23*
X12540000Y87960000D03*
D24*
X12540000Y85170000D03*
X12540000Y82370000D03*
X12540000Y79710000D03*
X12540000Y76910000D03*
X10000000Y78310000D03*
X10000000Y81100000D03*
X10000000Y83770000D03*
X10000000Y86560000D03*
D13*
X51600000Y58300000D03*
D14*
X50330000Y59570000D03*
X49060000Y58300000D03*
D25*
X73400000Y28350000D03*
D26*
X73400000Y22900000D03*
X73400000Y17450000D03*
D25*
X73600000Y47500000D03*
D26*
X73600000Y42050000D03*
X73600000Y36600000D03*
D21*
X15800000Y68350000D03*
X15800000Y71050000D03*
D27*
X67850000Y51900000D03*
X70550000Y51900000D03*
X49650000Y51500000D03*
X52350000Y51500000D03*
D28*
X63200000Y22900000D03*
D29*
X35260000Y22900000D03*
D28*
X63200000Y42100000D03*
D29*
X35260000Y42100000D03*
D27*
X25550000Y79900000D03*
X22850000Y79900000D03*
D28*
X30520000Y36300000D03*
D29*
X10200000Y36300000D03*
D28*
X30520000Y54300000D03*
D29*
X10200000Y54300000D03*
D28*
X30520000Y42300000D03*
D29*
X10200000Y42300000D03*
D28*
X30400000Y6100000D03*
D29*
X10080000Y6100000D03*
D28*
X30520000Y12300000D03*
D29*
X10200000Y12300000D03*
D28*
X30520000Y60300000D03*
D29*
X10200000Y60300000D03*
D28*
X30520000Y48300000D03*
D29*
X10200000Y48300000D03*
D28*
X30520000Y30300000D03*
D29*
X10200000Y30300000D03*
D28*
X30520000Y18300000D03*
D29*
X10200000Y18300000D03*
D28*
X30520000Y24300000D03*
D29*
X10200000Y24300000D03*
D21*
X65800000Y70400000D03*
X65800000Y67700000D03*
D27*
X68500000Y74700000D03*
X65800000Y74700000D03*
X74300000Y74700000D03*
X71600000Y74700000D03*
D21*
X71900000Y81050000D03*
X71900000Y78350000D03*
X79400000Y80950000D03*
X79400000Y78250000D03*
X75700000Y81050000D03*
X75700000Y78350000D03*
D30*
X37000000Y7000000D03*
X40800000Y9500000D03*
X37000000Y12000000D03*
X37400000Y73900000D03*
X33600000Y71400000D03*
X37400000Y68900000D03*
D31*
X61200000Y64800000D03*
X59700000Y51500000D03*
X83000000Y59000000D03*
X55000000Y72000000D03*
X56000000Y51500000D03*
D32*
X80760000Y94300000D03*
D33*
X78220000Y94300000D03*
X75680000Y94300000D03*
X73140000Y94300000D03*
X70600000Y94300000D03*
X65520000Y94300000D03*
X62980000Y94300000D03*
D32*
X60440000Y94300000D03*
X57900000Y94300000D03*
X68060000Y94300000D03*
D34*
X73200000Y69700000D03*
X72250000Y69700000D03*
X71300000Y69700000D03*
X71300000Y67500000D03*
X73200000Y67500000D03*
D35*
X83000000Y65760000D03*
D36*
X83000000Y68300000D03*
X83000000Y70840000D03*
D37*
X53649165Y89510596D03*
X56700000Y81699990D03*
X31000000Y82100000D03*
X61700000Y73900000D03*
X42741530Y15844812D03*
X54100000Y18100000D03*
X58800000Y10400000D03*
X56600000Y8900000D03*
X47200000Y77500000D03*
X68700000Y81400000D03*
X81886811Y76457370D03*
X35400000Y64100000D03*
X32847902Y87069838D03*
X21025139Y97703980D03*
X41381309Y87999998D03*
X53683024Y87355402D03*
X65200000Y84600000D03*
X27395469Y87347183D03*
X46100010Y69156877D03*
X61380457Y67705425D03*
D38*
X56700000Y81699990D02*
X56700000Y86827765D01*
X56700000Y86827765D02*
X54017169Y89510596D01*
X54017169Y89510596D02*
X53649165Y89510596D01*
X31000000Y82100000D02*
X31800000Y82100000D01*
D10*
X72250000Y70550000D02*
X72250000Y69700000D01*
D38*
X61700000Y73900000D02*
X62100000Y73500000D01*
X62100000Y73500000D02*
X62100000Y73200000D01*
X54300000Y18300000D02*
X54100000Y18100000D01*
X57350001Y9649999D02*
X58100002Y10400000D01*
X58100002Y10400000D02*
X58800000Y10400000D01*
X56600000Y8900000D02*
X57350001Y9649999D01*
X48600000Y77300000D02*
X48900000Y77300000D01*
X48500000Y77400000D02*
X48600000Y77300000D01*
X48000000Y77400000D02*
X48500000Y77400000D01*
X47300000Y77400000D02*
X48000000Y77400000D01*
X47200000Y77500000D02*
X47300000Y77400000D01*
X71900000Y78350000D02*
X71750000Y78350000D01*
X71750000Y78350000D02*
X68700000Y81400000D01*
X54369167Y91010598D02*
X24804600Y91010598D01*
X71900000Y86350000D02*
X59029765Y86350000D01*
X13800000Y87960000D02*
X12540000Y87960000D01*
X21754002Y87960000D02*
X13800000Y87960000D01*
X59029765Y86350000D02*
X54369167Y91010598D01*
X24804600Y91010598D02*
X21754002Y87960000D01*
X13800000Y87960000D02*
X15800000Y85960000D01*
X15800000Y85960000D02*
X15800000Y72300000D01*
X15800000Y72300000D02*
X15800000Y71050000D01*
X15800000Y71050000D02*
X15800000Y71150000D01*
X15800000Y71150000D02*
X19580000Y74930000D01*
X19580000Y74930000D02*
X19580000Y75300000D01*
X81886811Y77518030D02*
X81886811Y76457370D01*
X81886811Y83763189D02*
X81886811Y77518030D01*
X79400000Y86250000D02*
X81886811Y83763189D01*
X79400000Y86350000D02*
X79400000Y86250000D01*
X35400000Y64100000D02*
X35400000Y62200000D01*
X42100000Y23600000D02*
X48200000Y17500000D01*
X35400000Y62200000D02*
X42100000Y55500000D01*
X42100000Y55500000D02*
X42100000Y23600000D01*
X48200000Y17500000D02*
X48200000Y12720000D01*
X73200000Y67500000D02*
X74025000Y67500000D01*
X74025000Y67500000D02*
X76050000Y65475000D01*
X76050000Y65475000D02*
X76050000Y63300000D01*
X83000000Y65760000D02*
X83000000Y64360000D01*
X83000000Y64360000D02*
X81940000Y63300000D01*
X81940000Y63300000D02*
X76050000Y63300000D01*
X22120000Y67680000D02*
X22120000Y69380000D01*
X22120000Y69380000D02*
X24660000Y71920000D01*
X24660000Y71920000D02*
X24660000Y75300000D01*
X22120000Y67680000D02*
X22120000Y65980000D01*
X22120000Y65980000D02*
X21369990Y65229990D01*
X15800000Y67100000D02*
X15800000Y68350000D01*
X21369990Y65229990D02*
X17670010Y65229990D01*
X17670010Y65229990D02*
X15800000Y67100000D01*
X50330000Y59570000D02*
X42783022Y67116978D01*
X42783022Y67116978D02*
X42783022Y77134718D01*
X42783022Y77134718D02*
X33597901Y86319839D01*
X33597901Y86319839D02*
X32847902Y87069838D01*
X49090014Y97703980D02*
X22085799Y97703980D01*
X54793994Y92000000D02*
X49090014Y97703980D01*
X74550000Y86350000D02*
X68900000Y92000000D01*
X68900000Y92000000D02*
X54793994Y92000000D01*
X75700000Y86350000D02*
X74550000Y86350000D01*
X22085799Y97703980D02*
X21025139Y97703980D01*
X50330000Y59570000D02*
X50929999Y60169999D01*
X50929999Y60169999D02*
X67730001Y60169999D01*
X67730001Y60169999D02*
X68330001Y59569999D01*
X68330001Y59569999D02*
X68930000Y58970000D01*
D39*
X63000000Y4300000D02*
X65310000Y4300000D01*
X65310000Y4300000D02*
X70050000Y9040000D01*
X70050000Y9040000D02*
X70050000Y4640000D01*
X70050000Y4640000D02*
X69710000Y4300000D01*
X63000000Y4300000D02*
X69710000Y4300000D01*
X69710000Y4300000D02*
X70050000Y3960000D01*
D38*
X70050000Y3960000D02*
X70050000Y9040000D01*
D40*
X84200000Y1700000D02*
X82175000Y3725000D01*
X82175000Y3725000D02*
X76775000Y3725000D01*
X84200000Y12300000D02*
X84200000Y1700000D01*
X81800000Y14700000D02*
X84200000Y12300000D01*
X81800000Y15435000D02*
X81800000Y14700000D01*
D39*
X81800000Y15435000D02*
X81625000Y15260000D01*
X81625000Y15260000D02*
X81625000Y3725000D01*
X76775000Y3725000D02*
X81625000Y3725000D01*
X81800000Y29400000D02*
X81800000Y15435000D01*
X73600000Y36600000D02*
X74600000Y36600000D01*
X74600000Y36600000D02*
X81800000Y29400000D01*
D38*
X71900000Y81050000D02*
X71900000Y83650000D01*
X79400000Y80950000D02*
X79400000Y83650000D01*
X75700000Y81050000D02*
X75700000Y83650000D01*
X42441969Y87999998D02*
X41381309Y87999998D01*
X65800000Y67700000D02*
X64650000Y67700000D01*
X64650000Y67700000D02*
X44350002Y87999998D01*
X44350002Y87999998D02*
X42441969Y87999998D01*
X71300000Y67500000D02*
X66000000Y67500000D01*
X66000000Y67500000D02*
X65800000Y67700000D01*
X53683024Y86294742D02*
X53683024Y87355402D01*
X65200000Y84600000D02*
X60200000Y79600000D01*
X55900000Y79600000D02*
X53683024Y81816976D01*
X60200000Y79600000D02*
X55900000Y79600000D01*
X53683024Y81816976D02*
X53683024Y86294742D01*
X46100010Y69156877D02*
X46100010Y75953707D01*
X46100010Y75953707D02*
X33483878Y88569839D01*
X28145468Y88097182D02*
X27395469Y87347183D01*
X28618125Y88569839D02*
X28145468Y88097182D01*
X33483878Y88569839D02*
X28618125Y88569839D01*
X46850009Y68406878D02*
X46100010Y69156877D01*
X47551462Y67705425D02*
X46850009Y68406878D01*
X61380457Y67705425D02*
X47551462Y67705425D01*
X59700000Y51500000D02*
X67450000Y51500000D01*
X67450000Y51500000D02*
X67850000Y51900000D01*
X67850000Y51900000D02*
X67850000Y57510000D01*
X67850000Y57510000D02*
X67660000Y57700000D01*
X55621320Y54000000D02*
X52250000Y54000000D01*
X49750000Y51500000D02*
X49650000Y51500000D01*
X52250000Y54000000D02*
X49750000Y51500000D01*
X56000000Y51500000D02*
X56000000Y53621320D01*
X56000000Y53621320D02*
X55621320Y54000000D01*
X49650000Y51500000D02*
X49650000Y57710000D01*
X49650000Y57710000D02*
X49060000Y58300000D01*
D41*
X73400000Y22900000D02*
X63200000Y22900000D01*
X73600000Y42050000D02*
X63250000Y42050000D01*
X63250000Y42050000D02*
X63200000Y42100000D01*
D38*
X22850000Y79900000D02*
X22850000Y76030000D01*
X22850000Y76030000D02*
X22120000Y75300000D01*
X65800000Y74700000D02*
X65800000Y70400000D01*
X71300000Y69700000D02*
X71300000Y74400000D01*
X71300000Y74400000D02*
X71600000Y74700000D01*
X71600000Y74700000D02*
X68500000Y74700000D01*
X83000000Y70840000D02*
X74135000Y70840000D01*
X74135000Y70840000D02*
X73200000Y69905000D01*
X73200000Y69905000D02*
X73200000Y69700000D01*
X30520000Y54300000D02*
X30520000Y55997056D01*
X30520000Y55997056D02*
X30520000Y60300000D01*
X30520000Y54300000D02*
X30520000Y52602944D01*
X30520000Y52602944D02*
X30520000Y48300000D01*
X30520000Y42300000D02*
X30520000Y48300000D01*
X30520000Y36300000D02*
X30520000Y42300000D01*
X30520000Y30300000D02*
X30520000Y31997056D01*
X30520000Y31997056D02*
X30520000Y36300000D01*
X30520000Y24300000D02*
X30520000Y18300000D01*
X30520000Y12300000D02*
X30520000Y13997056D01*
X30520000Y13997056D02*
X30520000Y18300000D01*
X30520000Y78380000D02*
X29000000Y79900000D01*
X29000000Y79900000D02*
X25550000Y79900000D01*
X30520000Y60300000D02*
X30520000Y78380000D01*
D41*
X30400000Y6100000D02*
X30400000Y60180000D01*
X30400000Y60180000D02*
X30520000Y60300000D01*
X35260000Y42100000D02*
X30720000Y42100000D01*
X30720000Y42100000D02*
X30520000Y42300000D01*
X35260000Y22900000D02*
X31920000Y22900000D01*
X31920000Y22900000D02*
X30520000Y24300000D01*
D42*
G36*
X85273183Y33884597D02*
X78754741Y40403039D01*
X79082342Y42050000D01*
X78749163Y43725005D01*
X77800348Y45145006D01*
X77401717Y45411363D01*
X77225336Y45675336D01*
X76481690Y46172225D01*
X76497440Y46250000D01*
X76497440Y48750000D01*
X76453162Y48985317D01*
X76314090Y49201441D01*
X76101890Y49346431D01*
X75850000Y49397440D01*
X71350000Y49397440D01*
X71114683Y49353162D01*
X70898559Y49214090D01*
X70753569Y49001890D01*
X70702560Y48750000D01*
X70702560Y47177000D01*
X63451362Y47177000D01*
X63200000Y47226999D01*
X61237982Y46836730D01*
X59574664Y45725336D01*
X58463270Y44062018D01*
X58073001Y42100000D01*
X58463270Y40137982D01*
X59574664Y38474664D01*
X59624664Y38424663D01*
X60301749Y37972250D01*
X61287982Y37313270D01*
X63250000Y36923000D01*
X68037249Y36923000D01*
X67973000Y36600000D01*
X68401330Y34446640D01*
X69621110Y32621110D01*
X71446640Y31401330D01*
X71938783Y31303437D01*
X72994780Y30247440D01*
X71150000Y30247440D01*
X70914683Y30203162D01*
X70698559Y30064090D01*
X70553569Y29851890D01*
X70502560Y29600000D01*
X70502560Y28027000D01*
X63200000Y28027000D01*
X61237982Y27636730D01*
X59574664Y26525336D01*
X58463270Y24862018D01*
X58073000Y22900000D01*
X58463270Y20937982D01*
X59574664Y19274664D01*
X61237982Y18163270D01*
X63200000Y17773000D01*
X67981907Y17773000D01*
X67917658Y17450000D01*
X68250837Y15774995D01*
X69115394Y14481095D01*
X67896640Y14238670D01*
X66071110Y13018890D01*
X62974060Y9921840D01*
X60846640Y9498670D01*
X59021110Y8278890D01*
X57801330Y6453360D01*
X57373000Y4300000D01*
X57801330Y2146640D01*
X58705072Y794094D01*
X910000Y760414D01*
X910000Y47888195D01*
X8411805Y47888195D01*
X8644358Y47326742D01*
X9135224Y46805508D01*
X9788193Y46511797D01*
X10073000Y46628142D01*
X10073000Y48173000D01*
X10327000Y48173000D01*
X10327000Y46628142D01*
X10611807Y46511797D01*
X11264776Y46805508D01*
X11755642Y47326742D01*
X11988195Y47888195D01*
X11871432Y48173000D01*
X10327000Y48173000D01*
X10073000Y48173000D01*
X8528568Y48173000D01*
X8411805Y47888195D01*
X910000Y47888195D01*
X910000Y48711805D01*
X8411805Y48711805D01*
X8528568Y48427000D01*
X10073000Y48427000D01*
X10073000Y49971858D01*
X10327000Y49971858D01*
X10327000Y48427000D01*
X11871432Y48427000D01*
X11988195Y48711805D01*
X11755642Y49273258D01*
X11264776Y49794492D01*
X10611807Y50088203D01*
X10327000Y49971858D01*
X10073000Y49971858D01*
X9788193Y50088203D01*
X9135224Y49794492D01*
X8644358Y49273258D01*
X8411805Y48711805D01*
X910000Y48711805D01*
X910000Y69296979D01*
X7459560Y69296979D01*
X7845437Y68363085D01*
X8559327Y67647948D01*
X9492546Y67260441D01*
X10503021Y67259560D01*
X11436915Y67645437D01*
X12152052Y68359327D01*
X12539559Y69292546D01*
X12540440Y70303021D01*
X12154563Y71236915D01*
X11440673Y71952052D01*
X10507454Y72339559D01*
X9496979Y72340440D01*
X8563085Y71954563D01*
X7847948Y71240673D01*
X7460441Y70307454D01*
X7459560Y69296979D01*
X910000Y69296979D01*
X910000Y76633735D01*
X11144758Y76633735D01*
X11356687Y76120828D01*
X11748764Y75728066D01*
X12261300Y75515242D01*
X12816265Y75514758D01*
X13329172Y75726687D01*
X13721934Y76118764D01*
X13934758Y76631300D01*
X13935242Y77186265D01*
X13723313Y77699172D01*
X13331236Y78091934D01*
X12818700Y78304758D01*
X12263735Y78305242D01*
X11750828Y78093313D01*
X11358066Y77701236D01*
X11145242Y77188700D01*
X11144758Y76633735D01*
X910000Y76633735D01*
X910000Y78033735D01*
X8604758Y78033735D01*
X8816687Y77520828D01*
X9208764Y77128066D01*
X9721300Y76915242D01*
X10276265Y76914758D01*
X10789172Y77126687D01*
X11181934Y77518764D01*
X11394758Y78031300D01*
X11395242Y78586265D01*
X11183313Y79099172D01*
X10791236Y79491934D01*
X10278700Y79704758D01*
X10034424Y79704971D01*
X10347049Y79720659D01*
X10729941Y79879258D01*
X10799159Y80121236D01*
X10000000Y80920395D01*
X9200841Y80121236D01*
X9270059Y79879258D01*
X9758102Y79705212D01*
X9723735Y79705242D01*
X9210828Y79493313D01*
X8818066Y79101236D01*
X8605242Y78588700D01*
X8604758Y78033735D01*
X910000Y78033735D01*
X910000Y81307220D01*
X8592845Y81307220D01*
X8620659Y80752951D01*
X8779258Y80370059D01*
X9021236Y80300841D01*
X9820395Y81100000D01*
X10179605Y81100000D01*
X10978764Y80300841D01*
X11220742Y80370059D01*
X11407155Y80892780D01*
X11379341Y81447049D01*
X11220742Y81829941D01*
X10978764Y81899159D01*
X10179605Y81100000D01*
X9820395Y81100000D01*
X9021236Y81899159D01*
X8779258Y81829941D01*
X8592845Y81307220D01*
X910000Y81307220D01*
X910000Y82791236D01*
X9200841Y82791236D01*
X9270059Y82549258D01*
X9566512Y82443537D01*
X9270059Y82320742D01*
X9200841Y82078764D01*
X10000000Y81279605D01*
X10799159Y82078764D01*
X10794877Y82093735D01*
X11144758Y82093735D01*
X11356687Y81580828D01*
X11748764Y81188066D01*
X12105591Y81039898D01*
X11750828Y80893313D01*
X11358066Y80501236D01*
X11145242Y79988700D01*
X11144758Y79433735D01*
X11356687Y78920828D01*
X11748764Y78528066D01*
X12261300Y78315242D01*
X12816265Y78314758D01*
X13329172Y78526687D01*
X13721934Y78918764D01*
X13934758Y79431300D01*
X13935242Y79986265D01*
X13723313Y80499172D01*
X13331236Y80891934D01*
X12974409Y81040102D01*
X13329172Y81186687D01*
X13721934Y81578764D01*
X13934758Y82091300D01*
X13935242Y82646265D01*
X13723313Y83159172D01*
X13331236Y83551934D01*
X12818700Y83764758D01*
X12263735Y83765242D01*
X11750828Y83553313D01*
X11358066Y83161236D01*
X11145242Y82648700D01*
X11144758Y82093735D01*
X10794877Y82093735D01*
X10729941Y82320742D01*
X10433488Y82426463D01*
X10729941Y82549258D01*
X10799159Y82791236D01*
X10000000Y83590395D01*
X9200841Y82791236D01*
X910000Y82791236D01*
X910000Y83977220D01*
X8592845Y83977220D01*
X8620659Y83422951D01*
X8779258Y83040059D01*
X9021236Y82970841D01*
X9820395Y83770000D01*
X10179605Y83770000D01*
X10978764Y82970841D01*
X11220742Y83040059D01*
X11407155Y83562780D01*
X11379341Y84117049D01*
X11220742Y84499941D01*
X10978764Y84569159D01*
X10179605Y83770000D01*
X9820395Y83770000D01*
X9021236Y84569159D01*
X8779258Y84499941D01*
X8592845Y83977220D01*
X910000Y83977220D01*
X910000Y86283735D01*
X8604758Y86283735D01*
X8816687Y85770828D01*
X9208764Y85378066D01*
X9721300Y85165242D01*
X9965576Y85165029D01*
X9652951Y85149341D01*
X9270059Y84990742D01*
X9200841Y84748764D01*
X10000000Y83949605D01*
X10799159Y84748764D01*
X10729941Y84990742D01*
X10241898Y85164788D01*
X10276265Y85164758D01*
X10789172Y85376687D01*
X11181934Y85768764D01*
X11394758Y86281300D01*
X11395118Y86694438D01*
X11528110Y86603569D01*
X11780000Y86552560D01*
X12233042Y86552560D01*
X11750828Y86353313D01*
X11358066Y85961236D01*
X11145242Y85448700D01*
X11144758Y84893735D01*
X11356687Y84380828D01*
X11748764Y83988066D01*
X12261300Y83775242D01*
X12816265Y83774758D01*
X13329172Y83986687D01*
X13721934Y84378764D01*
X13934758Y84891300D01*
X13935242Y85446265D01*
X13723313Y85959172D01*
X13331236Y86351934D01*
X12848076Y86552560D01*
X13300000Y86552560D01*
X13535317Y86596838D01*
X13751441Y86735910D01*
X13759993Y86748427D01*
X14915000Y85593421D01*
X14915000Y72403222D01*
X14914683Y72403162D01*
X14698559Y72264090D01*
X14553569Y72051890D01*
X14502560Y71800000D01*
X14502560Y70300000D01*
X14546838Y70064683D01*
X14685910Y69848559D01*
X14898110Y69703569D01*
X14911197Y69700919D01*
X14698559Y69564090D01*
X14553569Y69351890D01*
X14502560Y69100000D01*
X14502560Y67600000D01*
X14546838Y67364683D01*
X14685910Y67148559D01*
X14898110Y67003569D01*
X14935695Y66995958D01*
X14962268Y66862367D01*
X14982367Y66761325D01*
X15135620Y66531964D01*
X15174210Y66474210D01*
X17044218Y64604203D01*
X17044220Y64604200D01*
X17236064Y64476015D01*
X17331336Y64412356D01*
X17670010Y64344989D01*
X17670015Y64344990D01*
X21369985Y64344990D01*
X21369990Y64344989D01*
X21689571Y64408559D01*
X21708665Y64412357D01*
X21995780Y64604200D01*
X22745787Y65354208D01*
X22745790Y65354210D01*
X22937633Y65641325D01*
X23005000Y65980000D01*
X23005000Y66142690D01*
X23134698Y66229352D01*
X23390000Y66611438D01*
X23645302Y66229352D01*
X24110849Y65918283D01*
X24660000Y65809050D01*
X25209151Y65918283D01*
X25674698Y66229352D01*
X25930000Y66611438D01*
X26185302Y66229352D01*
X26650849Y65918283D01*
X27143000Y65820388D01*
X27143000Y64091270D01*
X26894664Y63925337D01*
X26774664Y63805336D01*
X25663270Y62142018D01*
X25273000Y60180000D01*
X25273000Y6100000D01*
X25663270Y4137982D01*
X26774664Y2474664D01*
X28437982Y1363270D01*
X30400000Y973000D01*
X32362018Y1363270D01*
X34025336Y2474664D01*
X35136730Y4137982D01*
X35497259Y5950480D01*
X35976215Y5470688D01*
X36639388Y5195314D01*
X37357462Y5194687D01*
X38021115Y5468903D01*
X38529312Y5976215D01*
X38663759Y6300000D01*
X44212560Y6300000D01*
X44212560Y3900000D01*
X44256838Y3664683D01*
X44395910Y3448559D01*
X44608110Y3303569D01*
X44860000Y3252560D01*
X46460000Y3252560D01*
X46695317Y3296838D01*
X46911441Y3435910D01*
X47056431Y3648110D01*
X47086597Y3797074D01*
X47185302Y3649352D01*
X47650849Y3338283D01*
X48200000Y3229050D01*
X48749151Y3338283D01*
X49214698Y3649352D01*
X49470000Y4031438D01*
X49725302Y3649352D01*
X50190849Y3338283D01*
X50740000Y3229050D01*
X51289151Y3338283D01*
X51754698Y3649352D01*
X52010000Y4031438D01*
X52265302Y3649352D01*
X52730849Y3338283D01*
X53280000Y3229050D01*
X53829151Y3338283D01*
X54294698Y3649352D01*
X54605767Y4114899D01*
X54715000Y4664050D01*
X54715000Y5535950D01*
X54605767Y6085101D01*
X54294698Y6550648D01*
X53829151Y6861717D01*
X53280000Y6970950D01*
X52730849Y6861717D01*
X52265302Y6550648D01*
X52010000Y6168562D01*
X51754698Y6550648D01*
X51289151Y6861717D01*
X50740000Y6970950D01*
X50190849Y6861717D01*
X49725302Y6550648D01*
X49470000Y6168562D01*
X49214698Y6550648D01*
X48749151Y6861717D01*
X48200000Y6970950D01*
X47650849Y6861717D01*
X47185302Y6550648D01*
X47087749Y6404650D01*
X47063162Y6535317D01*
X46924090Y6751441D01*
X46711890Y6896431D01*
X46460000Y6947440D01*
X44860000Y6947440D01*
X44624683Y6903162D01*
X44408559Y6764090D01*
X44263569Y6551890D01*
X44212560Y6300000D01*
X38663759Y6300000D01*
X38804686Y6639388D01*
X38805313Y7357462D01*
X38531097Y8021115D01*
X38023785Y8529312D01*
X37360612Y8804686D01*
X36642538Y8805313D01*
X35978885Y8531097D01*
X35527000Y8079999D01*
X35527000Y9142538D01*
X38994687Y9142538D01*
X39268903Y8478885D01*
X39776215Y7970688D01*
X40439388Y7695314D01*
X41157462Y7694687D01*
X41821115Y7968903D01*
X42329312Y8476215D01*
X42604686Y9139388D01*
X42605313Y9857462D01*
X42331097Y10521115D01*
X41823785Y11029312D01*
X41160612Y11304686D01*
X40442538Y11305313D01*
X39778885Y11031097D01*
X39270688Y10523785D01*
X38995314Y9860612D01*
X38994687Y9142538D01*
X35527000Y9142538D01*
X35527000Y10920687D01*
X35976215Y10470688D01*
X36639388Y10195314D01*
X37357462Y10194687D01*
X38021115Y10468903D01*
X38529312Y10976215D01*
X38804686Y11639388D01*
X38805313Y12357462D01*
X38531097Y13021115D01*
X38023785Y13529312D01*
X37360612Y13804686D01*
X36642538Y13805313D01*
X35978885Y13531097D01*
X35527000Y13079999D01*
X35527000Y17826110D01*
X37222018Y18163270D01*
X38885336Y19274664D01*
X39996730Y20937982D01*
X40387000Y22900000D01*
X39996730Y24862018D01*
X38885336Y26525336D01*
X37222018Y27636730D01*
X35527000Y27973890D01*
X35527000Y37026110D01*
X37222018Y37363270D01*
X38885336Y38474664D01*
X39996730Y40137982D01*
X40387000Y42100000D01*
X39996730Y44062018D01*
X38885336Y45725336D01*
X37222018Y46836730D01*
X35527000Y47173890D01*
X35527000Y59696720D01*
X35647000Y60300000D01*
X35547326Y60801094D01*
X41215000Y55133421D01*
X41215000Y23600005D01*
X41214999Y23600000D01*
X41247715Y23435530D01*
X41282367Y23261325D01*
X41474210Y22974210D01*
X47315000Y17133421D01*
X47315000Y14257310D01*
X47185302Y14170648D01*
X46930000Y13788562D01*
X46674698Y14170648D01*
X46209151Y14481717D01*
X45660000Y14590950D01*
X45110849Y14481717D01*
X44645302Y14170648D01*
X44334233Y13705101D01*
X44225000Y13155950D01*
X44225000Y12284050D01*
X44334233Y11734899D01*
X44645302Y11269352D01*
X45110849Y10958283D01*
X45660000Y10849050D01*
X46209151Y10958283D01*
X46674698Y11269352D01*
X46930000Y11651438D01*
X47185302Y11269352D01*
X47650849Y10958283D01*
X48200000Y10849050D01*
X48749151Y10958283D01*
X49214698Y11269352D01*
X49470000Y11651438D01*
X49725302Y11269352D01*
X50190849Y10958283D01*
X50740000Y10849050D01*
X51289151Y10958283D01*
X51754698Y11269352D01*
X52010000Y11651438D01*
X52265302Y11269352D01*
X52730849Y10958283D01*
X53280000Y10849050D01*
X53829151Y10958283D01*
X54294698Y11269352D01*
X54605767Y11734899D01*
X54715000Y12284050D01*
X54715000Y13155950D01*
X54605767Y13705101D01*
X54294698Y14170648D01*
X53829151Y14481717D01*
X53280000Y14590950D01*
X52730849Y14481717D01*
X52265302Y14170648D01*
X52010000Y13788562D01*
X51754698Y14170648D01*
X51289151Y14481717D01*
X50740000Y14590950D01*
X50190849Y14481717D01*
X49725302Y14170648D01*
X49470000Y13788562D01*
X49214698Y14170648D01*
X49085000Y14257310D01*
X49085000Y17499995D01*
X49085001Y17500000D01*
X49017633Y17838674D01*
X49017633Y17838675D01*
X48825790Y18125790D01*
X48825787Y18125792D01*
X42985000Y23966580D01*
X42985000Y55499995D01*
X42985001Y55500000D01*
X42917633Y55838674D01*
X42917633Y55838675D01*
X42725790Y56125790D01*
X42725787Y56125792D01*
X36285000Y62566580D01*
X36285000Y63026477D01*
X36573461Y63314436D01*
X36784759Y63823298D01*
X36785240Y64374285D01*
X36574831Y64883515D01*
X36185564Y65273461D01*
X35676702Y65484759D01*
X35125715Y65485240D01*
X34616485Y65274831D01*
X34226539Y64885564D01*
X34015241Y64376702D01*
X34014923Y64012477D01*
X33897000Y64091270D01*
X33897000Y68542538D01*
X35594687Y68542538D01*
X35868903Y67878885D01*
X36376215Y67370688D01*
X37039388Y67095314D01*
X37757462Y67094687D01*
X38421115Y67368903D01*
X38929312Y67876215D01*
X39204686Y68539388D01*
X39205313Y69257462D01*
X38931097Y69921115D01*
X38423785Y70429312D01*
X37760612Y70704686D01*
X37042538Y70705313D01*
X36378885Y70431097D01*
X35870688Y69923785D01*
X35595314Y69260612D01*
X35594687Y68542538D01*
X33897000Y68542538D01*
X33897000Y69594740D01*
X33957462Y69594687D01*
X34621115Y69868903D01*
X35129312Y70376215D01*
X35404686Y71039388D01*
X35405313Y71757462D01*
X35131097Y72421115D01*
X34623785Y72929312D01*
X33960612Y73204686D01*
X33897000Y73204742D01*
X33897000Y73542538D01*
X35594687Y73542538D01*
X35868903Y72878885D01*
X36376215Y72370688D01*
X37039388Y72095314D01*
X37757462Y72094687D01*
X38421115Y72368903D01*
X38929312Y72876215D01*
X39204686Y73539388D01*
X39205313Y74257462D01*
X38931097Y74921115D01*
X38423785Y75429312D01*
X37760612Y75704686D01*
X37042538Y75705313D01*
X36378885Y75431097D01*
X35870688Y74923785D01*
X35595314Y74260612D01*
X35594687Y73542538D01*
X33897000Y73542538D01*
X33897000Y78379995D01*
X33897001Y78380000D01*
X33639941Y79672322D01*
X33501671Y79879258D01*
X32907900Y80767900D01*
X32907897Y80767902D01*
X31387900Y82287900D01*
X30292322Y83019941D01*
X29000000Y83277001D01*
X28999995Y83277000D01*
X27847861Y83277000D01*
X27540412Y83487071D01*
X26300000Y83738261D01*
X24800000Y83738261D01*
X23641203Y83520219D01*
X22576919Y82835370D01*
X21862929Y81790412D01*
X21714284Y81056383D01*
X21648559Y81014090D01*
X21503569Y80801890D01*
X21452560Y80550000D01*
X21452560Y79250000D01*
X21496838Y79014683D01*
X21635910Y78798559D01*
X21705649Y78750908D01*
X21829781Y78091203D01*
X21965000Y77881067D01*
X21965000Y77140119D01*
X21570849Y77061717D01*
X21105302Y76750648D01*
X20850000Y76368562D01*
X20594698Y76750648D01*
X20129151Y77061717D01*
X19580000Y77170950D01*
X19030849Y77061717D01*
X18565302Y76750648D01*
X18254233Y76285101D01*
X18145000Y75735950D01*
X18145000Y74864050D01*
X18164490Y74766069D01*
X16685000Y73286580D01*
X16685000Y85959995D01*
X16685001Y85960000D01*
X16617633Y86298675D01*
X16583339Y86350000D01*
X16425790Y86585790D01*
X16425787Y86585792D01*
X15938681Y87072898D01*
X26010229Y87072898D01*
X26220638Y86563668D01*
X26609905Y86173722D01*
X27118767Y85962424D01*
X27669754Y85961943D01*
X28178984Y86172352D01*
X28568930Y86561619D01*
X28780228Y87070481D01*
X28780586Y87480720D01*
X28984705Y87684839D01*
X31603617Y87684839D01*
X31463143Y87346540D01*
X31462662Y86795553D01*
X31673071Y86286323D01*
X32062338Y85896377D01*
X32571200Y85685079D01*
X32981439Y85684721D01*
X41898022Y76768139D01*
X41898022Y67116983D01*
X41898021Y67116978D01*
X41954212Y66834494D01*
X41965389Y66778303D01*
X42078574Y66608909D01*
X42157232Y66491188D01*
X49072069Y59576352D01*
X49070805Y59570000D01*
X49077767Y59535000D01*
X49035805Y59535000D01*
X48563191Y59440991D01*
X48162528Y59173277D01*
X47894814Y58772614D01*
X47800805Y58300000D01*
X47894814Y57827386D01*
X48162528Y57426723D01*
X48563191Y57159009D01*
X48765000Y57118867D01*
X48765000Y52772038D01*
X48664683Y52753162D01*
X48448559Y52614090D01*
X48303569Y52401890D01*
X48252560Y52150000D01*
X48252560Y50850000D01*
X48296838Y50614683D01*
X48435910Y50398559D01*
X48648110Y50253569D01*
X48900000Y50202560D01*
X50400000Y50202560D01*
X50635317Y50246838D01*
X50851441Y50385910D01*
X50996431Y50598110D01*
X51003191Y50631490D01*
X51061673Y50490301D01*
X51240302Y50311673D01*
X51473691Y50215000D01*
X52064250Y50215000D01*
X52223000Y50373750D01*
X52223000Y51373000D01*
X52477000Y51373000D01*
X52477000Y50373750D01*
X52635750Y50215000D01*
X53226309Y50215000D01*
X53459698Y50311673D01*
X53638327Y50490301D01*
X53735000Y50723690D01*
X53735000Y51214250D01*
X53576250Y51373000D01*
X52477000Y51373000D01*
X52223000Y51373000D01*
X52203000Y51373000D01*
X52203000Y51627000D01*
X52223000Y51627000D01*
X52223000Y52626250D01*
X52477000Y52626250D01*
X52477000Y51627000D01*
X53576250Y51627000D01*
X53735000Y51785750D01*
X53735000Y52276310D01*
X53638327Y52509699D01*
X53459698Y52688327D01*
X53226309Y52785000D01*
X52635750Y52785000D01*
X52477000Y52626250D01*
X52223000Y52626250D01*
X52175415Y52673835D01*
X52616579Y53115000D01*
X54595838Y53115000D01*
X54191091Y52710959D01*
X53865372Y51926541D01*
X53864630Y51077185D01*
X54188980Y50292200D01*
X54789041Y49691091D01*
X55573459Y49365372D01*
X56422815Y49364630D01*
X57207800Y49688980D01*
X57808909Y50289041D01*
X57849698Y50387271D01*
X57888980Y50292200D01*
X58489041Y49691091D01*
X59273459Y49365372D01*
X60122815Y49364630D01*
X60907800Y49688980D01*
X61508909Y50289041D01*
X61644259Y50615000D01*
X67038569Y50615000D01*
X67100000Y50602560D01*
X68600000Y50602560D01*
X68835317Y50646838D01*
X69051441Y50785910D01*
X69196431Y50998110D01*
X69203191Y51031490D01*
X69261673Y50890301D01*
X69440302Y50711673D01*
X69673691Y50615000D01*
X70264250Y50615000D01*
X70423000Y50773750D01*
X70423000Y51773000D01*
X70677000Y51773000D01*
X70677000Y50773750D01*
X70835750Y50615000D01*
X71426309Y50615000D01*
X71659698Y50711673D01*
X71838327Y50890301D01*
X71935000Y51123690D01*
X71935000Y51614250D01*
X71776250Y51773000D01*
X70677000Y51773000D01*
X70423000Y51773000D01*
X70403000Y51773000D01*
X70403000Y52027000D01*
X70423000Y52027000D01*
X70423000Y53026250D01*
X70677000Y53026250D01*
X70677000Y52027000D01*
X71776250Y52027000D01*
X71935000Y52185750D01*
X71935000Y52676310D01*
X71838327Y52909699D01*
X71659698Y53088327D01*
X71426309Y53185000D01*
X70835750Y53185000D01*
X70677000Y53026250D01*
X70423000Y53026250D01*
X70264250Y53185000D01*
X69673691Y53185000D01*
X69440302Y53088327D01*
X69261673Y52909699D01*
X69205346Y52773713D01*
X69203162Y52785317D01*
X69064090Y53001441D01*
X68851890Y53146431D01*
X68735000Y53170102D01*
X68735000Y57092413D01*
X68825186Y57227386D01*
X68828041Y57241739D01*
X68830896Y57227386D01*
X69098610Y56826723D01*
X69499273Y56559009D01*
X69971887Y56465000D01*
X70428113Y56465000D01*
X70900727Y56559009D01*
X71301390Y56826723D01*
X71569104Y57227386D01*
X71663113Y57700000D01*
X71569104Y58172614D01*
X71301390Y58573277D01*
X71295542Y58577185D01*
X80864630Y58577185D01*
X81188980Y57792200D01*
X81789041Y57191091D01*
X82573459Y56865372D01*
X83422815Y56864630D01*
X84207800Y57188980D01*
X84808909Y57789041D01*
X85134628Y58573459D01*
X85135370Y59422815D01*
X84811020Y60207800D01*
X84210959Y60808909D01*
X83426541Y61134628D01*
X82577185Y61135370D01*
X81792200Y60811020D01*
X81191091Y60210959D01*
X80865372Y59426541D01*
X80864630Y58577185D01*
X71295542Y58577185D01*
X70900727Y58840991D01*
X70428113Y58935000D01*
X70182233Y58935000D01*
X70189195Y58970000D01*
X70095186Y59442614D01*
X69827472Y59843277D01*
X69426809Y60110991D01*
X68954195Y60205000D01*
X68946579Y60205000D01*
X68355791Y60795789D01*
X68332996Y60811020D01*
X68068676Y60987632D01*
X68012485Y60998809D01*
X67730001Y61055000D01*
X67729996Y61054999D01*
X50930004Y61054999D01*
X50929999Y61055000D01*
X50647515Y60998809D01*
X50591324Y60987632D01*
X50335130Y60816449D01*
X43668022Y67483558D01*
X43668022Y77134116D01*
X45215010Y75587128D01*
X45215010Y70230400D01*
X44926549Y69942441D01*
X44715251Y69433579D01*
X44714770Y68882592D01*
X44925179Y68373362D01*
X45314446Y67983416D01*
X45823308Y67772118D01*
X46233547Y67771760D01*
X46925670Y67079638D01*
X46925672Y67079635D01*
X47212787Y66887792D01*
X47551462Y66820425D01*
X60306934Y66820425D01*
X60363021Y66764240D01*
X59992200Y66611020D01*
X59391091Y66010959D01*
X59065372Y65226541D01*
X59064630Y64377185D01*
X59388980Y63592200D01*
X59989041Y62991091D01*
X60773459Y62665372D01*
X61622815Y62664630D01*
X62407800Y62988980D01*
X62433114Y63014250D01*
X72165000Y63014250D01*
X72165000Y62548690D01*
X72261673Y62315301D01*
X72440302Y62136673D01*
X72673691Y62040000D01*
X73264250Y62040000D01*
X73423000Y62198750D01*
X73423000Y63173000D01*
X72323750Y63173000D01*
X72165000Y63014250D01*
X62433114Y63014250D01*
X63008909Y63589041D01*
X63200859Y64051310D01*
X72165000Y64051310D01*
X72165000Y63585750D01*
X72323750Y63427000D01*
X73423000Y63427000D01*
X73423000Y64401250D01*
X73264250Y64560000D01*
X72673691Y64560000D01*
X72440302Y64463327D01*
X72261673Y64284699D01*
X72165000Y64051310D01*
X63200859Y64051310D01*
X63334628Y64373459D01*
X63335370Y65222815D01*
X63011020Y66007800D01*
X62410959Y66608909D01*
X62291934Y66658333D01*
X62553918Y66919861D01*
X62765216Y67428723D01*
X62765697Y67979710D01*
X62555288Y68488940D01*
X62166021Y68878886D01*
X61657159Y69090184D01*
X61106172Y69090665D01*
X60596942Y68880256D01*
X60306605Y68590425D01*
X47918041Y68590425D01*
X47484894Y69023573D01*
X47485250Y69431162D01*
X47274841Y69940392D01*
X46985010Y70230729D01*
X46985010Y71577185D01*
X52864630Y71577185D01*
X53188980Y70792200D01*
X53789041Y70191091D01*
X54573459Y69865372D01*
X55422815Y69864630D01*
X56207800Y70188980D01*
X56808909Y70789041D01*
X57134628Y71573459D01*
X57135370Y72422815D01*
X56811020Y73207800D01*
X56210959Y73808909D01*
X55426541Y74134628D01*
X54577185Y74135370D01*
X53792200Y73811020D01*
X53191091Y73210959D01*
X52865372Y72426541D01*
X52864630Y71577185D01*
X46985010Y71577185D01*
X46985010Y75953702D01*
X46985011Y75953707D01*
X46926130Y76249717D01*
X46917643Y76292382D01*
X46725800Y76579497D01*
X46725797Y76579499D01*
X35579584Y87725713D01*
X39996069Y87725713D01*
X40206478Y87216483D01*
X40595745Y86826537D01*
X41104607Y86615239D01*
X41655594Y86614758D01*
X42164824Y86825167D01*
X42455161Y87114998D01*
X43983422Y87114998D01*
X64024208Y67074213D01*
X64024210Y67074210D01*
X64311325Y66882367D01*
X64523217Y66840219D01*
X64546838Y66714683D01*
X64685910Y66498559D01*
X64898110Y66353569D01*
X65150000Y66302560D01*
X66450000Y66302560D01*
X66685317Y66346838D01*
X66901441Y66485910D01*
X66989644Y66615000D01*
X70448852Y66615000D01*
X70510910Y66518559D01*
X70723110Y66373569D01*
X70975000Y66322560D01*
X71625000Y66322560D01*
X71860317Y66366838D01*
X72076441Y66505910D01*
X72221431Y66718110D01*
X72249176Y66855120D01*
X72271838Y66734683D01*
X72410910Y66518559D01*
X72623110Y66373569D01*
X72875000Y66322560D01*
X73525000Y66322560D01*
X73760317Y66366838D01*
X73849314Y66424106D01*
X75165000Y65108421D01*
X75165000Y64547038D01*
X75064683Y64528162D01*
X74848559Y64389090D01*
X74802031Y64320994D01*
X74659698Y64463327D01*
X74426309Y64560000D01*
X73835750Y64560000D01*
X73677000Y64401250D01*
X73677000Y63427000D01*
X73697000Y63427000D01*
X73697000Y63173000D01*
X73677000Y63173000D01*
X73677000Y62198750D01*
X73835750Y62040000D01*
X74426309Y62040000D01*
X74659698Y62136673D01*
X74800936Y62277910D01*
X74835910Y62223559D01*
X75048110Y62078569D01*
X75300000Y62027560D01*
X76800000Y62027560D01*
X77035317Y62071838D01*
X77251441Y62210910D01*
X77390890Y62415000D01*
X81939995Y62415000D01*
X81940000Y62414999D01*
X82222484Y62471190D01*
X82278675Y62482367D01*
X82565790Y62674210D01*
X83625787Y63734208D01*
X83625790Y63734210D01*
X83817633Y64021325D01*
X83855672Y64212560D01*
X83900000Y64212560D01*
X84135317Y64256838D01*
X84351441Y64395910D01*
X84496431Y64608110D01*
X84547440Y64860000D01*
X84547440Y66660000D01*
X84503162Y66895317D01*
X84364090Y67111441D01*
X84151890Y67256431D01*
X84100854Y67266766D01*
X84237966Y67392424D01*
X84491046Y67935258D01*
X84370997Y68173000D01*
X83127000Y68173000D01*
X83127000Y68153000D01*
X82873000Y68153000D01*
X82873000Y68173000D01*
X81629003Y68173000D01*
X81508954Y67935258D01*
X81762034Y67392424D01*
X81896538Y67269156D01*
X81864683Y67263162D01*
X81648559Y67124090D01*
X81503569Y66911890D01*
X81452560Y66660000D01*
X81452560Y64860000D01*
X81496838Y64624683D01*
X81635910Y64408559D01*
X81731598Y64343178D01*
X81573420Y64185000D01*
X77387279Y64185000D01*
X77264090Y64376441D01*
X77051890Y64521431D01*
X76935000Y64545102D01*
X76935000Y65475000D01*
X76867633Y65813675D01*
X76675790Y66100790D01*
X76675787Y66100792D01*
X74650790Y68125790D01*
X74580135Y68173000D01*
X74363675Y68317633D01*
X74295394Y68331215D01*
X74054986Y68379036D01*
X73989090Y68481441D01*
X73813768Y68601233D01*
X73976441Y68705910D01*
X74121431Y68918110D01*
X74172440Y69170000D01*
X74172440Y69625860D01*
X74501579Y69955000D01*
X81760589Y69955000D01*
X81914591Y69724519D01*
X82152582Y69565499D01*
X81762034Y69207576D01*
X81508954Y68664742D01*
X81629003Y68427000D01*
X82873000Y68427000D01*
X82873000Y68447000D01*
X83127000Y68447000D01*
X83127000Y68427000D01*
X84370997Y68427000D01*
X84491046Y68664742D01*
X84237966Y69207576D01*
X83847418Y69565499D01*
X84085409Y69724519D01*
X84418155Y70222509D01*
X84535000Y70809928D01*
X84535000Y70870072D01*
X84418155Y71457491D01*
X84085409Y71955481D01*
X83587419Y72288227D01*
X83000000Y72405072D01*
X82412581Y72288227D01*
X81914591Y71955481D01*
X81760589Y71725000D01*
X74135005Y71725000D01*
X74135000Y71725001D01*
X73852516Y71668810D01*
X73796325Y71657633D01*
X73509210Y71465790D01*
X73509208Y71465787D01*
X72920860Y70877440D01*
X72875000Y70877440D01*
X72734914Y70851081D01*
X72701310Y70865000D01*
X72535750Y70865000D01*
X72377000Y70706250D01*
X72377000Y70625949D01*
X72278569Y70481890D01*
X72250824Y70344880D01*
X72228162Y70465317D01*
X72185000Y70532393D01*
X72185000Y73402560D01*
X72350000Y73402560D01*
X72585317Y73446838D01*
X72801441Y73585910D01*
X72946431Y73798110D01*
X72953191Y73831490D01*
X73011673Y73690301D01*
X73190302Y73511673D01*
X73423691Y73415000D01*
X74014250Y73415000D01*
X74173000Y73573750D01*
X74173000Y74573000D01*
X74427000Y74573000D01*
X74427000Y73573750D01*
X74585750Y73415000D01*
X75176309Y73415000D01*
X75409698Y73511673D01*
X75588327Y73690301D01*
X75685000Y73923690D01*
X75685000Y74414250D01*
X75526250Y74573000D01*
X74427000Y74573000D01*
X74173000Y74573000D01*
X74153000Y74573000D01*
X74153000Y74827000D01*
X74173000Y74827000D01*
X74173000Y75826250D01*
X74427000Y75826250D01*
X74427000Y74827000D01*
X75526250Y74827000D01*
X75685000Y74985750D01*
X75685000Y75476310D01*
X75588327Y75709699D01*
X75409698Y75888327D01*
X75176309Y75985000D01*
X74585750Y75985000D01*
X74427000Y75826250D01*
X74173000Y75826250D01*
X74014250Y75985000D01*
X73423691Y75985000D01*
X73190302Y75888327D01*
X73011673Y75709699D01*
X72955346Y75573713D01*
X72953162Y75585317D01*
X72814090Y75801441D01*
X72601890Y75946431D01*
X72350000Y75997440D01*
X70850000Y75997440D01*
X70614683Y75953162D01*
X70398559Y75814090D01*
X70253569Y75601890D01*
X70250149Y75585000D01*
X69853222Y75585000D01*
X69853162Y75585317D01*
X69714090Y75801441D01*
X69501890Y75946431D01*
X69250000Y75997440D01*
X67750000Y75997440D01*
X67514683Y75953162D01*
X67298559Y75814090D01*
X67153569Y75601890D01*
X67150919Y75588803D01*
X67014090Y75801441D01*
X66801890Y75946431D01*
X66550000Y75997440D01*
X65050000Y75997440D01*
X64814683Y75953162D01*
X64598559Y75814090D01*
X64453569Y75601890D01*
X64402560Y75350000D01*
X64402560Y74050000D01*
X64446838Y73814683D01*
X64585910Y73598559D01*
X64798110Y73453569D01*
X64915000Y73429898D01*
X64915000Y71753222D01*
X64914683Y71753162D01*
X64698559Y71614090D01*
X64553569Y71401890D01*
X64502560Y71150000D01*
X64502560Y69650000D01*
X64546838Y69414683D01*
X64685910Y69198559D01*
X64898110Y69053569D01*
X64911197Y69050919D01*
X64698559Y68914090D01*
X64694065Y68907514D01*
X55537330Y78064250D01*
X70615000Y78064250D01*
X70615000Y77473691D01*
X70711673Y77240302D01*
X70890301Y77061673D01*
X71123690Y76965000D01*
X71614250Y76965000D01*
X71773000Y77123750D01*
X71773000Y78223000D01*
X72027000Y78223000D01*
X72027000Y77123750D01*
X72185750Y76965000D01*
X72676310Y76965000D01*
X72909699Y77061673D01*
X73088327Y77240302D01*
X73185000Y77473691D01*
X73185000Y78064250D01*
X74415000Y78064250D01*
X74415000Y77473691D01*
X74511673Y77240302D01*
X74690301Y77061673D01*
X74923690Y76965000D01*
X75414250Y76965000D01*
X75573000Y77123750D01*
X75573000Y78223000D01*
X75827000Y78223000D01*
X75827000Y77123750D01*
X75985750Y76965000D01*
X76476310Y76965000D01*
X76709699Y77061673D01*
X76888327Y77240302D01*
X76985000Y77473691D01*
X76985000Y77964250D01*
X78115000Y77964250D01*
X78115000Y77373691D01*
X78211673Y77140302D01*
X78390301Y76961673D01*
X78623690Y76865000D01*
X79114250Y76865000D01*
X79273000Y77023750D01*
X79273000Y78123000D01*
X79527000Y78123000D01*
X79527000Y77023750D01*
X79685750Y76865000D01*
X80176310Y76865000D01*
X80409699Y76961673D01*
X80588327Y77140302D01*
X80685000Y77373691D01*
X80685000Y77964250D01*
X80526250Y78123000D01*
X79527000Y78123000D01*
X79273000Y78123000D01*
X78273750Y78123000D01*
X78115000Y77964250D01*
X76985000Y77964250D01*
X76985000Y78064250D01*
X76826250Y78223000D01*
X75827000Y78223000D01*
X75573000Y78223000D01*
X74573750Y78223000D01*
X74415000Y78064250D01*
X73185000Y78064250D01*
X73026250Y78223000D01*
X72027000Y78223000D01*
X71773000Y78223000D01*
X70773750Y78223000D01*
X70615000Y78064250D01*
X55537330Y78064250D01*
X44975792Y88625788D01*
X44875257Y88692963D01*
X44688677Y88817631D01*
X44632486Y88828808D01*
X44350002Y88884999D01*
X44349997Y88884998D01*
X42454832Y88884998D01*
X42166873Y89173459D01*
X41658011Y89384757D01*
X41107024Y89385238D01*
X40597794Y89174829D01*
X40207848Y88785562D01*
X39996550Y88276700D01*
X39996069Y87725713D01*
X35579584Y87725713D01*
X34109668Y89195629D01*
X33965056Y89292255D01*
X33822553Y89387472D01*
X33766362Y89398649D01*
X33483878Y89454840D01*
X33483873Y89454839D01*
X28618130Y89454839D01*
X28618125Y89454840D01*
X28335641Y89398649D01*
X28279450Y89387472D01*
X27992335Y89195629D01*
X27992333Y89195626D01*
X27528773Y88732067D01*
X27121184Y88732423D01*
X26611954Y88522014D01*
X26222008Y88132747D01*
X26010710Y87623885D01*
X26010229Y87072898D01*
X15938681Y87072898D01*
X15936579Y87075000D01*
X21753997Y87075000D01*
X21754002Y87074999D01*
X22036486Y87131190D01*
X22092677Y87142367D01*
X22379792Y87334210D01*
X25171179Y90125598D01*
X52404880Y90125598D01*
X52264406Y89787298D01*
X52263925Y89236311D01*
X52474334Y88727081D01*
X52784975Y88415898D01*
X52509563Y88140966D01*
X52298265Y87632104D01*
X52297784Y87081117D01*
X52508193Y86571887D01*
X52798024Y86281550D01*
X52798024Y81816981D01*
X52798023Y81816976D01*
X52854214Y81534492D01*
X52865391Y81478301D01*
X52943558Y81361315D01*
X53057234Y81191186D01*
X55274208Y78974213D01*
X55274210Y78974210D01*
X55466054Y78846025D01*
X55561326Y78782366D01*
X55900000Y78714999D01*
X55900005Y78715000D01*
X60199995Y78715000D01*
X60200000Y78714999D01*
X60482484Y78771190D01*
X60538675Y78782367D01*
X60825790Y78974210D01*
X65066695Y83215116D01*
X65474285Y83214760D01*
X65983515Y83425169D01*
X66373461Y83814436D01*
X66584759Y84323298D01*
X66585240Y84874285D01*
X66374831Y85383515D01*
X66293488Y85465000D01*
X70627962Y85465000D01*
X70646838Y85364683D01*
X70785910Y85148559D01*
X70998110Y85003569D01*
X71011197Y85000919D01*
X70798559Y84864090D01*
X70653569Y84651890D01*
X70602560Y84400000D01*
X70602560Y82900000D01*
X70646838Y82664683D01*
X70785910Y82448559D01*
X70931083Y82349367D01*
X70798559Y82264090D01*
X70653569Y82051890D01*
X70602560Y81800000D01*
X70602560Y80300000D01*
X70646838Y80064683D01*
X70785910Y79848559D01*
X70998110Y79703569D01*
X71031490Y79696809D01*
X70890301Y79638327D01*
X70711673Y79459698D01*
X70615000Y79226309D01*
X70615000Y78635750D01*
X70773750Y78477000D01*
X71773000Y78477000D01*
X71773000Y78497000D01*
X72027000Y78497000D01*
X72027000Y78477000D01*
X73026250Y78477000D01*
X73185000Y78635750D01*
X73185000Y79226309D01*
X73088327Y79459698D01*
X72909699Y79638327D01*
X72773713Y79694654D01*
X72785317Y79696838D01*
X73001441Y79835910D01*
X73146431Y80048110D01*
X73197440Y80300000D01*
X73197440Y81800000D01*
X73153162Y82035317D01*
X73014090Y82251441D01*
X72868917Y82350633D01*
X73001441Y82435910D01*
X73146431Y82648110D01*
X73197440Y82900000D01*
X73197440Y84400000D01*
X73153162Y84635317D01*
X73014090Y84851441D01*
X72801890Y84996431D01*
X72788803Y84999081D01*
X73001441Y85135910D01*
X73146431Y85348110D01*
X73197440Y85600000D01*
X73197440Y86450981D01*
X73924208Y85724213D01*
X73924210Y85724210D01*
X74211325Y85532367D01*
X74267516Y85521190D01*
X74423217Y85490218D01*
X74446838Y85364683D01*
X74585910Y85148559D01*
X74798110Y85003569D01*
X74811197Y85000919D01*
X74598559Y84864090D01*
X74453569Y84651890D01*
X74402560Y84400000D01*
X74402560Y82900000D01*
X74446838Y82664683D01*
X74585910Y82448559D01*
X74731083Y82349367D01*
X74598559Y82264090D01*
X74453569Y82051890D01*
X74402560Y81800000D01*
X74402560Y80300000D01*
X74446838Y80064683D01*
X74585910Y79848559D01*
X74798110Y79703569D01*
X74831490Y79696809D01*
X74690301Y79638327D01*
X74511673Y79459698D01*
X74415000Y79226309D01*
X74415000Y78635750D01*
X74573750Y78477000D01*
X75573000Y78477000D01*
X75573000Y78497000D01*
X75827000Y78497000D01*
X75827000Y78477000D01*
X76826250Y78477000D01*
X76985000Y78635750D01*
X76985000Y79226309D01*
X76888327Y79459698D01*
X76709699Y79638327D01*
X76573713Y79694654D01*
X76585317Y79696838D01*
X76801441Y79835910D01*
X76946431Y80048110D01*
X76997440Y80300000D01*
X76997440Y81800000D01*
X76953162Y82035317D01*
X76814090Y82251441D01*
X76668917Y82350633D01*
X76801441Y82435910D01*
X76946431Y82648110D01*
X76997440Y82900000D01*
X76997440Y84400000D01*
X76953162Y84635317D01*
X76814090Y84851441D01*
X76601890Y84996431D01*
X76588803Y84999081D01*
X76801441Y85135910D01*
X76946431Y85348110D01*
X76997440Y85600000D01*
X76997440Y87100000D01*
X78102560Y87100000D01*
X78102560Y85600000D01*
X78146838Y85364683D01*
X78285910Y85148559D01*
X78498110Y85003569D01*
X78511197Y85000919D01*
X78298559Y84864090D01*
X78153569Y84651890D01*
X78102560Y84400000D01*
X78102560Y82900000D01*
X78146838Y82664683D01*
X78285910Y82448559D01*
X78498110Y82303569D01*
X78511197Y82300919D01*
X78298559Y82164090D01*
X78153569Y81951890D01*
X78102560Y81700000D01*
X78102560Y80200000D01*
X78146838Y79964683D01*
X78285910Y79748559D01*
X78498110Y79603569D01*
X78531490Y79596809D01*
X78390301Y79538327D01*
X78211673Y79359698D01*
X78115000Y79126309D01*
X78115000Y78535750D01*
X78273750Y78377000D01*
X79273000Y78377000D01*
X79273000Y78397000D01*
X79527000Y78397000D01*
X79527000Y78377000D01*
X80526250Y78377000D01*
X80685000Y78535750D01*
X80685000Y79126309D01*
X80588327Y79359698D01*
X80409699Y79538327D01*
X80273713Y79594654D01*
X80285317Y79596838D01*
X80501441Y79735910D01*
X80646431Y79948110D01*
X80697440Y80200000D01*
X80697440Y81700000D01*
X80653162Y81935317D01*
X80514090Y82151441D01*
X80301890Y82296431D01*
X80288803Y82299081D01*
X80501441Y82435910D01*
X80646431Y82648110D01*
X80697440Y82900000D01*
X80697440Y83700981D01*
X81001811Y83396610D01*
X81001811Y77530893D01*
X80713350Y77242934D01*
X80502052Y76734072D01*
X80501571Y76183085D01*
X80711980Y75673855D01*
X81101247Y75283909D01*
X81610109Y75072611D01*
X82161096Y75072130D01*
X82670326Y75282539D01*
X83060272Y75671806D01*
X83271570Y76180668D01*
X83272051Y76731655D01*
X83061642Y77240885D01*
X82771811Y77531222D01*
X82771811Y83763184D01*
X82771812Y83763189D01*
X82704444Y84101863D01*
X82704444Y84101864D01*
X82512601Y84388979D01*
X82512598Y84388981D01*
X80697440Y86204140D01*
X80697440Y87100000D01*
X80653162Y87335317D01*
X80514090Y87551441D01*
X80301890Y87696431D01*
X80050000Y87747440D01*
X78750000Y87747440D01*
X78514683Y87703162D01*
X78298559Y87564090D01*
X78153569Y87351890D01*
X78102560Y87100000D01*
X76997440Y87100000D01*
X76953162Y87335317D01*
X76814090Y87551441D01*
X76601890Y87696431D01*
X76350000Y87747440D01*
X75050000Y87747440D01*
X74814683Y87703162D01*
X74598559Y87564090D01*
X74594066Y87557514D01*
X69525790Y92625790D01*
X69473931Y92660441D01*
X69238675Y92817633D01*
X69182484Y92828810D01*
X68900000Y92885001D01*
X68899995Y92885000D01*
X55160573Y92885000D01*
X54725787Y93319787D01*
X57099392Y93319787D01*
X57168857Y93077603D01*
X57692302Y92890856D01*
X58247368Y92918638D01*
X58631143Y93077603D01*
X58700608Y93319787D01*
X57900000Y94120395D01*
X57099392Y93319787D01*
X54725787Y93319787D01*
X53537876Y94507698D01*
X56490856Y94507698D01*
X56518638Y93952632D01*
X56677603Y93568857D01*
X56919787Y93499392D01*
X57720395Y94300000D01*
X58079605Y94300000D01*
X58880213Y93499392D01*
X59122397Y93568857D01*
X59172509Y93709318D01*
X59254990Y93509697D01*
X59647630Y93116371D01*
X60160900Y92903243D01*
X60716661Y92902758D01*
X61230303Y93114990D01*
X61623629Y93507630D01*
X61717870Y93734588D01*
X61779826Y93585003D01*
X62144801Y93180142D01*
X62636928Y92945769D01*
X62853000Y93067524D01*
X62853000Y94173000D01*
X62833000Y94173000D01*
X62833000Y94427000D01*
X62853000Y94427000D01*
X62853000Y95532476D01*
X63107000Y95532476D01*
X63107000Y94427000D01*
X63127000Y94427000D01*
X63127000Y94173000D01*
X63107000Y94173000D01*
X63107000Y93067524D01*
X63323072Y92945769D01*
X63815199Y93180142D01*
X64180174Y93585003D01*
X64234638Y93716501D01*
X64504803Y93312172D01*
X64958022Y93009340D01*
X65492631Y92903000D01*
X65547369Y92903000D01*
X66081978Y93009340D01*
X66535197Y93312172D01*
X66795586Y93701870D01*
X66874990Y93509697D01*
X67267630Y93116371D01*
X67780900Y92903243D01*
X68336661Y92902758D01*
X68850303Y93114990D01*
X69243629Y93507630D01*
X69324334Y93701990D01*
X69584803Y93312172D01*
X70038022Y93009340D01*
X70572631Y92903000D01*
X70627369Y92903000D01*
X71161978Y93009340D01*
X71615197Y93312172D01*
X71870000Y93693511D01*
X72124803Y93312172D01*
X72578022Y93009340D01*
X73112631Y92903000D01*
X73167369Y92903000D01*
X73701978Y93009340D01*
X74155197Y93312172D01*
X74410000Y93693511D01*
X74664803Y93312172D01*
X75118022Y93009340D01*
X75652631Y92903000D01*
X75707369Y92903000D01*
X76241978Y93009340D01*
X76695197Y93312172D01*
X76965362Y93716501D01*
X77019826Y93585003D01*
X77384801Y93180142D01*
X77876928Y92945769D01*
X78093000Y93067524D01*
X78093000Y94173000D01*
X78073000Y94173000D01*
X78073000Y94427000D01*
X78093000Y94427000D01*
X78093000Y95532476D01*
X78347000Y95532476D01*
X78347000Y94427000D01*
X78367000Y94427000D01*
X78367000Y94173000D01*
X78347000Y94173000D01*
X78347000Y93067524D01*
X78563072Y92945769D01*
X79055199Y93180142D01*
X79420174Y93585003D01*
X79482098Y93734513D01*
X79574990Y93509697D01*
X79967630Y93116371D01*
X80480900Y92903243D01*
X81036661Y92902758D01*
X81550303Y93114990D01*
X81943629Y93507630D01*
X82156757Y94020900D01*
X82157242Y94576661D01*
X81945010Y95090303D01*
X81552370Y95483629D01*
X81039100Y95696757D01*
X80483339Y95697242D01*
X79969697Y95485010D01*
X79576371Y95092370D01*
X79482130Y94865412D01*
X79420174Y95014997D01*
X79055199Y95419858D01*
X78563072Y95654231D01*
X78347000Y95532476D01*
X78093000Y95532476D01*
X77876928Y95654231D01*
X77384801Y95419858D01*
X77019826Y95014997D01*
X76965362Y94883499D01*
X76695197Y95287828D01*
X76241978Y95590660D01*
X75707369Y95697000D01*
X75652631Y95697000D01*
X75118022Y95590660D01*
X74664803Y95287828D01*
X74410000Y94906489D01*
X74155197Y95287828D01*
X73701978Y95590660D01*
X73167369Y95697000D01*
X73112631Y95697000D01*
X72578022Y95590660D01*
X72124803Y95287828D01*
X71870000Y94906489D01*
X71615197Y95287828D01*
X71161978Y95590660D01*
X70627369Y95697000D01*
X70572631Y95697000D01*
X70038022Y95590660D01*
X69584803Y95287828D01*
X69324414Y94898130D01*
X69245010Y95090303D01*
X68852370Y95483629D01*
X68339100Y95696757D01*
X67783339Y95697242D01*
X67269697Y95485010D01*
X66876371Y95092370D01*
X66795666Y94898010D01*
X66535197Y95287828D01*
X66081978Y95590660D01*
X65547369Y95697000D01*
X65492631Y95697000D01*
X64958022Y95590660D01*
X64504803Y95287828D01*
X64234638Y94883499D01*
X64180174Y95014997D01*
X63815199Y95419858D01*
X63323072Y95654231D01*
X63107000Y95532476D01*
X62853000Y95532476D01*
X62636928Y95654231D01*
X62144801Y95419858D01*
X61779826Y95014997D01*
X61717902Y94865487D01*
X61625010Y95090303D01*
X61232370Y95483629D01*
X60719100Y95696757D01*
X60163339Y95697242D01*
X59649697Y95485010D01*
X59256371Y95092370D01*
X59176605Y94900273D01*
X59122397Y95031143D01*
X58880213Y95100608D01*
X58079605Y94300000D01*
X57720395Y94300000D01*
X56919787Y95100608D01*
X56677603Y95031143D01*
X56490856Y94507698D01*
X53537876Y94507698D01*
X52765361Y95280213D01*
X57099392Y95280213D01*
X57900000Y94479605D01*
X58700608Y95280213D01*
X58631143Y95522397D01*
X58107698Y95709144D01*
X57552632Y95681362D01*
X57168857Y95522397D01*
X57099392Y95280213D01*
X52765361Y95280213D01*
X49715804Y98329770D01*
X49479750Y98487495D01*
X49428689Y98521613D01*
X49372498Y98532790D01*
X49090014Y98588981D01*
X49090009Y98588980D01*
X22098662Y98588980D01*
X21810703Y98877441D01*
X21301841Y99088739D01*
X20750854Y99089220D01*
X20241624Y98878811D01*
X19851678Y98489544D01*
X19640380Y97980682D01*
X19639899Y97429695D01*
X19850308Y96920465D01*
X20239575Y96530519D01*
X20748437Y96319221D01*
X21299424Y96318740D01*
X21808654Y96529149D01*
X22098991Y96818980D01*
X48723434Y96818980D01*
X53646817Y91895598D01*
X24804605Y91895598D01*
X24804600Y91895599D01*
X24522116Y91839408D01*
X24465925Y91828231D01*
X24178810Y91636388D01*
X24178808Y91636385D01*
X23212777Y90670355D01*
X23053864Y91054005D01*
X22807745Y91128139D01*
X21979605Y90300000D01*
X21993748Y90285858D01*
X21814142Y90106252D01*
X21800000Y90120395D01*
X20971861Y89292255D01*
X21045995Y89046136D01*
X21445103Y88902681D01*
X21387422Y88845000D01*
X13923920Y88845000D01*
X13903162Y88955317D01*
X13764090Y89171441D01*
X13551890Y89316431D01*
X13300000Y89367440D01*
X11780000Y89367440D01*
X11544683Y89323162D01*
X11328559Y89184090D01*
X11183569Y88971890D01*
X11132560Y88720000D01*
X11132560Y87400014D01*
X10791236Y87741934D01*
X10278700Y87954758D01*
X9723735Y87955242D01*
X9210828Y87743313D01*
X8818066Y87351236D01*
X8605242Y86838700D01*
X8604758Y86283735D01*
X910000Y86283735D01*
X910000Y90516777D01*
X20353035Y90516777D01*
X20380222Y89946546D01*
X20546136Y89545995D01*
X20792255Y89471861D01*
X21620395Y90300000D01*
X20792255Y91128139D01*
X20546136Y91054005D01*
X20353035Y90516777D01*
X910000Y90516777D01*
X910000Y91307745D01*
X20971861Y91307745D01*
X21800000Y90479605D01*
X22628139Y91307745D01*
X22554005Y91553864D01*
X22016777Y91746965D01*
X21446546Y91719778D01*
X21045995Y91553864D01*
X20971861Y91307745D01*
X910000Y91307745D01*
X910000Y94696979D01*
X7459560Y94696979D01*
X7845437Y93763085D01*
X8559327Y93047948D01*
X9492546Y92660441D01*
X10503021Y92659560D01*
X11436915Y93045437D01*
X12152052Y93759327D01*
X12501130Y94600000D01*
X20352560Y94600000D01*
X20352560Y93000000D01*
X20396838Y92764683D01*
X20535910Y92548559D01*
X20748110Y92403569D01*
X21000000Y92352560D01*
X22600000Y92352560D01*
X22835317Y92396838D01*
X23051441Y92535910D01*
X23196431Y92748110D01*
X23247440Y93000000D01*
X23247440Y94600000D01*
X23203162Y94835317D01*
X23064090Y95051441D01*
X22851890Y95196431D01*
X22600000Y95247440D01*
X21000000Y95247440D01*
X20764683Y95203162D01*
X20548559Y95064090D01*
X20403569Y94851890D01*
X20352560Y94600000D01*
X12501130Y94600000D01*
X12539559Y94692546D01*
X12540440Y95703021D01*
X12154563Y96636915D01*
X11440673Y97352052D01*
X10507454Y97739559D01*
X9496979Y97740440D01*
X8563085Y97354563D01*
X7847948Y96640673D01*
X7460441Y95707454D01*
X7459560Y94696979D01*
X910000Y94696979D01*
X910000Y99840000D01*
X85240353Y99840000D01*
X85273183Y33884597D01*
X85273183Y33884597D01*
G37*
X85273183Y33884597D02*
X78754741Y40403039D01*
X79082342Y42050000D01*
X78749163Y43725005D01*
X77800348Y45145006D01*
X77401717Y45411363D01*
X77225336Y45675336D01*
X76481690Y46172225D01*
X76497440Y46250000D01*
X76497440Y48750000D01*
X76453162Y48985317D01*
X76314090Y49201441D01*
X76101890Y49346431D01*
X75850000Y49397440D01*
X71350000Y49397440D01*
X71114683Y49353162D01*
X70898559Y49214090D01*
X70753569Y49001890D01*
X70702560Y48750000D01*
X70702560Y47177000D01*
X63451362Y47177000D01*
X63200000Y47226999D01*
X61237982Y46836730D01*
X59574664Y45725336D01*
X58463270Y44062018D01*
X58073001Y42100000D01*
X58463270Y40137982D01*
X59574664Y38474664D01*
X59624664Y38424663D01*
X60301749Y37972250D01*
X61287982Y37313270D01*
X63250000Y36923000D01*
X68037249Y36923000D01*
X67973000Y36600000D01*
X68401330Y34446640D01*
X69621110Y32621110D01*
X71446640Y31401330D01*
X71938783Y31303437D01*
X72994780Y30247440D01*
X71150000Y30247440D01*
X70914683Y30203162D01*
X70698559Y30064090D01*
X70553569Y29851890D01*
X70502560Y29600000D01*
X70502560Y28027000D01*
X63200000Y28027000D01*
X61237982Y27636730D01*
X59574664Y26525336D01*
X58463270Y24862018D01*
X58073000Y22900000D01*
X58463270Y20937982D01*
X59574664Y19274664D01*
X61237982Y18163270D01*
X63200000Y17773000D01*
X67981907Y17773000D01*
X67917658Y17450000D01*
X68250837Y15774995D01*
X69115394Y14481095D01*
X67896640Y14238670D01*
X66071110Y13018890D01*
X62974060Y9921840D01*
X60846640Y9498670D01*
X59021110Y8278890D01*
X57801330Y6453360D01*
X57373000Y4300000D01*
X57801330Y2146640D01*
X58705072Y794094D01*
X910000Y760414D01*
X910000Y47888195D01*
X8411805Y47888195D01*
X8644358Y47326742D01*
X9135224Y46805508D01*
X9788193Y46511797D01*
X10073000Y46628142D01*
X10073000Y48173000D01*
X10327000Y48173000D01*
X10327000Y46628142D01*
X10611807Y46511797D01*
X11264776Y46805508D01*
X11755642Y47326742D01*
X11988195Y47888195D01*
X11871432Y48173000D01*
X10327000Y48173000D01*
X10073000Y48173000D01*
X8528568Y48173000D01*
X8411805Y47888195D01*
X910000Y47888195D01*
X910000Y48711805D01*
X8411805Y48711805D01*
X8528568Y48427000D01*
X10073000Y48427000D01*
X10073000Y49971858D01*
X10327000Y49971858D01*
X10327000Y48427000D01*
X11871432Y48427000D01*
X11988195Y48711805D01*
X11755642Y49273258D01*
X11264776Y49794492D01*
X10611807Y50088203D01*
X10327000Y49971858D01*
X10073000Y49971858D01*
X9788193Y50088203D01*
X9135224Y49794492D01*
X8644358Y49273258D01*
X8411805Y48711805D01*
X910000Y48711805D01*
X910000Y69296979D01*
X7459560Y69296979D01*
X7845437Y68363085D01*
X8559327Y67647948D01*
X9492546Y67260441D01*
X10503021Y67259560D01*
X11436915Y67645437D01*
X12152052Y68359327D01*
X12539559Y69292546D01*
X12540440Y70303021D01*
X12154563Y71236915D01*
X11440673Y71952052D01*
X10507454Y72339559D01*
X9496979Y72340440D01*
X8563085Y71954563D01*
X7847948Y71240673D01*
X7460441Y70307454D01*
X7459560Y69296979D01*
X910000Y69296979D01*
X910000Y76633735D01*
X11144758Y76633735D01*
X11356687Y76120828D01*
X11748764Y75728066D01*
X12261300Y75515242D01*
X12816265Y75514758D01*
X13329172Y75726687D01*
X13721934Y76118764D01*
X13934758Y76631300D01*
X13935242Y77186265D01*
X13723313Y77699172D01*
X13331236Y78091934D01*
X12818700Y78304758D01*
X12263735Y78305242D01*
X11750828Y78093313D01*
X11358066Y77701236D01*
X11145242Y77188700D01*
X11144758Y76633735D01*
X910000Y76633735D01*
X910000Y78033735D01*
X8604758Y78033735D01*
X8816687Y77520828D01*
X9208764Y77128066D01*
X9721300Y76915242D01*
X10276265Y76914758D01*
X10789172Y77126687D01*
X11181934Y77518764D01*
X11394758Y78031300D01*
X11395242Y78586265D01*
X11183313Y79099172D01*
X10791236Y79491934D01*
X10278700Y79704758D01*
X10034424Y79704971D01*
X10347049Y79720659D01*
X10729941Y79879258D01*
X10799159Y80121236D01*
X10000000Y80920395D01*
X9200841Y80121236D01*
X9270059Y79879258D01*
X9758102Y79705212D01*
X9723735Y79705242D01*
X9210828Y79493313D01*
X8818066Y79101236D01*
X8605242Y78588700D01*
X8604758Y78033735D01*
X910000Y78033735D01*
X910000Y81307220D01*
X8592845Y81307220D01*
X8620659Y80752951D01*
X8779258Y80370059D01*
X9021236Y80300841D01*
X9820395Y81100000D01*
X10179605Y81100000D01*
X10978764Y80300841D01*
X11220742Y80370059D01*
X11407155Y80892780D01*
X11379341Y81447049D01*
X11220742Y81829941D01*
X10978764Y81899159D01*
X10179605Y81100000D01*
X9820395Y81100000D01*
X9021236Y81899159D01*
X8779258Y81829941D01*
X8592845Y81307220D01*
X910000Y81307220D01*
X910000Y82791236D01*
X9200841Y82791236D01*
X9270059Y82549258D01*
X9566512Y82443537D01*
X9270059Y82320742D01*
X9200841Y82078764D01*
X10000000Y81279605D01*
X10799159Y82078764D01*
X10794877Y82093735D01*
X11144758Y82093735D01*
X11356687Y81580828D01*
X11748764Y81188066D01*
X12105591Y81039898D01*
X11750828Y80893313D01*
X11358066Y80501236D01*
X11145242Y79988700D01*
X11144758Y79433735D01*
X11356687Y78920828D01*
X11748764Y78528066D01*
X12261300Y78315242D01*
X12816265Y78314758D01*
X13329172Y78526687D01*
X13721934Y78918764D01*
X13934758Y79431300D01*
X13935242Y79986265D01*
X13723313Y80499172D01*
X13331236Y80891934D01*
X12974409Y81040102D01*
X13329172Y81186687D01*
X13721934Y81578764D01*
X13934758Y82091300D01*
X13935242Y82646265D01*
X13723313Y83159172D01*
X13331236Y83551934D01*
X12818700Y83764758D01*
X12263735Y83765242D01*
X11750828Y83553313D01*
X11358066Y83161236D01*
X11145242Y82648700D01*
X11144758Y82093735D01*
X10794877Y82093735D01*
X10729941Y82320742D01*
X10433488Y82426463D01*
X10729941Y82549258D01*
X10799159Y82791236D01*
X10000000Y83590395D01*
X9200841Y82791236D01*
X910000Y82791236D01*
X910000Y83977220D01*
X8592845Y83977220D01*
X8620659Y83422951D01*
X8779258Y83040059D01*
X9021236Y82970841D01*
X9820395Y83770000D01*
X10179605Y83770000D01*
X10978764Y82970841D01*
X11220742Y83040059D01*
X11407155Y83562780D01*
X11379341Y84117049D01*
X11220742Y84499941D01*
X10978764Y84569159D01*
X10179605Y83770000D01*
X9820395Y83770000D01*
X9021236Y84569159D01*
X8779258Y84499941D01*
X8592845Y83977220D01*
X910000Y83977220D01*
X910000Y86283735D01*
X8604758Y86283735D01*
X8816687Y85770828D01*
X9208764Y85378066D01*
X9721300Y85165242D01*
X9965576Y85165029D01*
X9652951Y85149341D01*
X9270059Y84990742D01*
X9200841Y84748764D01*
X10000000Y83949605D01*
X10799159Y84748764D01*
X10729941Y84990742D01*
X10241898Y85164788D01*
X10276265Y85164758D01*
X10789172Y85376687D01*
X11181934Y85768764D01*
X11394758Y86281300D01*
X11395118Y86694438D01*
X11528110Y86603569D01*
X11780000Y86552560D01*
X12233042Y86552560D01*
X11750828Y86353313D01*
X11358066Y85961236D01*
X11145242Y85448700D01*
X11144758Y84893735D01*
X11356687Y84380828D01*
X11748764Y83988066D01*
X12261300Y83775242D01*
X12816265Y83774758D01*
X13329172Y83986687D01*
X13721934Y84378764D01*
X13934758Y84891300D01*
X13935242Y85446265D01*
X13723313Y85959172D01*
X13331236Y86351934D01*
X12848076Y86552560D01*
X13300000Y86552560D01*
X13535317Y86596838D01*
X13751441Y86735910D01*
X13759993Y86748427D01*
X14915000Y85593421D01*
X14915000Y72403222D01*
X14914683Y72403162D01*
X14698559Y72264090D01*
X14553569Y72051890D01*
X14502560Y71800000D01*
X14502560Y70300000D01*
X14546838Y70064683D01*
X14685910Y69848559D01*
X14898110Y69703569D01*
X14911197Y69700919D01*
X14698559Y69564090D01*
X14553569Y69351890D01*
X14502560Y69100000D01*
X14502560Y67600000D01*
X14546838Y67364683D01*
X14685910Y67148559D01*
X14898110Y67003569D01*
X14935695Y66995958D01*
X14962268Y66862367D01*
X14982367Y66761325D01*
X15135620Y66531964D01*
X15174210Y66474210D01*
X17044218Y64604203D01*
X17044220Y64604200D01*
X17236064Y64476015D01*
X17331336Y64412356D01*
X17670010Y64344989D01*
X17670015Y64344990D01*
X21369985Y64344990D01*
X21369990Y64344989D01*
X21689571Y64408559D01*
X21708665Y64412357D01*
X21995780Y64604200D01*
X22745787Y65354208D01*
X22745790Y65354210D01*
X22937633Y65641325D01*
X23005000Y65980000D01*
X23005000Y66142690D01*
X23134698Y66229352D01*
X23390000Y66611438D01*
X23645302Y66229352D01*
X24110849Y65918283D01*
X24660000Y65809050D01*
X25209151Y65918283D01*
X25674698Y66229352D01*
X25930000Y66611438D01*
X26185302Y66229352D01*
X26650849Y65918283D01*
X27143000Y65820388D01*
X27143000Y64091270D01*
X26894664Y63925337D01*
X26774664Y63805336D01*
X25663270Y62142018D01*
X25273000Y60180000D01*
X25273000Y6100000D01*
X25663270Y4137982D01*
X26774664Y2474664D01*
X28437982Y1363270D01*
X30400000Y973000D01*
X32362018Y1363270D01*
X34025336Y2474664D01*
X35136730Y4137982D01*
X35497259Y5950480D01*
X35976215Y5470688D01*
X36639388Y5195314D01*
X37357462Y5194687D01*
X38021115Y5468903D01*
X38529312Y5976215D01*
X38663759Y6300000D01*
X44212560Y6300000D01*
X44212560Y3900000D01*
X44256838Y3664683D01*
X44395910Y3448559D01*
X44608110Y3303569D01*
X44860000Y3252560D01*
X46460000Y3252560D01*
X46695317Y3296838D01*
X46911441Y3435910D01*
X47056431Y3648110D01*
X47086597Y3797074D01*
X47185302Y3649352D01*
X47650849Y3338283D01*
X48200000Y3229050D01*
X48749151Y3338283D01*
X49214698Y3649352D01*
X49470000Y4031438D01*
X49725302Y3649352D01*
X50190849Y3338283D01*
X50740000Y3229050D01*
X51289151Y3338283D01*
X51754698Y3649352D01*
X52010000Y4031438D01*
X52265302Y3649352D01*
X52730849Y3338283D01*
X53280000Y3229050D01*
X53829151Y3338283D01*
X54294698Y3649352D01*
X54605767Y4114899D01*
X54715000Y4664050D01*
X54715000Y5535950D01*
X54605767Y6085101D01*
X54294698Y6550648D01*
X53829151Y6861717D01*
X53280000Y6970950D01*
X52730849Y6861717D01*
X52265302Y6550648D01*
X52010000Y6168562D01*
X51754698Y6550648D01*
X51289151Y6861717D01*
X50740000Y6970950D01*
X50190849Y6861717D01*
X49725302Y6550648D01*
X49470000Y6168562D01*
X49214698Y6550648D01*
X48749151Y6861717D01*
X48200000Y6970950D01*
X47650849Y6861717D01*
X47185302Y6550648D01*
X47087749Y6404650D01*
X47063162Y6535317D01*
X46924090Y6751441D01*
X46711890Y6896431D01*
X46460000Y6947440D01*
X44860000Y6947440D01*
X44624683Y6903162D01*
X44408559Y6764090D01*
X44263569Y6551890D01*
X44212560Y6300000D01*
X38663759Y6300000D01*
X38804686Y6639388D01*
X38805313Y7357462D01*
X38531097Y8021115D01*
X38023785Y8529312D01*
X37360612Y8804686D01*
X36642538Y8805313D01*
X35978885Y8531097D01*
X35527000Y8079999D01*
X35527000Y9142538D01*
X38994687Y9142538D01*
X39268903Y8478885D01*
X39776215Y7970688D01*
X40439388Y7695314D01*
X41157462Y7694687D01*
X41821115Y7968903D01*
X42329312Y8476215D01*
X42604686Y9139388D01*
X42605313Y9857462D01*
X42331097Y10521115D01*
X41823785Y11029312D01*
X41160612Y11304686D01*
X40442538Y11305313D01*
X39778885Y11031097D01*
X39270688Y10523785D01*
X38995314Y9860612D01*
X38994687Y9142538D01*
X35527000Y9142538D01*
X35527000Y10920687D01*
X35976215Y10470688D01*
X36639388Y10195314D01*
X37357462Y10194687D01*
X38021115Y10468903D01*
X38529312Y10976215D01*
X38804686Y11639388D01*
X38805313Y12357462D01*
X38531097Y13021115D01*
X38023785Y13529312D01*
X37360612Y13804686D01*
X36642538Y13805313D01*
X35978885Y13531097D01*
X35527000Y13079999D01*
X35527000Y17826110D01*
X37222018Y18163270D01*
X38885336Y19274664D01*
X39996730Y20937982D01*
X40387000Y22900000D01*
X39996730Y24862018D01*
X38885336Y26525336D01*
X37222018Y27636730D01*
X35527000Y27973890D01*
X35527000Y37026110D01*
X37222018Y37363270D01*
X38885336Y38474664D01*
X39996730Y40137982D01*
X40387000Y42100000D01*
X39996730Y44062018D01*
X38885336Y45725336D01*
X37222018Y46836730D01*
X35527000Y47173890D01*
X35527000Y59696720D01*
X35647000Y60300000D01*
X35547326Y60801094D01*
X41215000Y55133421D01*
X41215000Y23600005D01*
X41214999Y23600000D01*
X41247715Y23435530D01*
X41282367Y23261325D01*
X41474210Y22974210D01*
X47315000Y17133421D01*
X47315000Y14257310D01*
X47185302Y14170648D01*
X46930000Y13788562D01*
X46674698Y14170648D01*
X46209151Y14481717D01*
X45660000Y14590950D01*
X45110849Y14481717D01*
X44645302Y14170648D01*
X44334233Y13705101D01*
X44225000Y13155950D01*
X44225000Y12284050D01*
X44334233Y11734899D01*
X44645302Y11269352D01*
X45110849Y10958283D01*
X45660000Y10849050D01*
X46209151Y10958283D01*
X46674698Y11269352D01*
X46930000Y11651438D01*
X47185302Y11269352D01*
X47650849Y10958283D01*
X48200000Y10849050D01*
X48749151Y10958283D01*
X49214698Y11269352D01*
X49470000Y11651438D01*
X49725302Y11269352D01*
X50190849Y10958283D01*
X50740000Y10849050D01*
X51289151Y10958283D01*
X51754698Y11269352D01*
X52010000Y11651438D01*
X52265302Y11269352D01*
X52730849Y10958283D01*
X53280000Y10849050D01*
X53829151Y10958283D01*
X54294698Y11269352D01*
X54605767Y11734899D01*
X54715000Y12284050D01*
X54715000Y13155950D01*
X54605767Y13705101D01*
X54294698Y14170648D01*
X53829151Y14481717D01*
X53280000Y14590950D01*
X52730849Y14481717D01*
X52265302Y14170648D01*
X52010000Y13788562D01*
X51754698Y14170648D01*
X51289151Y14481717D01*
X50740000Y14590950D01*
X50190849Y14481717D01*
X49725302Y14170648D01*
X49470000Y13788562D01*
X49214698Y14170648D01*
X49085000Y14257310D01*
X49085000Y17499995D01*
X49085001Y17500000D01*
X49017633Y17838674D01*
X49017633Y17838675D01*
X48825790Y18125790D01*
X48825787Y18125792D01*
X42985000Y23966580D01*
X42985000Y55499995D01*
X42985001Y55500000D01*
X42917633Y55838674D01*
X42917633Y55838675D01*
X42725790Y56125790D01*
X42725787Y56125792D01*
X36285000Y62566580D01*
X36285000Y63026477D01*
X36573461Y63314436D01*
X36784759Y63823298D01*
X36785240Y64374285D01*
X36574831Y64883515D01*
X36185564Y65273461D01*
X35676702Y65484759D01*
X35125715Y65485240D01*
X34616485Y65274831D01*
X34226539Y64885564D01*
X34015241Y64376702D01*
X34014923Y64012477D01*
X33897000Y64091270D01*
X33897000Y68542538D01*
X35594687Y68542538D01*
X35868903Y67878885D01*
X36376215Y67370688D01*
X37039388Y67095314D01*
X37757462Y67094687D01*
X38421115Y67368903D01*
X38929312Y67876215D01*
X39204686Y68539388D01*
X39205313Y69257462D01*
X38931097Y69921115D01*
X38423785Y70429312D01*
X37760612Y70704686D01*
X37042538Y70705313D01*
X36378885Y70431097D01*
X35870688Y69923785D01*
X35595314Y69260612D01*
X35594687Y68542538D01*
X33897000Y68542538D01*
X33897000Y69594740D01*
X33957462Y69594687D01*
X34621115Y69868903D01*
X35129312Y70376215D01*
X35404686Y71039388D01*
X35405313Y71757462D01*
X35131097Y72421115D01*
X34623785Y72929312D01*
X33960612Y73204686D01*
X33897000Y73204742D01*
X33897000Y73542538D01*
X35594687Y73542538D01*
X35868903Y72878885D01*
X36376215Y72370688D01*
X37039388Y72095314D01*
X37757462Y72094687D01*
X38421115Y72368903D01*
X38929312Y72876215D01*
X39204686Y73539388D01*
X39205313Y74257462D01*
X38931097Y74921115D01*
X38423785Y75429312D01*
X37760612Y75704686D01*
X37042538Y75705313D01*
X36378885Y75431097D01*
X35870688Y74923785D01*
X35595314Y74260612D01*
X35594687Y73542538D01*
X33897000Y73542538D01*
X33897000Y78379995D01*
X33897001Y78380000D01*
X33639941Y79672322D01*
X33501671Y79879258D01*
X32907900Y80767900D01*
X32907897Y80767902D01*
X31387900Y82287900D01*
X30292322Y83019941D01*
X29000000Y83277001D01*
X28999995Y83277000D01*
X27847861Y83277000D01*
X27540412Y83487071D01*
X26300000Y83738261D01*
X24800000Y83738261D01*
X23641203Y83520219D01*
X22576919Y82835370D01*
X21862929Y81790412D01*
X21714284Y81056383D01*
X21648559Y81014090D01*
X21503569Y80801890D01*
X21452560Y80550000D01*
X21452560Y79250000D01*
X21496838Y79014683D01*
X21635910Y78798559D01*
X21705649Y78750908D01*
X21829781Y78091203D01*
X21965000Y77881067D01*
X21965000Y77140119D01*
X21570849Y77061717D01*
X21105302Y76750648D01*
X20850000Y76368562D01*
X20594698Y76750648D01*
X20129151Y77061717D01*
X19580000Y77170950D01*
X19030849Y77061717D01*
X18565302Y76750648D01*
X18254233Y76285101D01*
X18145000Y75735950D01*
X18145000Y74864050D01*
X18164490Y74766069D01*
X16685000Y73286580D01*
X16685000Y85959995D01*
X16685001Y85960000D01*
X16617633Y86298675D01*
X16583339Y86350000D01*
X16425790Y86585790D01*
X16425787Y86585792D01*
X15938681Y87072898D01*
X26010229Y87072898D01*
X26220638Y86563668D01*
X26609905Y86173722D01*
X27118767Y85962424D01*
X27669754Y85961943D01*
X28178984Y86172352D01*
X28568930Y86561619D01*
X28780228Y87070481D01*
X28780586Y87480720D01*
X28984705Y87684839D01*
X31603617Y87684839D01*
X31463143Y87346540D01*
X31462662Y86795553D01*
X31673071Y86286323D01*
X32062338Y85896377D01*
X32571200Y85685079D01*
X32981439Y85684721D01*
X41898022Y76768139D01*
X41898022Y67116983D01*
X41898021Y67116978D01*
X41954212Y66834494D01*
X41965389Y66778303D01*
X42078574Y66608909D01*
X42157232Y66491188D01*
X49072069Y59576352D01*
X49070805Y59570000D01*
X49077767Y59535000D01*
X49035805Y59535000D01*
X48563191Y59440991D01*
X48162528Y59173277D01*
X47894814Y58772614D01*
X47800805Y58300000D01*
X47894814Y57827386D01*
X48162528Y57426723D01*
X48563191Y57159009D01*
X48765000Y57118867D01*
X48765000Y52772038D01*
X48664683Y52753162D01*
X48448559Y52614090D01*
X48303569Y52401890D01*
X48252560Y52150000D01*
X48252560Y50850000D01*
X48296838Y50614683D01*
X48435910Y50398559D01*
X48648110Y50253569D01*
X48900000Y50202560D01*
X50400000Y50202560D01*
X50635317Y50246838D01*
X50851441Y50385910D01*
X50996431Y50598110D01*
X51003191Y50631490D01*
X51061673Y50490301D01*
X51240302Y50311673D01*
X51473691Y50215000D01*
X52064250Y50215000D01*
X52223000Y50373750D01*
X52223000Y51373000D01*
X52477000Y51373000D01*
X52477000Y50373750D01*
X52635750Y50215000D01*
X53226309Y50215000D01*
X53459698Y50311673D01*
X53638327Y50490301D01*
X53735000Y50723690D01*
X53735000Y51214250D01*
X53576250Y51373000D01*
X52477000Y51373000D01*
X52223000Y51373000D01*
X52203000Y51373000D01*
X52203000Y51627000D01*
X52223000Y51627000D01*
X52223000Y52626250D01*
X52477000Y52626250D01*
X52477000Y51627000D01*
X53576250Y51627000D01*
X53735000Y51785750D01*
X53735000Y52276310D01*
X53638327Y52509699D01*
X53459698Y52688327D01*
X53226309Y52785000D01*
X52635750Y52785000D01*
X52477000Y52626250D01*
X52223000Y52626250D01*
X52175415Y52673835D01*
X52616579Y53115000D01*
X54595838Y53115000D01*
X54191091Y52710959D01*
X53865372Y51926541D01*
X53864630Y51077185D01*
X54188980Y50292200D01*
X54789041Y49691091D01*
X55573459Y49365372D01*
X56422815Y49364630D01*
X57207800Y49688980D01*
X57808909Y50289041D01*
X57849698Y50387271D01*
X57888980Y50292200D01*
X58489041Y49691091D01*
X59273459Y49365372D01*
X60122815Y49364630D01*
X60907800Y49688980D01*
X61508909Y50289041D01*
X61644259Y50615000D01*
X67038569Y50615000D01*
X67100000Y50602560D01*
X68600000Y50602560D01*
X68835317Y50646838D01*
X69051441Y50785910D01*
X69196431Y50998110D01*
X69203191Y51031490D01*
X69261673Y50890301D01*
X69440302Y50711673D01*
X69673691Y50615000D01*
X70264250Y50615000D01*
X70423000Y50773750D01*
X70423000Y51773000D01*
X70677000Y51773000D01*
X70677000Y50773750D01*
X70835750Y50615000D01*
X71426309Y50615000D01*
X71659698Y50711673D01*
X71838327Y50890301D01*
X71935000Y51123690D01*
X71935000Y51614250D01*
X71776250Y51773000D01*
X70677000Y51773000D01*
X70423000Y51773000D01*
X70403000Y51773000D01*
X70403000Y52027000D01*
X70423000Y52027000D01*
X70423000Y53026250D01*
X70677000Y53026250D01*
X70677000Y52027000D01*
X71776250Y52027000D01*
X71935000Y52185750D01*
X71935000Y52676310D01*
X71838327Y52909699D01*
X71659698Y53088327D01*
X71426309Y53185000D01*
X70835750Y53185000D01*
X70677000Y53026250D01*
X70423000Y53026250D01*
X70264250Y53185000D01*
X69673691Y53185000D01*
X69440302Y53088327D01*
X69261673Y52909699D01*
X69205346Y52773713D01*
X69203162Y52785317D01*
X69064090Y53001441D01*
X68851890Y53146431D01*
X68735000Y53170102D01*
X68735000Y57092413D01*
X68825186Y57227386D01*
X68828041Y57241739D01*
X68830896Y57227386D01*
X69098610Y56826723D01*
X69499273Y56559009D01*
X69971887Y56465000D01*
X70428113Y56465000D01*
X70900727Y56559009D01*
X71301390Y56826723D01*
X71569104Y57227386D01*
X71663113Y57700000D01*
X71569104Y58172614D01*
X71301390Y58573277D01*
X71295542Y58577185D01*
X80864630Y58577185D01*
X81188980Y57792200D01*
X81789041Y57191091D01*
X82573459Y56865372D01*
X83422815Y56864630D01*
X84207800Y57188980D01*
X84808909Y57789041D01*
X85134628Y58573459D01*
X85135370Y59422815D01*
X84811020Y60207800D01*
X84210959Y60808909D01*
X83426541Y61134628D01*
X82577185Y61135370D01*
X81792200Y60811020D01*
X81191091Y60210959D01*
X80865372Y59426541D01*
X80864630Y58577185D01*
X71295542Y58577185D01*
X70900727Y58840991D01*
X70428113Y58935000D01*
X70182233Y58935000D01*
X70189195Y58970000D01*
X70095186Y59442614D01*
X69827472Y59843277D01*
X69426809Y60110991D01*
X68954195Y60205000D01*
X68946579Y60205000D01*
X68355791Y60795789D01*
X68332996Y60811020D01*
X68068676Y60987632D01*
X68012485Y60998809D01*
X67730001Y61055000D01*
X67729996Y61054999D01*
X50930004Y61054999D01*
X50929999Y61055000D01*
X50647515Y60998809D01*
X50591324Y60987632D01*
X50335130Y60816449D01*
X43668022Y67483558D01*
X43668022Y77134116D01*
X45215010Y75587128D01*
X45215010Y70230400D01*
X44926549Y69942441D01*
X44715251Y69433579D01*
X44714770Y68882592D01*
X44925179Y68373362D01*
X45314446Y67983416D01*
X45823308Y67772118D01*
X46233547Y67771760D01*
X46925670Y67079638D01*
X46925672Y67079635D01*
X47212787Y66887792D01*
X47551462Y66820425D01*
X60306934Y66820425D01*
X60363021Y66764240D01*
X59992200Y66611020D01*
X59391091Y66010959D01*
X59065372Y65226541D01*
X59064630Y64377185D01*
X59388980Y63592200D01*
X59989041Y62991091D01*
X60773459Y62665372D01*
X61622815Y62664630D01*
X62407800Y62988980D01*
X62433114Y63014250D01*
X72165000Y63014250D01*
X72165000Y62548690D01*
X72261673Y62315301D01*
X72440302Y62136673D01*
X72673691Y62040000D01*
X73264250Y62040000D01*
X73423000Y62198750D01*
X73423000Y63173000D01*
X72323750Y63173000D01*
X72165000Y63014250D01*
X62433114Y63014250D01*
X63008909Y63589041D01*
X63200859Y64051310D01*
X72165000Y64051310D01*
X72165000Y63585750D01*
X72323750Y63427000D01*
X73423000Y63427000D01*
X73423000Y64401250D01*
X73264250Y64560000D01*
X72673691Y64560000D01*
X72440302Y64463327D01*
X72261673Y64284699D01*
X72165000Y64051310D01*
X63200859Y64051310D01*
X63334628Y64373459D01*
X63335370Y65222815D01*
X63011020Y66007800D01*
X62410959Y66608909D01*
X62291934Y66658333D01*
X62553918Y66919861D01*
X62765216Y67428723D01*
X62765697Y67979710D01*
X62555288Y68488940D01*
X62166021Y68878886D01*
X61657159Y69090184D01*
X61106172Y69090665D01*
X60596942Y68880256D01*
X60306605Y68590425D01*
X47918041Y68590425D01*
X47484894Y69023573D01*
X47485250Y69431162D01*
X47274841Y69940392D01*
X46985010Y70230729D01*
X46985010Y71577185D01*
X52864630Y71577185D01*
X53188980Y70792200D01*
X53789041Y70191091D01*
X54573459Y69865372D01*
X55422815Y69864630D01*
X56207800Y70188980D01*
X56808909Y70789041D01*
X57134628Y71573459D01*
X57135370Y72422815D01*
X56811020Y73207800D01*
X56210959Y73808909D01*
X55426541Y74134628D01*
X54577185Y74135370D01*
X53792200Y73811020D01*
X53191091Y73210959D01*
X52865372Y72426541D01*
X52864630Y71577185D01*
X46985010Y71577185D01*
X46985010Y75953702D01*
X46985011Y75953707D01*
X46926130Y76249717D01*
X46917643Y76292382D01*
X46725800Y76579497D01*
X46725797Y76579499D01*
X35579584Y87725713D01*
X39996069Y87725713D01*
X40206478Y87216483D01*
X40595745Y86826537D01*
X41104607Y86615239D01*
X41655594Y86614758D01*
X42164824Y86825167D01*
X42455161Y87114998D01*
X43983422Y87114998D01*
X64024208Y67074213D01*
X64024210Y67074210D01*
X64311325Y66882367D01*
X64523217Y66840219D01*
X64546838Y66714683D01*
X64685910Y66498559D01*
X64898110Y66353569D01*
X65150000Y66302560D01*
X66450000Y66302560D01*
X66685317Y66346838D01*
X66901441Y66485910D01*
X66989644Y66615000D01*
X70448852Y66615000D01*
X70510910Y66518559D01*
X70723110Y66373569D01*
X70975000Y66322560D01*
X71625000Y66322560D01*
X71860317Y66366838D01*
X72076441Y66505910D01*
X72221431Y66718110D01*
X72249176Y66855120D01*
X72271838Y66734683D01*
X72410910Y66518559D01*
X72623110Y66373569D01*
X72875000Y66322560D01*
X73525000Y66322560D01*
X73760317Y66366838D01*
X73849314Y66424106D01*
X75165000Y65108421D01*
X75165000Y64547038D01*
X75064683Y64528162D01*
X74848559Y64389090D01*
X74802031Y64320994D01*
X74659698Y64463327D01*
X74426309Y64560000D01*
X73835750Y64560000D01*
X73677000Y64401250D01*
X73677000Y63427000D01*
X73697000Y63427000D01*
X73697000Y63173000D01*
X73677000Y63173000D01*
X73677000Y62198750D01*
X73835750Y62040000D01*
X74426309Y62040000D01*
X74659698Y62136673D01*
X74800936Y62277910D01*
X74835910Y62223559D01*
X75048110Y62078569D01*
X75300000Y62027560D01*
X76800000Y62027560D01*
X77035317Y62071838D01*
X77251441Y62210910D01*
X77390890Y62415000D01*
X81939995Y62415000D01*
X81940000Y62414999D01*
X82222484Y62471190D01*
X82278675Y62482367D01*
X82565790Y62674210D01*
X83625787Y63734208D01*
X83625790Y63734210D01*
X83817633Y64021325D01*
X83855672Y64212560D01*
X83900000Y64212560D01*
X84135317Y64256838D01*
X84351441Y64395910D01*
X84496431Y64608110D01*
X84547440Y64860000D01*
X84547440Y66660000D01*
X84503162Y66895317D01*
X84364090Y67111441D01*
X84151890Y67256431D01*
X84100854Y67266766D01*
X84237966Y67392424D01*
X84491046Y67935258D01*
X84370997Y68173000D01*
X83127000Y68173000D01*
X83127000Y68153000D01*
X82873000Y68153000D01*
X82873000Y68173000D01*
X81629003Y68173000D01*
X81508954Y67935258D01*
X81762034Y67392424D01*
X81896538Y67269156D01*
X81864683Y67263162D01*
X81648559Y67124090D01*
X81503569Y66911890D01*
X81452560Y66660000D01*
X81452560Y64860000D01*
X81496838Y64624683D01*
X81635910Y64408559D01*
X81731598Y64343178D01*
X81573420Y64185000D01*
X77387279Y64185000D01*
X77264090Y64376441D01*
X77051890Y64521431D01*
X76935000Y64545102D01*
X76935000Y65475000D01*
X76867633Y65813675D01*
X76675790Y66100790D01*
X76675787Y66100792D01*
X74650790Y68125790D01*
X74580135Y68173000D01*
X74363675Y68317633D01*
X74295394Y68331215D01*
X74054986Y68379036D01*
X73989090Y68481441D01*
X73813768Y68601233D01*
X73976441Y68705910D01*
X74121431Y68918110D01*
X74172440Y69170000D01*
X74172440Y69625860D01*
X74501579Y69955000D01*
X81760589Y69955000D01*
X81914591Y69724519D01*
X82152582Y69565499D01*
X81762034Y69207576D01*
X81508954Y68664742D01*
X81629003Y68427000D01*
X82873000Y68427000D01*
X82873000Y68447000D01*
X83127000Y68447000D01*
X83127000Y68427000D01*
X84370997Y68427000D01*
X84491046Y68664742D01*
X84237966Y69207576D01*
X83847418Y69565499D01*
X84085409Y69724519D01*
X84418155Y70222509D01*
X84535000Y70809928D01*
X84535000Y70870072D01*
X84418155Y71457491D01*
X84085409Y71955481D01*
X83587419Y72288227D01*
X83000000Y72405072D01*
X82412581Y72288227D01*
X81914591Y71955481D01*
X81760589Y71725000D01*
X74135005Y71725000D01*
X74135000Y71725001D01*
X73852516Y71668810D01*
X73796325Y71657633D01*
X73509210Y71465790D01*
X73509208Y71465787D01*
X72920860Y70877440D01*
X72875000Y70877440D01*
X72734914Y70851081D01*
X72701310Y70865000D01*
X72535750Y70865000D01*
X72377000Y70706250D01*
X72377000Y70625949D01*
X72278569Y70481890D01*
X72250824Y70344880D01*
X72228162Y70465317D01*
X72185000Y70532393D01*
X72185000Y73402560D01*
X72350000Y73402560D01*
X72585317Y73446838D01*
X72801441Y73585910D01*
X72946431Y73798110D01*
X72953191Y73831490D01*
X73011673Y73690301D01*
X73190302Y73511673D01*
X73423691Y73415000D01*
X74014250Y73415000D01*
X74173000Y73573750D01*
X74173000Y74573000D01*
X74427000Y74573000D01*
X74427000Y73573750D01*
X74585750Y73415000D01*
X75176309Y73415000D01*
X75409698Y73511673D01*
X75588327Y73690301D01*
X75685000Y73923690D01*
X75685000Y74414250D01*
X75526250Y74573000D01*
X74427000Y74573000D01*
X74173000Y74573000D01*
X74153000Y74573000D01*
X74153000Y74827000D01*
X74173000Y74827000D01*
X74173000Y75826250D01*
X74427000Y75826250D01*
X74427000Y74827000D01*
X75526250Y74827000D01*
X75685000Y74985750D01*
X75685000Y75476310D01*
X75588327Y75709699D01*
X75409698Y75888327D01*
X75176309Y75985000D01*
X74585750Y75985000D01*
X74427000Y75826250D01*
X74173000Y75826250D01*
X74014250Y75985000D01*
X73423691Y75985000D01*
X73190302Y75888327D01*
X73011673Y75709699D01*
X72955346Y75573713D01*
X72953162Y75585317D01*
X72814090Y75801441D01*
X72601890Y75946431D01*
X72350000Y75997440D01*
X70850000Y75997440D01*
X70614683Y75953162D01*
X70398559Y75814090D01*
X70253569Y75601890D01*
X70250149Y75585000D01*
X69853222Y75585000D01*
X69853162Y75585317D01*
X69714090Y75801441D01*
X69501890Y75946431D01*
X69250000Y75997440D01*
X67750000Y75997440D01*
X67514683Y75953162D01*
X67298559Y75814090D01*
X67153569Y75601890D01*
X67150919Y75588803D01*
X67014090Y75801441D01*
X66801890Y75946431D01*
X66550000Y75997440D01*
X65050000Y75997440D01*
X64814683Y75953162D01*
X64598559Y75814090D01*
X64453569Y75601890D01*
X64402560Y75350000D01*
X64402560Y74050000D01*
X64446838Y73814683D01*
X64585910Y73598559D01*
X64798110Y73453569D01*
X64915000Y73429898D01*
X64915000Y71753222D01*
X64914683Y71753162D01*
X64698559Y71614090D01*
X64553569Y71401890D01*
X64502560Y71150000D01*
X64502560Y69650000D01*
X64546838Y69414683D01*
X64685910Y69198559D01*
X64898110Y69053569D01*
X64911197Y69050919D01*
X64698559Y68914090D01*
X64694065Y68907514D01*
X55537330Y78064250D01*
X70615000Y78064250D01*
X70615000Y77473691D01*
X70711673Y77240302D01*
X70890301Y77061673D01*
X71123690Y76965000D01*
X71614250Y76965000D01*
X71773000Y77123750D01*
X71773000Y78223000D01*
X72027000Y78223000D01*
X72027000Y77123750D01*
X72185750Y76965000D01*
X72676310Y76965000D01*
X72909699Y77061673D01*
X73088327Y77240302D01*
X73185000Y77473691D01*
X73185000Y78064250D01*
X74415000Y78064250D01*
X74415000Y77473691D01*
X74511673Y77240302D01*
X74690301Y77061673D01*
X74923690Y76965000D01*
X75414250Y76965000D01*
X75573000Y77123750D01*
X75573000Y78223000D01*
X75827000Y78223000D01*
X75827000Y77123750D01*
X75985750Y76965000D01*
X76476310Y76965000D01*
X76709699Y77061673D01*
X76888327Y77240302D01*
X76985000Y77473691D01*
X76985000Y77964250D01*
X78115000Y77964250D01*
X78115000Y77373691D01*
X78211673Y77140302D01*
X78390301Y76961673D01*
X78623690Y76865000D01*
X79114250Y76865000D01*
X79273000Y77023750D01*
X79273000Y78123000D01*
X79527000Y78123000D01*
X79527000Y77023750D01*
X79685750Y76865000D01*
X80176310Y76865000D01*
X80409699Y76961673D01*
X80588327Y77140302D01*
X80685000Y77373691D01*
X80685000Y77964250D01*
X80526250Y78123000D01*
X79527000Y78123000D01*
X79273000Y78123000D01*
X78273750Y78123000D01*
X78115000Y77964250D01*
X76985000Y77964250D01*
X76985000Y78064250D01*
X76826250Y78223000D01*
X75827000Y78223000D01*
X75573000Y78223000D01*
X74573750Y78223000D01*
X74415000Y78064250D01*
X73185000Y78064250D01*
X73026250Y78223000D01*
X72027000Y78223000D01*
X71773000Y78223000D01*
X70773750Y78223000D01*
X70615000Y78064250D01*
X55537330Y78064250D01*
X44975792Y88625788D01*
X44875257Y88692963D01*
X44688677Y88817631D01*
X44632486Y88828808D01*
X44350002Y88884999D01*
X44349997Y88884998D01*
X42454832Y88884998D01*
X42166873Y89173459D01*
X41658011Y89384757D01*
X41107024Y89385238D01*
X40597794Y89174829D01*
X40207848Y88785562D01*
X39996550Y88276700D01*
X39996069Y87725713D01*
X35579584Y87725713D01*
X34109668Y89195629D01*
X33965056Y89292255D01*
X33822553Y89387472D01*
X33766362Y89398649D01*
X33483878Y89454840D01*
X33483873Y89454839D01*
X28618130Y89454839D01*
X28618125Y89454840D01*
X28335641Y89398649D01*
X28279450Y89387472D01*
X27992335Y89195629D01*
X27992333Y89195626D01*
X27528773Y88732067D01*
X27121184Y88732423D01*
X26611954Y88522014D01*
X26222008Y88132747D01*
X26010710Y87623885D01*
X26010229Y87072898D01*
X15938681Y87072898D01*
X15936579Y87075000D01*
X21753997Y87075000D01*
X21754002Y87074999D01*
X22036486Y87131190D01*
X22092677Y87142367D01*
X22379792Y87334210D01*
X25171179Y90125598D01*
X52404880Y90125598D01*
X52264406Y89787298D01*
X52263925Y89236311D01*
X52474334Y88727081D01*
X52784975Y88415898D01*
X52509563Y88140966D01*
X52298265Y87632104D01*
X52297784Y87081117D01*
X52508193Y86571887D01*
X52798024Y86281550D01*
X52798024Y81816981D01*
X52798023Y81816976D01*
X52854214Y81534492D01*
X52865391Y81478301D01*
X52943558Y81361315D01*
X53057234Y81191186D01*
X55274208Y78974213D01*
X55274210Y78974210D01*
X55466054Y78846025D01*
X55561326Y78782366D01*
X55900000Y78714999D01*
X55900005Y78715000D01*
X60199995Y78715000D01*
X60200000Y78714999D01*
X60482484Y78771190D01*
X60538675Y78782367D01*
X60825790Y78974210D01*
X65066695Y83215116D01*
X65474285Y83214760D01*
X65983515Y83425169D01*
X66373461Y83814436D01*
X66584759Y84323298D01*
X66585240Y84874285D01*
X66374831Y85383515D01*
X66293488Y85465000D01*
X70627962Y85465000D01*
X70646838Y85364683D01*
X70785910Y85148559D01*
X70998110Y85003569D01*
X71011197Y85000919D01*
X70798559Y84864090D01*
X70653569Y84651890D01*
X70602560Y84400000D01*
X70602560Y82900000D01*
X70646838Y82664683D01*
X70785910Y82448559D01*
X70931083Y82349367D01*
X70798559Y82264090D01*
X70653569Y82051890D01*
X70602560Y81800000D01*
X70602560Y80300000D01*
X70646838Y80064683D01*
X70785910Y79848559D01*
X70998110Y79703569D01*
X71031490Y79696809D01*
X70890301Y79638327D01*
X70711673Y79459698D01*
X70615000Y79226309D01*
X70615000Y78635750D01*
X70773750Y78477000D01*
X71773000Y78477000D01*
X71773000Y78497000D01*
X72027000Y78497000D01*
X72027000Y78477000D01*
X73026250Y78477000D01*
X73185000Y78635750D01*
X73185000Y79226309D01*
X73088327Y79459698D01*
X72909699Y79638327D01*
X72773713Y79694654D01*
X72785317Y79696838D01*
X73001441Y79835910D01*
X73146431Y80048110D01*
X73197440Y80300000D01*
X73197440Y81800000D01*
X73153162Y82035317D01*
X73014090Y82251441D01*
X72868917Y82350633D01*
X73001441Y82435910D01*
X73146431Y82648110D01*
X73197440Y82900000D01*
X73197440Y84400000D01*
X73153162Y84635317D01*
X73014090Y84851441D01*
X72801890Y84996431D01*
X72788803Y84999081D01*
X73001441Y85135910D01*
X73146431Y85348110D01*
X73197440Y85600000D01*
X73197440Y86450981D01*
X73924208Y85724213D01*
X73924210Y85724210D01*
X74211325Y85532367D01*
X74267516Y85521190D01*
X74423217Y85490218D01*
X74446838Y85364683D01*
X74585910Y85148559D01*
X74798110Y85003569D01*
X74811197Y85000919D01*
X74598559Y84864090D01*
X74453569Y84651890D01*
X74402560Y84400000D01*
X74402560Y82900000D01*
X74446838Y82664683D01*
X74585910Y82448559D01*
X74731083Y82349367D01*
X74598559Y82264090D01*
X74453569Y82051890D01*
X74402560Y81800000D01*
X74402560Y80300000D01*
X74446838Y80064683D01*
X74585910Y79848559D01*
X74798110Y79703569D01*
X74831490Y79696809D01*
X74690301Y79638327D01*
X74511673Y79459698D01*
X74415000Y79226309D01*
X74415000Y78635750D01*
X74573750Y78477000D01*
X75573000Y78477000D01*
X75573000Y78497000D01*
X75827000Y78497000D01*
X75827000Y78477000D01*
X76826250Y78477000D01*
X76985000Y78635750D01*
X76985000Y79226309D01*
X76888327Y79459698D01*
X76709699Y79638327D01*
X76573713Y79694654D01*
X76585317Y79696838D01*
X76801441Y79835910D01*
X76946431Y80048110D01*
X76997440Y80300000D01*
X76997440Y81800000D01*
X76953162Y82035317D01*
X76814090Y82251441D01*
X76668917Y82350633D01*
X76801441Y82435910D01*
X76946431Y82648110D01*
X76997440Y82900000D01*
X76997440Y84400000D01*
X76953162Y84635317D01*
X76814090Y84851441D01*
X76601890Y84996431D01*
X76588803Y84999081D01*
X76801441Y85135910D01*
X76946431Y85348110D01*
X76997440Y85600000D01*
X76997440Y87100000D01*
X78102560Y87100000D01*
X78102560Y85600000D01*
X78146838Y85364683D01*
X78285910Y85148559D01*
X78498110Y85003569D01*
X78511197Y85000919D01*
X78298559Y84864090D01*
X78153569Y84651890D01*
X78102560Y84400000D01*
X78102560Y82900000D01*
X78146838Y82664683D01*
X78285910Y82448559D01*
X78498110Y82303569D01*
X78511197Y82300919D01*
X78298559Y82164090D01*
X78153569Y81951890D01*
X78102560Y81700000D01*
X78102560Y80200000D01*
X78146838Y79964683D01*
X78285910Y79748559D01*
X78498110Y79603569D01*
X78531490Y79596809D01*
X78390301Y79538327D01*
X78211673Y79359698D01*
X78115000Y79126309D01*
X78115000Y78535750D01*
X78273750Y78377000D01*
X79273000Y78377000D01*
X79273000Y78397000D01*
X79527000Y78397000D01*
X79527000Y78377000D01*
X80526250Y78377000D01*
X80685000Y78535750D01*
X80685000Y79126309D01*
X80588327Y79359698D01*
X80409699Y79538327D01*
X80273713Y79594654D01*
X80285317Y79596838D01*
X80501441Y79735910D01*
X80646431Y79948110D01*
X80697440Y80200000D01*
X80697440Y81700000D01*
X80653162Y81935317D01*
X80514090Y82151441D01*
X80301890Y82296431D01*
X80288803Y82299081D01*
X80501441Y82435910D01*
X80646431Y82648110D01*
X80697440Y82900000D01*
X80697440Y83700981D01*
X81001811Y83396610D01*
X81001811Y77530893D01*
X80713350Y77242934D01*
X80502052Y76734072D01*
X80501571Y76183085D01*
X80711980Y75673855D01*
X81101247Y75283909D01*
X81610109Y75072611D01*
X82161096Y75072130D01*
X82670326Y75282539D01*
X83060272Y75671806D01*
X83271570Y76180668D01*
X83272051Y76731655D01*
X83061642Y77240885D01*
X82771811Y77531222D01*
X82771811Y83763184D01*
X82771812Y83763189D01*
X82704444Y84101863D01*
X82704444Y84101864D01*
X82512601Y84388979D01*
X82512598Y84388981D01*
X80697440Y86204140D01*
X80697440Y87100000D01*
X80653162Y87335317D01*
X80514090Y87551441D01*
X80301890Y87696431D01*
X80050000Y87747440D01*
X78750000Y87747440D01*
X78514683Y87703162D01*
X78298559Y87564090D01*
X78153569Y87351890D01*
X78102560Y87100000D01*
X76997440Y87100000D01*
X76953162Y87335317D01*
X76814090Y87551441D01*
X76601890Y87696431D01*
X76350000Y87747440D01*
X75050000Y87747440D01*
X74814683Y87703162D01*
X74598559Y87564090D01*
X74594066Y87557514D01*
X69525790Y92625790D01*
X69473931Y92660441D01*
X69238675Y92817633D01*
X69182484Y92828810D01*
X68900000Y92885001D01*
X68899995Y92885000D01*
X55160573Y92885000D01*
X54725787Y93319787D01*
X57099392Y93319787D01*
X57168857Y93077603D01*
X57692302Y92890856D01*
X58247368Y92918638D01*
X58631143Y93077603D01*
X58700608Y93319787D01*
X57900000Y94120395D01*
X57099392Y93319787D01*
X54725787Y93319787D01*
X53537876Y94507698D01*
X56490856Y94507698D01*
X56518638Y93952632D01*
X56677603Y93568857D01*
X56919787Y93499392D01*
X57720395Y94300000D01*
X58079605Y94300000D01*
X58880213Y93499392D01*
X59122397Y93568857D01*
X59172509Y93709318D01*
X59254990Y93509697D01*
X59647630Y93116371D01*
X60160900Y92903243D01*
X60716661Y92902758D01*
X61230303Y93114990D01*
X61623629Y93507630D01*
X61717870Y93734588D01*
X61779826Y93585003D01*
X62144801Y93180142D01*
X62636928Y92945769D01*
X62853000Y93067524D01*
X62853000Y94173000D01*
X62833000Y94173000D01*
X62833000Y94427000D01*
X62853000Y94427000D01*
X62853000Y95532476D01*
X63107000Y95532476D01*
X63107000Y94427000D01*
X63127000Y94427000D01*
X63127000Y94173000D01*
X63107000Y94173000D01*
X63107000Y93067524D01*
X63323072Y92945769D01*
X63815199Y93180142D01*
X64180174Y93585003D01*
X64234638Y93716501D01*
X64504803Y93312172D01*
X64958022Y93009340D01*
X65492631Y92903000D01*
X65547369Y92903000D01*
X66081978Y93009340D01*
X66535197Y93312172D01*
X66795586Y93701870D01*
X66874990Y93509697D01*
X67267630Y93116371D01*
X67780900Y92903243D01*
X68336661Y92902758D01*
X68850303Y93114990D01*
X69243629Y93507630D01*
X69324334Y93701990D01*
X69584803Y93312172D01*
X70038022Y93009340D01*
X70572631Y92903000D01*
X70627369Y92903000D01*
X71161978Y93009340D01*
X71615197Y93312172D01*
X71870000Y93693511D01*
X72124803Y93312172D01*
X72578022Y93009340D01*
X73112631Y92903000D01*
X73167369Y92903000D01*
X73701978Y93009340D01*
X74155197Y93312172D01*
X74410000Y93693511D01*
X74664803Y93312172D01*
X75118022Y93009340D01*
X75652631Y92903000D01*
X75707369Y92903000D01*
X76241978Y93009340D01*
X76695197Y93312172D01*
X76965362Y93716501D01*
X77019826Y93585003D01*
X77384801Y93180142D01*
X77876928Y92945769D01*
X78093000Y93067524D01*
X78093000Y94173000D01*
X78073000Y94173000D01*
X78073000Y94427000D01*
X78093000Y94427000D01*
X78093000Y95532476D01*
X78347000Y95532476D01*
X78347000Y94427000D01*
X78367000Y94427000D01*
X78367000Y94173000D01*
X78347000Y94173000D01*
X78347000Y93067524D01*
X78563072Y92945769D01*
X79055199Y93180142D01*
X79420174Y93585003D01*
X79482098Y93734513D01*
X79574990Y93509697D01*
X79967630Y93116371D01*
X80480900Y92903243D01*
X81036661Y92902758D01*
X81550303Y93114990D01*
X81943629Y93507630D01*
X82156757Y94020900D01*
X82157242Y94576661D01*
X81945010Y95090303D01*
X81552370Y95483629D01*
X81039100Y95696757D01*
X80483339Y95697242D01*
X79969697Y95485010D01*
X79576371Y95092370D01*
X79482130Y94865412D01*
X79420174Y95014997D01*
X79055199Y95419858D01*
X78563072Y95654231D01*
X78347000Y95532476D01*
X78093000Y95532476D01*
X77876928Y95654231D01*
X77384801Y95419858D01*
X77019826Y95014997D01*
X76965362Y94883499D01*
X76695197Y95287828D01*
X76241978Y95590660D01*
X75707369Y95697000D01*
X75652631Y95697000D01*
X75118022Y95590660D01*
X74664803Y95287828D01*
X74410000Y94906489D01*
X74155197Y95287828D01*
X73701978Y95590660D01*
X73167369Y95697000D01*
X73112631Y95697000D01*
X72578022Y95590660D01*
X72124803Y95287828D01*
X71870000Y94906489D01*
X71615197Y95287828D01*
X71161978Y95590660D01*
X70627369Y95697000D01*
X70572631Y95697000D01*
X70038022Y95590660D01*
X69584803Y95287828D01*
X69324414Y94898130D01*
X69245010Y95090303D01*
X68852370Y95483629D01*
X68339100Y95696757D01*
X67783339Y95697242D01*
X67269697Y95485010D01*
X66876371Y95092370D01*
X66795666Y94898010D01*
X66535197Y95287828D01*
X66081978Y95590660D01*
X65547369Y95697000D01*
X65492631Y95697000D01*
X64958022Y95590660D01*
X64504803Y95287828D01*
X64234638Y94883499D01*
X64180174Y95014997D01*
X63815199Y95419858D01*
X63323072Y95654231D01*
X63107000Y95532476D01*
X62853000Y95532476D01*
X62636928Y95654231D01*
X62144801Y95419858D01*
X61779826Y95014997D01*
X61717902Y94865487D01*
X61625010Y95090303D01*
X61232370Y95483629D01*
X60719100Y95696757D01*
X60163339Y95697242D01*
X59649697Y95485010D01*
X59256371Y95092370D01*
X59176605Y94900273D01*
X59122397Y95031143D01*
X58880213Y95100608D01*
X58079605Y94300000D01*
X57720395Y94300000D01*
X56919787Y95100608D01*
X56677603Y95031143D01*
X56490856Y94507698D01*
X53537876Y94507698D01*
X52765361Y95280213D01*
X57099392Y95280213D01*
X57900000Y94479605D01*
X58700608Y95280213D01*
X58631143Y95522397D01*
X58107698Y95709144D01*
X57552632Y95681362D01*
X57168857Y95522397D01*
X57099392Y95280213D01*
X52765361Y95280213D01*
X49715804Y98329770D01*
X49479750Y98487495D01*
X49428689Y98521613D01*
X49372498Y98532790D01*
X49090014Y98588981D01*
X49090009Y98588980D01*
X22098662Y98588980D01*
X21810703Y98877441D01*
X21301841Y99088739D01*
X20750854Y99089220D01*
X20241624Y98878811D01*
X19851678Y98489544D01*
X19640380Y97980682D01*
X19639899Y97429695D01*
X19850308Y96920465D01*
X20239575Y96530519D01*
X20748437Y96319221D01*
X21299424Y96318740D01*
X21808654Y96529149D01*
X22098991Y96818980D01*
X48723434Y96818980D01*
X53646817Y91895598D01*
X24804605Y91895598D01*
X24804600Y91895599D01*
X24522116Y91839408D01*
X24465925Y91828231D01*
X24178810Y91636388D01*
X24178808Y91636385D01*
X23212777Y90670355D01*
X23053864Y91054005D01*
X22807745Y91128139D01*
X21979605Y90300000D01*
X21993748Y90285858D01*
X21814142Y90106252D01*
X21800000Y90120395D01*
X20971861Y89292255D01*
X21045995Y89046136D01*
X21445103Y88902681D01*
X21387422Y88845000D01*
X13923920Y88845000D01*
X13903162Y88955317D01*
X13764090Y89171441D01*
X13551890Y89316431D01*
X13300000Y89367440D01*
X11780000Y89367440D01*
X11544683Y89323162D01*
X11328559Y89184090D01*
X11183569Y88971890D01*
X11132560Y88720000D01*
X11132560Y87400014D01*
X10791236Y87741934D01*
X10278700Y87954758D01*
X9723735Y87955242D01*
X9210828Y87743313D01*
X8818066Y87351236D01*
X8605242Y86838700D01*
X8604758Y86283735D01*
X910000Y86283735D01*
X910000Y90516777D01*
X20353035Y90516777D01*
X20380222Y89946546D01*
X20546136Y89545995D01*
X20792255Y89471861D01*
X21620395Y90300000D01*
X20792255Y91128139D01*
X20546136Y91054005D01*
X20353035Y90516777D01*
X910000Y90516777D01*
X910000Y91307745D01*
X20971861Y91307745D01*
X21800000Y90479605D01*
X22628139Y91307745D01*
X22554005Y91553864D01*
X22016777Y91746965D01*
X21446546Y91719778D01*
X21045995Y91553864D01*
X20971861Y91307745D01*
X910000Y91307745D01*
X910000Y94696979D01*
X7459560Y94696979D01*
X7845437Y93763085D01*
X8559327Y93047948D01*
X9492546Y92660441D01*
X10503021Y92659560D01*
X11436915Y93045437D01*
X12152052Y93759327D01*
X12501130Y94600000D01*
X20352560Y94600000D01*
X20352560Y93000000D01*
X20396838Y92764683D01*
X20535910Y92548559D01*
X20748110Y92403569D01*
X21000000Y92352560D01*
X22600000Y92352560D01*
X22835317Y92396838D01*
X23051441Y92535910D01*
X23196431Y92748110D01*
X23247440Y93000000D01*
X23247440Y94600000D01*
X23203162Y94835317D01*
X23064090Y95051441D01*
X22851890Y95196431D01*
X22600000Y95247440D01*
X21000000Y95247440D01*
X20764683Y95203162D01*
X20548559Y95064090D01*
X20403569Y94851890D01*
X20352560Y94600000D01*
X12501130Y94600000D01*
X12539559Y94692546D01*
X12540440Y95703021D01*
X12154563Y96636915D01*
X11440673Y97352052D01*
X10507454Y97739559D01*
X9496979Y97740440D01*
X8563085Y97354563D01*
X7847948Y96640673D01*
X7460441Y95707454D01*
X7459560Y94696979D01*
X910000Y94696979D01*
X910000Y99840000D01*
X85240353Y99840000D01*
X85273183Y33884597D01*
M02*
