M48
;DRILL file {KiCad 4.0.7} date 04/02/18 14:49:46
;FORMAT={-:-/ absolute / metric / decimal}
FMAT,2
METRIC,TZ
T1C0.500
T2C0.762
T3C0.800
T4C1.000
T5C1.016
T6C1.100
T7C1.199
T8C1.200
T9C1.300
T10C1.350
T11C1.500
T12C3.200
%
G90
G05
M71
T1
X50.611Y22.989
T2
X6.768Y89.979
X11.848Y89.979
X11.938Y34.036
X11.938Y28.956
X14.882Y90.07
X19.962Y90.07
X22.991Y90.236
X28.071Y90.236
X68.982Y43.975
X71.522Y43.975
X74.062Y43.975
X76.602Y43.975
X79.142Y43.975
X81.682Y43.975
X84.222Y43.975
X86.762Y43.975
X89.302Y43.975
X91.842Y43.975
X114.166Y31.059
X114.166Y25.979
T3
X13.316Y86.114
X13.436Y82.179
X13.436Y79.639
X20.936Y86.114
X21.056Y82.179
X21.056Y79.639
X28.986Y7.004
X28.986Y4.464
X28.986Y1.924
X32.768Y20.098
X42.423Y24.697
X44.882Y59.595
X45.784Y35.368
X47.761Y30.114
X47.816Y17.934
X47.816Y15.394
X47.816Y12.854
X47.816Y10.314
X49.504Y30.818
X51.054Y89.916
X55.436Y17.934
X55.436Y15.394
X55.436Y12.854
X55.436Y10.314
X56.051Y74.554
X56.137Y32.075
X56.137Y29.535
X56.137Y26.995
X56.137Y24.455
X56.997Y77.982
X57.934Y52.45
X63.246Y43.688
X63.757Y32.075
X63.757Y29.535
X63.757Y26.995
X63.757Y24.455
X65.593Y72.597
X76.312Y82.185
X76.312Y79.645
X76.312Y77.105
X76.312Y74.565
X79.262Y35.15
X79.262Y32.61
X79.262Y30.07
X79.262Y27.53
X81.28Y49.53
X81.554Y52.649
X83.932Y82.185
X83.932Y79.645
X83.932Y77.105
X83.932Y74.565
X86.882Y35.15
X86.882Y32.61
X86.882Y30.07
X86.882Y27.53
X94.166Y61.229
X96.507Y32.345
X96.507Y29.805
X96.507Y27.265
X96.507Y24.725
X97.727Y48.477
X102.108Y88.646
X104.127Y32.345
X104.127Y29.805
X104.127Y27.265
X104.127Y24.725
X106.457Y58.145
X106.457Y55.645
X110.97Y59.895
T4
X3.302Y54.61
X3.302Y52.07
X3.556Y63.246
X3.556Y60.706
X15.24Y65.532
X15.24Y62.992
X15.24Y60.452
X15.24Y53.848
X15.24Y51.308
X15.24Y48.768
X23.368Y46.99
X25.908Y46.99
X26.282Y79.82
X26.282Y77.28
X26.282Y74.74
X26.282Y72.2
X57.227Y89.87
X59.767Y89.87
X62.307Y89.87
X64.847Y89.87
X67.387Y89.87
X69.927Y89.87
X72.467Y89.87
X114.382Y43.995
X114.382Y41.455
X114.382Y38.915
T5
X34.217Y87.55
X34.217Y85.01
X34.217Y82.47
X34.217Y79.93
X34.217Y77.39
X34.217Y74.85
X34.217Y72.31
X34.217Y69.77
X34.217Y67.23
X34.217Y64.69
X34.217Y62.15
X34.217Y59.61
X34.217Y57.07
X34.217Y54.53
X34.217Y51.99
X34.217Y49.45
X34.217Y46.91
X34.217Y44.37
X34.217Y41.83
X34.217Y39.29
X40.577Y83.74
X43.117Y83.74
X49.457Y87.601
X49.457Y85.01
X49.457Y82.47
X49.457Y79.93
X49.457Y77.39
X49.457Y74.85
X49.457Y72.31
X49.457Y69.77
X49.457Y67.23
X49.457Y64.69
X49.457Y62.15
X49.457Y59.61
X49.457Y57.07
X49.457Y54.53
X49.457Y51.99
X49.457Y49.45
X49.457Y46.91
X49.457Y44.37
X49.457Y41.83
X49.457Y39.29
T6
X63.754Y47.897
T7
X9.906Y69.516
X9.906Y59.516
X9.906Y56.308
X9.906Y46.308
T8
X69.916Y15.889
X90.236Y15.889
T9
X35.136Y6.264
X37.636Y2.464
X40.136Y6.264
X49.111Y6.314
X51.611Y2.514
X54.111Y6.314
X57.457Y36.145
X59.957Y39.945
X62.457Y36.145
X98.357Y36.77
X100.857Y40.57
X103.357Y36.77
T10
X81.856Y6.064
X84.396Y8.604
X84.396Y3.524
X86.936Y6.064
X97.176Y6.064
X99.716Y8.604
X99.716Y3.524
X102.256Y6.064
T11
X63.461Y4.289
X68.911Y4.289
X74.361Y4.289
T12
X3.81Y85.344
X4.064Y3.81
X110.461Y6.064
X110.586Y15.864
X113.284Y51.562
T4
X103.357Y83.77G85X103.357Y81.77
G05
X109.057Y85.77G85X107.057Y85.77
G05
X109.057Y79.77G85X107.057Y79.77
G05
T0
M30
