G04 #@! TF.FileFunction,Copper,L2,Bot,Signal*
%FSLAX46Y46*%
G04 Gerber Fmt 4.6, Leading zero omitted, Abs format (unit mm)*
G04 Created by KiCad (PCBNEW 4.0.6) date 09/02/17 20:41:00*
%MOMM*%
%LPD*%
G01*
G04 APERTURE LIST*
%ADD10C,0.100000*%
%ADD11R,2.400000X1.600000*%
%ADD12O,2.400000X1.600000*%
%ADD13R,1.500000X1.250000*%
%ADD14R,1.250000X1.500000*%
%ADD15R,3.200000X2.500000*%
%ADD16R,1.600000X1.600000*%
%ADD17C,1.600000*%
%ADD18R,2.500000X3.200000*%
%ADD19R,4.600000X1.100000*%
%ADD20R,9.400000X10.800000*%
%ADD21R,4.550000X5.250000*%
%ADD22C,3.810000*%
%ADD23R,1.520000X1.520000*%
%ADD24C,1.520000*%
%ADD25R,4.500000X2.500000*%
%ADD26O,4.500000X2.500000*%
%ADD27R,1.500000X1.300000*%
%ADD28R,1.300000X1.500000*%
%ADD29C,2.400000*%
%ADD30O,2.400000X2.400000*%
%ADD31C,1.524000*%
%ADD32O,1.524000X1.524000*%
%ADD33R,1.600000X2.400000*%
%ADD34O,1.600000X2.400000*%
%ADD35R,0.650000X1.060000*%
%ADD36R,1.800000X1.800000*%
%ADD37O,1.800000X1.800000*%
%ADD38R,2.000000X3.800000*%
%ADD39R,2.000000X1.500000*%
%ADD40C,2.340000*%
%ADD41C,1.500000*%
%ADD42C,0.500000*%
%ADD43C,1.000000*%
%ADD44C,5.000000*%
%ADD45C,4.000000*%
%ADD46C,0.254000*%
G04 APERTURE END LIST*
D10*
D11*
X65380000Y74655000D03*
D12*
X73000000Y67035000D03*
X65380000Y72115000D03*
X73000000Y69575000D03*
X65380000Y69575000D03*
X73000000Y72115000D03*
X65380000Y67035000D03*
X73000000Y74655000D03*
D13*
X106775000Y83375000D03*
X109275000Y83375000D03*
D14*
X74825000Y78600000D03*
X74825000Y81100000D03*
D13*
X57750000Y79825000D03*
X60250000Y79825000D03*
D14*
X53250000Y5775000D03*
X53250000Y8275000D03*
D13*
X50650000Y26025000D03*
X48150000Y26025000D03*
X86375000Y91500000D03*
X88875000Y91500000D03*
X43825000Y41950000D03*
X46325000Y41950000D03*
D14*
X41350000Y57550000D03*
X41350000Y55050000D03*
D15*
X84825000Y79100000D03*
X89125000Y79100000D03*
X39914455Y46238045D03*
X44214455Y46238045D03*
D14*
X80300000Y78650000D03*
X80300000Y81150000D03*
D13*
X100400000Y73975000D03*
X97900000Y73975000D03*
X40700000Y26225000D03*
X38200000Y26225000D03*
D16*
X21750000Y83050000D03*
D17*
X21750000Y86550000D03*
D13*
X34069755Y76533009D03*
X31569755Y76533009D03*
D18*
X46819755Y82733009D03*
X46819755Y87033009D03*
X42319755Y82783009D03*
X42319755Y87083009D03*
D13*
X40600000Y21275000D03*
X38100000Y21275000D03*
D14*
X50639455Y67813045D03*
X50639455Y65313045D03*
D15*
X54789455Y60063045D03*
X50489455Y60063045D03*
D19*
X80225000Y11035000D03*
X80225000Y16115000D03*
D20*
X89375000Y13575000D03*
D21*
X91800000Y16350000D03*
X86950000Y10800000D03*
X91800000Y10800000D03*
X86950000Y16350000D03*
D22*
X17100000Y78030000D03*
X17100000Y52630000D03*
D23*
X19640000Y70790000D03*
D24*
X19640000Y68000000D03*
X19640000Y65200000D03*
X19640000Y62540000D03*
X19640000Y59740000D03*
X17100000Y61140000D03*
X17100000Y63930000D03*
X17100000Y66600000D03*
X17100000Y69390000D03*
D25*
X96000000Y39075000D03*
D26*
X96000000Y33625000D03*
X96000000Y28175000D03*
D25*
X96000000Y58075000D03*
D26*
X96000000Y52625000D03*
X96000000Y47175000D03*
D27*
X43050000Y33850000D03*
X45750000Y33850000D03*
X42275000Y14050000D03*
X44975000Y14050000D03*
X72925000Y22200000D03*
X70225000Y22200000D03*
D28*
X61950000Y6575000D03*
X61950000Y9275000D03*
X42639455Y68063045D03*
X42639455Y65363045D03*
X45889455Y68013045D03*
X45889455Y65313045D03*
X77775000Y78500000D03*
X77775000Y81200000D03*
D27*
X59425000Y82625000D03*
X62125000Y82625000D03*
X66250000Y79825000D03*
X63550000Y79825000D03*
X74675000Y84325000D03*
X71975000Y84325000D03*
D29*
X86500000Y33575000D03*
D30*
X58560000Y33575000D03*
D29*
X86500000Y52575000D03*
D30*
X58560000Y52575000D03*
D27*
X50825000Y22750000D03*
X48125000Y22750000D03*
D28*
X38569755Y82033009D03*
X38569755Y84733009D03*
D27*
X33819755Y89033009D03*
X31119755Y89033009D03*
D29*
X58750000Y24575000D03*
D30*
X58750000Y4255000D03*
D27*
X90800000Y71975000D03*
X93500000Y71975000D03*
D28*
X90650000Y66725000D03*
X90650000Y69425000D03*
X94900000Y64150000D03*
X94900000Y66850000D03*
D31*
X86360000Y87900000D03*
D32*
X88900000Y87900000D03*
X91440000Y87900000D03*
X93980000Y87900000D03*
X96520000Y87900000D03*
X101600000Y87900000D03*
X104140000Y87900000D03*
D31*
X106680000Y87900000D03*
X109220000Y87900000D03*
X99060000Y87900000D03*
D33*
X37935000Y10250000D03*
D34*
X45555000Y17870000D03*
X40475000Y10250000D03*
X43015000Y17870000D03*
X43015000Y10250000D03*
X40475000Y17870000D03*
X45555000Y10250000D03*
X37935000Y17870000D03*
D33*
X37519455Y52443045D03*
D34*
X45139455Y60063045D03*
X40059455Y52443045D03*
X42599455Y60063045D03*
X42599455Y52443045D03*
X40059455Y60063045D03*
X45139455Y52443045D03*
X37519455Y60063045D03*
D33*
X38670000Y30205000D03*
D34*
X46290000Y37825000D03*
X41210000Y30205000D03*
X43750000Y37825000D03*
X43750000Y30205000D03*
X41210000Y37825000D03*
X46290000Y30205000D03*
X38670000Y37825000D03*
D35*
X99900000Y66975000D03*
X98950000Y66975000D03*
X98000000Y66975000D03*
X98000000Y69175000D03*
X99900000Y69175000D03*
D36*
X105650000Y70475000D03*
D37*
X105650000Y67935000D03*
X105650000Y65395000D03*
D38*
X27519755Y83033009D03*
D39*
X33819755Y83033009D03*
X33819755Y80733009D03*
X33819755Y85333009D03*
D40*
X50175000Y11000000D03*
X52675000Y13500000D03*
X50175000Y16000000D03*
X50500000Y31325000D03*
X53000000Y33825000D03*
X50500000Y36325000D03*
D41*
X39374990Y69345200D03*
X106075000Y80025000D03*
X43325000Y78975000D03*
X57225000Y84100000D03*
X78725000Y74925000D03*
X55474999Y76224978D03*
X55628044Y74298244D03*
X92400000Y76925000D03*
X53955571Y70689360D03*
X55500000Y82000000D03*
X75375000Y91100032D03*
X81375000Y89975000D03*
X45606274Y73201444D03*
X61575000Y69600000D03*
X42925000Y6675020D03*
X58850000Y8850000D03*
X53350000Y25250000D03*
X34175000Y27150000D03*
D42*
X40475000Y10250000D02*
X40475000Y11815468D01*
X40475000Y11815468D02*
X37935000Y14355468D01*
X37935000Y14355468D02*
X37935000Y17870000D01*
X38624991Y68595201D02*
X39374990Y69345200D01*
X32525011Y62495221D02*
X38624991Y68595201D01*
X43015000Y17870000D02*
X43015000Y21257807D01*
X32525011Y26727985D02*
X32525011Y62495221D01*
X43015000Y21257807D02*
X39997796Y24275011D01*
X34977985Y24275011D02*
X32525011Y26727985D01*
X39997796Y24275011D02*
X34977985Y24275011D01*
X106680000Y87900000D02*
X106680000Y83470000D01*
X106680000Y83470000D02*
X106775000Y83375000D01*
X106075000Y80025000D02*
X106075000Y82675000D01*
X106075000Y82675000D02*
X106775000Y83375000D01*
X42275000Y14050000D02*
X42275000Y17130000D01*
X42275000Y17130000D02*
X43015000Y17870000D01*
X72574277Y78600000D02*
X70736785Y76762508D01*
X70736785Y76762508D02*
X70736785Y73978215D01*
X74825000Y78600000D02*
X72574277Y78600000D01*
X70736785Y73978215D02*
X72600000Y72115000D01*
X72600000Y72115000D02*
X73000000Y72115000D01*
X74825000Y78600000D02*
X77675000Y78600000D01*
X77675000Y78600000D02*
X77775000Y78500000D01*
X96000000Y58075000D02*
X95000000Y58075000D01*
X95000000Y58075000D02*
X80960000Y72115000D01*
X80960000Y72115000D02*
X73000000Y72115000D01*
X74825000Y81100000D02*
X74825000Y84175000D01*
X74825000Y84175000D02*
X74675000Y84325000D01*
X57750000Y79825000D02*
X57875000Y79825000D01*
X57875000Y79825000D02*
X63045000Y74655000D01*
X63045000Y74655000D02*
X63680000Y74655000D01*
X63680000Y74655000D02*
X65380000Y74655000D01*
X57750000Y79825000D02*
X57750000Y80950000D01*
X57750000Y80950000D02*
X59425000Y82625000D01*
X59833413Y74655000D02*
X63680000Y74655000D01*
X58925011Y73746598D02*
X59833413Y74655000D01*
X58925011Y65347796D02*
X58925011Y73746598D01*
X85197807Y39075000D02*
X58925011Y65347796D01*
X96000000Y39075000D02*
X85197807Y39075000D01*
X57750000Y79825000D02*
X57487738Y79562738D01*
X60250000Y79825000D02*
X63550000Y79825000D01*
X46243601Y4374999D02*
X52675000Y10806398D01*
X50489455Y61813045D02*
X52589455Y63913045D01*
X42700011Y71472796D02*
X42700011Y71597796D01*
X44759761Y69413046D02*
X42700011Y71472796D01*
X52589455Y68408047D02*
X51584456Y69413046D01*
X37928007Y72575011D02*
X29024999Y63672003D01*
X52675000Y11845371D02*
X52675000Y13500000D01*
X52675000Y10806398D02*
X52675000Y11845371D01*
X33229999Y4374999D02*
X46243601Y4374999D01*
X29024999Y63672003D02*
X29024999Y8579999D01*
X41722796Y72575011D02*
X37928007Y72575011D01*
X42700011Y71597796D02*
X41722796Y72575011D01*
X50489455Y60063045D02*
X50489455Y61813045D01*
X51584456Y69413046D02*
X44759761Y69413046D01*
X29024999Y8579999D02*
X33229999Y4374999D01*
X52589455Y63913045D02*
X52589455Y68408047D01*
X53000000Y33825000D02*
X54169999Y34994999D01*
X54169999Y34994999D02*
X54169999Y52074100D01*
X54169999Y52074100D02*
X57420909Y55325010D01*
X57420909Y55325010D02*
X59699091Y55325010D01*
X61724101Y53300000D02*
X61724101Y22549101D01*
X59699091Y55325010D02*
X61724101Y53300000D01*
X61724101Y22549101D02*
X52675000Y13500000D01*
X53250000Y8275000D02*
X53250000Y12925000D01*
X53250000Y12925000D02*
X52675000Y13500000D01*
X45555000Y10250000D02*
X45555000Y13470000D01*
X45555000Y13470000D02*
X44975000Y14050000D01*
X46290000Y31905000D02*
X47535000Y33150000D01*
X47535000Y33150000D02*
X48210000Y33825000D01*
X45750000Y33850000D02*
X47000000Y33850000D01*
X47000000Y33850000D02*
X47535000Y33315000D01*
X47535000Y33315000D02*
X47535000Y33150000D01*
X45775000Y10030000D02*
X45555000Y10250000D01*
X48150000Y26025000D02*
X46900000Y26025000D01*
X46900000Y26025000D02*
X46290000Y26635000D01*
X46290000Y26635000D02*
X46290000Y30205000D01*
X50639455Y65313045D02*
X50639455Y60063045D01*
X50639455Y60063045D02*
X50389455Y59813045D01*
X50389455Y59813045D02*
X45389455Y59813045D01*
X45389455Y59813045D02*
X45139455Y60063045D01*
X45889455Y65313045D02*
X45889455Y60813045D01*
X45889455Y60813045D02*
X45139455Y60063045D01*
X52675000Y13500000D02*
X48405000Y13500000D01*
X48405000Y13500000D02*
X45555000Y10650000D01*
X45555000Y10650000D02*
X45555000Y10250000D01*
X46290000Y30205000D02*
X46290000Y31905000D01*
X48210000Y33825000D02*
X52645371Y33825000D01*
X39025000Y32625000D02*
X41210000Y34810000D01*
X41210000Y34810000D02*
X41210000Y37825000D01*
X34375000Y32625000D02*
X39025000Y32625000D01*
X33750000Y33250000D02*
X34375000Y32625000D01*
X33750000Y61175000D02*
X33750000Y33250000D01*
X40775000Y68200000D02*
X33750000Y61175000D01*
X40775000Y70425000D02*
X40775000Y68200000D01*
X39975000Y71225000D02*
X40775000Y70425000D01*
X39175000Y71225000D02*
X39975000Y71225000D01*
X31625000Y63675000D02*
X39175000Y71225000D01*
X31625000Y26175000D02*
X31625000Y63675000D01*
X34425000Y23375000D02*
X31625000Y26175000D01*
X39625000Y23375000D02*
X34425000Y23375000D01*
X40600000Y21275000D02*
X40600000Y22400000D01*
X40600000Y22400000D02*
X39625000Y23375000D01*
X38569755Y82033009D02*
X42650000Y77952764D01*
X42650000Y77952764D02*
X42977776Y77624988D01*
X43325000Y78975000D02*
X42575001Y78225001D01*
X42575001Y78225001D02*
X42575001Y78027763D01*
X42575001Y78027763D02*
X42650000Y77952764D01*
X61025000Y87900000D02*
X57225000Y84100000D01*
X86360000Y87900000D02*
X61025000Y87900000D01*
X56447016Y77624988D02*
X57039456Y77032548D01*
X57039456Y77032548D02*
X57039456Y57700000D01*
X57039456Y57700000D02*
X55504386Y57700000D01*
X42977776Y77624988D02*
X56447016Y77624988D01*
X40475000Y17870000D02*
X40475000Y21150000D01*
X40475000Y21150000D02*
X40600000Y21275000D01*
X52369977Y50369977D02*
X52369977Y54565591D01*
X43825000Y41950000D02*
X43950000Y41950000D01*
X43950000Y41950000D02*
X52369977Y50369977D01*
X54854386Y57050000D02*
X55504386Y57700000D01*
X42975000Y57050000D02*
X54854386Y57050000D01*
X41350000Y57550000D02*
X42475000Y57550000D01*
X42475000Y57550000D02*
X42975000Y57050000D01*
X52369977Y54565591D02*
X55504386Y57700000D01*
X41450000Y41250000D02*
X42150000Y41950000D01*
X42150000Y41950000D02*
X43825000Y41950000D01*
X41450000Y38465000D02*
X41450000Y41250000D01*
X41210000Y37825000D02*
X41210000Y38225000D01*
X41210000Y38225000D02*
X41450000Y38465000D01*
X40875000Y18270000D02*
X40475000Y17870000D01*
X41350000Y57550000D02*
X40225000Y57550000D01*
X40225000Y57550000D02*
X39488045Y56813045D01*
X39488045Y56813045D02*
X39069455Y56813045D01*
X46819755Y82733009D02*
X42369755Y82733009D01*
X42369755Y82733009D02*
X42319755Y82783009D01*
X86360000Y87900000D02*
X86360000Y91485000D01*
X86360000Y91485000D02*
X86375000Y91500000D01*
X98900000Y77400000D02*
X100400000Y75900000D01*
X100400000Y75900000D02*
X100400000Y73975000D01*
X96860000Y77400000D02*
X98900000Y77400000D01*
X86360000Y87900000D02*
X96860000Y77400000D01*
X37519455Y60063045D02*
X37519455Y58363045D01*
X37519455Y58363045D02*
X39069455Y56813045D01*
X38569755Y82033009D02*
X41569755Y82033009D01*
X41569755Y82033009D02*
X42319755Y82783009D01*
X36069755Y83033009D02*
X37069755Y82033009D01*
X37069755Y82033009D02*
X38569755Y82033009D01*
X33819755Y83033009D02*
X36069755Y83033009D01*
X100400000Y71070000D02*
X100400000Y73975000D01*
X100995000Y70475000D02*
X100400000Y71070000D01*
X105650000Y70475000D02*
X100995000Y70475000D01*
X100995000Y70475000D02*
X99900000Y69380000D01*
X99900000Y69380000D02*
X99900000Y69175000D01*
X98699989Y94200011D02*
X101600000Y91300000D01*
X50249999Y78654999D02*
X50249999Y82874999D01*
X93070603Y94200011D02*
X98699989Y94200011D01*
X50249999Y82874999D02*
X57075022Y89700022D01*
X82402215Y95175022D02*
X92095592Y95175022D01*
X76927215Y89700022D02*
X82402215Y95175022D01*
X50379999Y78524999D02*
X50249999Y78654999D01*
X101600000Y91300000D02*
X101600000Y88977630D01*
X56819812Y78524999D02*
X50379999Y78524999D01*
X47197788Y40400000D02*
X53269988Y46472200D01*
X58025000Y57322806D02*
X58025000Y77319811D01*
X43750000Y37825000D02*
X43750000Y38225000D01*
X45925000Y40400000D02*
X47197788Y40400000D01*
X57075022Y89700022D02*
X76927215Y89700022D01*
X53269988Y52567795D02*
X58025000Y57322806D01*
X53269988Y46472200D02*
X53269988Y52567795D01*
X92095592Y95175022D02*
X93070603Y94200011D01*
X43750000Y38225000D02*
X45925000Y40400000D01*
X101600000Y88977630D02*
X101600000Y87900000D01*
X58025000Y77319811D02*
X56819812Y78524999D01*
X40700000Y26225000D02*
X40700000Y29695000D01*
X40700000Y29695000D02*
X41210000Y30205000D01*
X43750000Y35575000D02*
X42025000Y33850000D01*
X42025000Y33850000D02*
X41210000Y33035000D01*
X43050000Y33850000D02*
X42025000Y33850000D01*
X41210000Y33035000D02*
X41210000Y30205000D01*
X43750000Y37825000D02*
X43750000Y35575000D01*
X21750000Y83050000D02*
X21750000Y81750000D01*
X21750000Y81750000D02*
X24016991Y79483009D01*
X24016991Y79483009D02*
X32319755Y79483009D01*
X32319755Y79483009D02*
X33569755Y80733009D01*
X33569755Y80733009D02*
X33819755Y80733009D01*
X80300000Y78650000D02*
X84375000Y78650000D01*
X84375000Y78650000D02*
X84825000Y79100000D01*
X79525000Y75725000D02*
X81100000Y75725000D01*
X81100000Y75725000D02*
X84475000Y79100000D01*
X84475000Y79100000D02*
X84825000Y79100000D01*
X78725000Y74925000D02*
X79525000Y75725000D01*
X78725000Y74925000D02*
X73270000Y74925000D01*
X73270000Y74925000D02*
X73000000Y74655000D01*
X34069755Y76533009D02*
X55166968Y76533009D01*
X55166968Y76533009D02*
X55474999Y76224978D01*
X21400000Y70790000D02*
X22160022Y71550022D01*
X22160022Y71550022D02*
X28961768Y71550022D01*
X28961768Y71550022D02*
X33944755Y76533009D01*
X33944755Y76533009D02*
X34069755Y76533009D01*
D43*
X19640000Y70790000D02*
X21400000Y70790000D01*
X17100000Y69390000D02*
X19090000Y69390000D01*
X19640000Y68000000D02*
X18250000Y69390000D01*
X18250000Y69390000D02*
X18240000Y69390000D01*
X17100000Y69390000D02*
X18240000Y69390000D01*
X18240000Y69390000D02*
X19640000Y70790000D01*
X19640000Y68000000D02*
X19640000Y70790000D01*
D42*
X17100000Y69390000D02*
X18250000Y69390000D01*
X33819755Y80733009D02*
X33819755Y76783009D01*
X33819755Y76783009D02*
X34069755Y76533009D01*
D44*
X73300000Y14900000D02*
X76360000Y14900000D01*
X76360000Y14900000D02*
X80225000Y11035000D01*
X73300000Y14900000D02*
X79010000Y14900000D01*
X79010000Y14900000D02*
X80225000Y16115000D01*
D42*
X86950000Y16350000D02*
X86950000Y19475000D01*
X86950000Y19475000D02*
X84225000Y22200000D01*
X84225000Y22200000D02*
X72925000Y22200000D01*
D45*
X104000000Y29075000D02*
X103100000Y28175000D01*
X103100000Y28175000D02*
X96000000Y28175000D01*
X104000000Y45425000D02*
X104000000Y29075000D01*
X96000000Y47175000D02*
X102250000Y47175000D01*
X102250000Y47175000D02*
X104000000Y45425000D01*
X92000000Y13575000D02*
X96000000Y17575000D01*
X96000000Y17575000D02*
X96000000Y28175000D01*
X89375000Y13575000D02*
X92000000Y13575000D01*
D42*
X54567384Y74298244D02*
X55628044Y74298244D01*
X25347382Y62540000D02*
X37182415Y74375033D01*
X51148386Y71263066D02*
X54183564Y74298244D01*
X44500033Y72343388D02*
X44500033Y72218388D01*
X45455355Y71263066D02*
X51148386Y71263066D01*
X42468388Y74375033D02*
X44500033Y72343388D01*
X37182415Y74375033D02*
X42468388Y74375033D01*
X19640000Y62540000D02*
X25347382Y62540000D01*
X54183564Y74298244D02*
X54567384Y74298244D01*
X44500033Y72218388D02*
X45455355Y71263066D01*
X92400000Y76925000D02*
X93460660Y76925000D01*
X93460660Y76925000D02*
X93500000Y76885660D01*
X93500000Y76885660D02*
X93500000Y73125000D01*
X93500000Y73125000D02*
X93500000Y71975000D01*
X98000000Y69175000D02*
X97175000Y69175000D01*
X97175000Y69175000D02*
X94375000Y71975000D01*
X94375000Y71975000D02*
X93500000Y71975000D01*
X42095592Y73475022D02*
X43600022Y71970592D01*
X52518608Y70313057D02*
X52894911Y70689360D01*
X19640000Y59740000D02*
X23820189Y59740000D01*
X43600022Y71970592D02*
X43600022Y71845592D01*
X37555211Y73475022D02*
X42095592Y73475022D01*
X23820189Y59740000D02*
X37555211Y73475022D01*
X52894911Y70689360D02*
X53955571Y70689360D01*
X43600022Y71845592D02*
X45132557Y70313057D01*
X45132557Y70313057D02*
X52518608Y70313057D01*
X77300011Y88800011D02*
X82775011Y94275011D01*
X93980000Y92017807D02*
X93980000Y88977630D01*
X91722796Y94275011D02*
X93980000Y92017807D01*
X82775011Y94275011D02*
X91722796Y94275011D01*
X55500000Y84447004D02*
X59853007Y88800011D01*
X55500000Y82000000D02*
X55500000Y84447004D01*
X59853007Y88800011D02*
X77300011Y88800011D01*
X93980000Y88977630D02*
X93980000Y87900000D01*
X17100000Y61140000D02*
X13445121Y64794879D01*
X13445121Y64794879D02*
X13445121Y84391622D01*
X13445121Y84391622D02*
X17335271Y88281772D01*
X17335271Y88281772D02*
X17335271Y89705208D01*
X17335271Y89705208D02*
X18730095Y91100032D01*
X18730095Y91100032D02*
X74314340Y91100032D01*
X74314340Y91100032D02*
X75375000Y91100032D01*
X84775000Y93375000D02*
X89545002Y93375000D01*
X89545002Y93375000D02*
X91440000Y91480002D01*
X91440000Y91480002D02*
X91440000Y88977630D01*
X91440000Y88977630D02*
X91440000Y87900000D01*
X81375000Y89975000D02*
X84775000Y93375000D01*
X44856275Y73951443D02*
X45606274Y73201444D01*
X26734575Y65200000D02*
X36809619Y75275044D01*
X19640000Y65200000D02*
X26734575Y65200000D01*
X36809619Y75275044D02*
X43532674Y75275044D01*
X43532674Y75275044D02*
X44856275Y73951443D01*
X61575000Y69600000D02*
X65355000Y69600000D01*
X65355000Y69600000D02*
X65380000Y69575000D01*
X65380000Y69575000D02*
X65780000Y69575000D01*
X70290000Y67035000D02*
X67750000Y69575000D01*
X73000000Y67035000D02*
X70290000Y67035000D01*
X67750000Y69575000D02*
X65380000Y69575000D01*
X61869998Y72115000D02*
X63680000Y72115000D01*
X60074999Y70320001D02*
X61869998Y72115000D01*
X60074999Y66212422D02*
X60074999Y70320001D01*
X83712421Y42575000D02*
X60074999Y66212422D01*
X63680000Y72115000D02*
X65380000Y72115000D01*
X99425366Y42575000D02*
X83712421Y42575000D01*
X99950000Y42050366D02*
X99425366Y42575000D01*
X96000000Y33625000D02*
X97000000Y33625000D01*
X99950000Y36575000D02*
X99950000Y42050366D01*
X97000000Y33625000D02*
X99950000Y36575000D01*
X66250000Y78675000D02*
X66250000Y79825000D01*
X67500000Y72709228D02*
X67500000Y77425000D01*
X66905772Y72115000D02*
X67500000Y72709228D01*
X67500000Y77425000D02*
X66250000Y78675000D01*
X65380000Y72115000D02*
X66905772Y72115000D01*
D45*
X86500000Y33575000D02*
X95950000Y33575000D01*
X95950000Y33575000D02*
X96000000Y33625000D01*
D42*
X73000000Y69575000D02*
X72600000Y69575000D01*
X72600000Y69575000D02*
X69736774Y72438226D01*
X69736774Y72438226D02*
X69736774Y77561967D01*
X69736774Y77561967D02*
X71975000Y79800193D01*
X71975000Y79800193D02*
X71975000Y84325000D01*
X73000000Y69575000D02*
X78550240Y69575000D01*
X78550240Y69575000D02*
X86500000Y61625240D01*
X86500000Y61625240D02*
X86500000Y52575000D01*
D45*
X96000000Y52625000D02*
X86550000Y52625000D01*
X86550000Y52625000D02*
X86500000Y52575000D01*
D42*
X61950000Y9275000D02*
X59275000Y9275000D01*
X59275000Y9275000D02*
X58850000Y8850000D01*
X43015000Y10250000D02*
X43015000Y6765020D01*
X43015000Y6765020D02*
X42925000Y6675020D01*
X59000000Y17125000D02*
X59000000Y9000000D01*
X59000000Y9000000D02*
X58850000Y8850000D01*
X64075000Y22200000D02*
X59000000Y17125000D01*
X68975000Y22200000D02*
X64075000Y22200000D01*
X70225000Y22200000D02*
X68975000Y22200000D01*
X48116320Y23279154D02*
X48116320Y22604284D01*
X48116320Y22604284D02*
X46496631Y22604284D01*
X46496631Y22604284D02*
X43750000Y25350915D01*
X43750000Y25350915D02*
X43750000Y30205000D01*
X90650000Y69425000D02*
X90650000Y71825000D01*
X90650000Y71825000D02*
X90800000Y71975000D01*
X90650000Y66725000D02*
X93900000Y66725000D01*
X93900000Y66725000D02*
X95050000Y66725000D01*
X95300000Y66975000D02*
X97974999Y66975000D01*
X95050000Y66725000D02*
X95300000Y66975000D01*
X41209990Y5275010D02*
X37935000Y8550000D01*
X44450010Y5275010D02*
X41209990Y5275010D01*
X50175000Y11000000D02*
X44450010Y5275010D01*
X37935000Y8550000D02*
X37935000Y10250000D01*
X50175000Y16000000D02*
X47025000Y16000000D01*
X47025000Y16000000D02*
X45555000Y17470000D01*
X45555000Y17470000D02*
X45555000Y17870000D01*
X53350000Y25250000D02*
X53350000Y28475000D01*
X53350000Y28475000D02*
X50500000Y31325000D01*
X37230000Y30205000D02*
X34175000Y27150000D01*
X38670000Y30205000D02*
X37230000Y30205000D01*
X50500000Y36325000D02*
X47790000Y36325000D01*
X47790000Y36325000D02*
X46290000Y37825000D01*
X105650000Y65395000D02*
X101480000Y65395000D01*
X101480000Y65395000D02*
X99925001Y66949999D01*
X58750000Y24575000D02*
X56824275Y22649275D01*
X56824275Y22649275D02*
X50883287Y22649275D01*
X50883287Y22649275D02*
X50838296Y22694266D01*
D45*
X58750000Y24575000D02*
X58750000Y33385000D01*
X58750000Y33385000D02*
X58560000Y33575000D01*
X58560000Y52575000D02*
X58560000Y33575000D01*
D42*
X40059455Y52443045D02*
X40059455Y45883045D01*
X40059455Y45883045D02*
X39489455Y45313045D01*
X45139455Y52443045D02*
X45139455Y46663045D01*
X45139455Y46663045D02*
X43789455Y45313045D01*
X42639455Y68063045D02*
X42639455Y67741648D01*
X42639455Y67741648D02*
X36069445Y61171638D01*
X36069445Y61171638D02*
X36069445Y55593055D01*
X36069445Y55593055D02*
X37519455Y54143045D01*
X37519455Y54143045D02*
X37519455Y52443045D01*
X50639455Y67813045D02*
X46089455Y67813045D01*
X46089455Y67813045D02*
X45889455Y68013045D01*
X42639455Y68063045D02*
X45839455Y68063045D01*
X45839455Y68063045D02*
X45889455Y68013045D01*
X42639455Y65363045D02*
X42639455Y60103045D01*
X42639455Y60103045D02*
X42599455Y60063045D01*
X33819755Y85333009D02*
X33819755Y89033009D01*
X33819755Y85333009D02*
X37969755Y85333009D01*
X37969755Y85333009D02*
X38569755Y84733009D01*
D46*
G36*
X115206268Y54977669D02*
X114928166Y54922351D01*
X114138195Y54394509D01*
X113610353Y53604538D01*
X113425000Y52672704D01*
X113425000Y52577296D01*
X113610353Y51645462D01*
X114138195Y50855491D01*
X114928166Y50327649D01*
X115213603Y50270872D01*
X115235869Y35983557D01*
X114928166Y35922351D01*
X114138195Y35394509D01*
X113610353Y34604538D01*
X113425000Y33672704D01*
X113425000Y33577296D01*
X113610353Y32645462D01*
X114138195Y31855491D01*
X114928166Y31327649D01*
X115243223Y31264980D01*
X115288891Y1961410D01*
X3083894Y2183598D01*
X3007895Y50823560D01*
X15473165Y50823560D01*
X15682353Y50462711D01*
X16619650Y50085176D01*
X17630077Y50095067D01*
X18517647Y50462711D01*
X18726835Y50823560D01*
X17100000Y52450395D01*
X15473165Y50823560D01*
X3007895Y50823560D01*
X3004321Y53110350D01*
X14555176Y53110350D01*
X14565067Y52099923D01*
X14932711Y51212353D01*
X15293560Y51003165D01*
X16920395Y52630000D01*
X17279605Y52630000D01*
X18906440Y51003165D01*
X19267289Y51212353D01*
X19644824Y52149650D01*
X19634933Y53160077D01*
X19267289Y54047647D01*
X18906440Y54256835D01*
X17279605Y52630000D01*
X16920395Y52630000D01*
X15293560Y54256835D01*
X14932711Y54047647D01*
X14555176Y53110350D01*
X3004321Y53110350D01*
X3002249Y54436440D01*
X15473165Y54436440D01*
X17100000Y52809605D01*
X18726835Y54436440D01*
X18517647Y54797289D01*
X17580350Y55174824D01*
X16569923Y55164933D01*
X15682353Y54797289D01*
X15473165Y54436440D01*
X3002249Y54436440D01*
X2955444Y84391622D01*
X12560120Y84391622D01*
X12560121Y84391617D01*
X12560121Y64794884D01*
X12560120Y64794879D01*
X12607438Y64557003D01*
X12627488Y64456204D01*
X12747195Y64277049D01*
X12819331Y64169089D01*
X15705124Y61283297D01*
X15704758Y60863735D01*
X15916687Y60350828D01*
X16308764Y59958066D01*
X16821300Y59745242D01*
X17376265Y59744758D01*
X17889172Y59956687D01*
X18281934Y60348764D01*
X18494758Y60861300D01*
X18495242Y61416265D01*
X18283313Y61929172D01*
X17891236Y62321934D01*
X17378700Y62534758D01*
X17134424Y62534971D01*
X17447049Y62550659D01*
X17829941Y62709258D01*
X17899159Y62951236D01*
X17100000Y63750395D01*
X17085858Y63736252D01*
X16906253Y63915857D01*
X16920395Y63930000D01*
X17279605Y63930000D01*
X18078764Y63130841D01*
X18320742Y63200059D01*
X18507155Y63722780D01*
X18479341Y64277049D01*
X18320742Y64659941D01*
X18078764Y64729159D01*
X17279605Y63930000D01*
X16920395Y63930000D01*
X16121236Y64729159D01*
X15879258Y64659941D01*
X15692845Y64137220D01*
X15710728Y63780851D01*
X14330121Y65161459D01*
X14330121Y65621236D01*
X16300841Y65621236D01*
X16370059Y65379258D01*
X16666512Y65273537D01*
X16370059Y65150742D01*
X16300841Y64908764D01*
X17100000Y64109605D01*
X17899159Y64908764D01*
X17829941Y65150742D01*
X17533488Y65256463D01*
X17829941Y65379258D01*
X17899159Y65621236D01*
X17100000Y66420395D01*
X16300841Y65621236D01*
X14330121Y65621236D01*
X14330121Y66807220D01*
X15692845Y66807220D01*
X15720659Y66252951D01*
X15879258Y65870059D01*
X16121236Y65800841D01*
X16920395Y66600000D01*
X17279605Y66600000D01*
X18078764Y65800841D01*
X18320742Y65870059D01*
X18507155Y66392780D01*
X18479341Y66947049D01*
X18320742Y67329941D01*
X18078764Y67399159D01*
X17279605Y66600000D01*
X16920395Y66600000D01*
X16121236Y67399159D01*
X15879258Y67329941D01*
X15692845Y66807220D01*
X14330121Y66807220D01*
X14330121Y76223560D01*
X15473165Y76223560D01*
X15682353Y75862711D01*
X16619650Y75485176D01*
X17630077Y75495067D01*
X18517647Y75862711D01*
X18726835Y76223560D01*
X17100000Y77850395D01*
X15473165Y76223560D01*
X14330121Y76223560D01*
X14330121Y78510350D01*
X14555176Y78510350D01*
X14565067Y77499923D01*
X14932711Y76612353D01*
X15293560Y76403165D01*
X16920395Y78030000D01*
X17279605Y78030000D01*
X18906440Y76403165D01*
X19267289Y76612353D01*
X19537951Y77284319D01*
X30184755Y77284319D01*
X30184755Y76818759D01*
X30343505Y76660009D01*
X31442755Y76660009D01*
X31442755Y77634259D01*
X31284005Y77793009D01*
X30693446Y77793009D01*
X30460057Y77696336D01*
X30281428Y77517708D01*
X30184755Y77284319D01*
X19537951Y77284319D01*
X19644824Y77549650D01*
X19634933Y78560077D01*
X19267289Y79447647D01*
X18906440Y79656835D01*
X17279605Y78030000D01*
X16920395Y78030000D01*
X15293560Y79656835D01*
X14932711Y79447647D01*
X14555176Y78510350D01*
X14330121Y78510350D01*
X14330121Y79836440D01*
X15473165Y79836440D01*
X17100000Y78209605D01*
X18726835Y79836440D01*
X18517647Y80197289D01*
X17580350Y80574824D01*
X16569923Y80564933D01*
X15682353Y80197289D01*
X15473165Y79836440D01*
X14330121Y79836440D01*
X14330121Y84025042D01*
X15238087Y84933009D01*
X25872315Y84933009D01*
X25872315Y81133009D01*
X25916593Y80897692D01*
X26055665Y80681568D01*
X26267865Y80536578D01*
X26519755Y80485569D01*
X28519755Y80485569D01*
X28755072Y80529847D01*
X28971196Y80668919D01*
X29116186Y80881119D01*
X29167195Y81133009D01*
X29167195Y84933009D01*
X29122917Y85168326D01*
X28983845Y85384450D01*
X28771645Y85529440D01*
X28519755Y85580449D01*
X26519755Y85580449D01*
X26284438Y85536171D01*
X26068314Y85397099D01*
X25923324Y85184899D01*
X25872315Y84933009D01*
X15238087Y84933009D01*
X15847333Y85542255D01*
X20921861Y85542255D01*
X20995995Y85296136D01*
X21533223Y85103035D01*
X22103454Y85130222D01*
X22504005Y85296136D01*
X22578139Y85542255D01*
X21750000Y86370395D01*
X20921861Y85542255D01*
X15847333Y85542255D01*
X17071855Y86766777D01*
X20303035Y86766777D01*
X20330222Y86196546D01*
X20496136Y85795995D01*
X20742255Y85721861D01*
X21570395Y86550000D01*
X21929605Y86550000D01*
X22757745Y85721861D01*
X23003864Y85795995D01*
X23196965Y86333223D01*
X23169778Y86903454D01*
X23003864Y87304005D01*
X22757745Y87378139D01*
X21929605Y86550000D01*
X21570395Y86550000D01*
X20742255Y87378139D01*
X20496136Y87304005D01*
X20303035Y86766777D01*
X17071855Y86766777D01*
X17862823Y87557745D01*
X20921861Y87557745D01*
X21750000Y86729605D01*
X22578139Y87557745D01*
X22504005Y87803864D01*
X21966777Y87996965D01*
X21396546Y87969778D01*
X20995995Y87803864D01*
X20921861Y87557745D01*
X17862823Y87557745D01*
X17961058Y87655980D01*
X17961061Y87655982D01*
X18152904Y87943097D01*
X18164081Y87999288D01*
X18220272Y88281772D01*
X18220271Y88281777D01*
X18220271Y88747259D01*
X29734755Y88747259D01*
X29734755Y88256699D01*
X29831428Y88023310D01*
X30010057Y87844682D01*
X30243446Y87748009D01*
X30834005Y87748009D01*
X30992755Y87906759D01*
X30992755Y88906009D01*
X29893505Y88906009D01*
X29734755Y88747259D01*
X18220271Y88747259D01*
X18220271Y89338628D01*
X19096674Y90215032D01*
X30003753Y90215032D01*
X29831428Y90042708D01*
X29734755Y89809319D01*
X29734755Y89318759D01*
X29893505Y89160009D01*
X30992755Y89160009D01*
X30992755Y89180009D01*
X31246755Y89180009D01*
X31246755Y89160009D01*
X31266755Y89160009D01*
X31266755Y88906009D01*
X31246755Y88906009D01*
X31246755Y87906759D01*
X31405505Y87748009D01*
X31996064Y87748009D01*
X32229453Y87844682D01*
X32408082Y88023310D01*
X32464409Y88159296D01*
X32466593Y88147692D01*
X32605665Y87931568D01*
X32817865Y87786578D01*
X32934755Y87762907D01*
X32934755Y86730449D01*
X32819755Y86730449D01*
X32584438Y86686171D01*
X32368314Y86547099D01*
X32223324Y86334899D01*
X32172315Y86083009D01*
X32172315Y84583009D01*
X32216593Y84347692D01*
X32323514Y84181532D01*
X32223324Y84034899D01*
X32172315Y83783009D01*
X32172315Y82283009D01*
X32216593Y82047692D01*
X32323514Y81881532D01*
X32223324Y81734899D01*
X32172315Y81483009D01*
X32172315Y80587149D01*
X31953175Y80368009D01*
X24383570Y80368009D01*
X22979675Y81771904D01*
X23001441Y81785910D01*
X23146431Y81998110D01*
X23197440Y82250000D01*
X23197440Y83850000D01*
X23153162Y84085317D01*
X23014090Y84301441D01*
X22801890Y84446431D01*
X22550000Y84497440D01*
X20950000Y84497440D01*
X20714683Y84453162D01*
X20498559Y84314090D01*
X20353569Y84101890D01*
X20302560Y83850000D01*
X20302560Y82250000D01*
X20346838Y82014683D01*
X20485910Y81798559D01*
X20698110Y81653569D01*
X20891991Y81614307D01*
X20904655Y81550642D01*
X20932367Y81411325D01*
X21084922Y81183009D01*
X21124210Y81124210D01*
X23391199Y78857222D01*
X23391201Y78857219D01*
X23659816Y78677737D01*
X23678316Y78665376D01*
X24016991Y78598009D01*
X32319750Y78598009D01*
X32319755Y78598008D01*
X32606262Y78654999D01*
X32658430Y78665376D01*
X32934755Y78850009D01*
X32934755Y77664853D01*
X32868314Y77622099D01*
X32821786Y77554003D01*
X32679453Y77696336D01*
X32446064Y77793009D01*
X31855505Y77793009D01*
X31696755Y77634259D01*
X31696755Y76660009D01*
X31716755Y76660009D01*
X31716755Y76406009D01*
X31696755Y76406009D01*
X31696755Y76386009D01*
X31442755Y76386009D01*
X31442755Y76406009D01*
X30343505Y76406009D01*
X30184755Y76247259D01*
X30184755Y75781699D01*
X30281428Y75548310D01*
X30460057Y75369682D01*
X30693446Y75273009D01*
X31284005Y75273009D01*
X31442753Y75431757D01*
X31442753Y75282586D01*
X28595188Y72435022D01*
X22160022Y72435022D01*
X21821347Y72367655D01*
X21534232Y72175812D01*
X21534230Y72175809D01*
X21283421Y71925000D01*
X20913278Y71925000D01*
X20864090Y72001441D01*
X20651890Y72146431D01*
X20400000Y72197440D01*
X18880000Y72197440D01*
X18644683Y72153162D01*
X18428559Y72014090D01*
X18283569Y71801890D01*
X18232560Y71550000D01*
X18232560Y70987692D01*
X17838641Y70593773D01*
X17378700Y70784758D01*
X16823735Y70785242D01*
X16310828Y70573313D01*
X15918066Y70181236D01*
X15705242Y69668700D01*
X15704758Y69113735D01*
X15916687Y68600828D01*
X16308764Y68208066D01*
X16821300Y67995242D01*
X17065576Y67995029D01*
X16752951Y67979341D01*
X16370059Y67820742D01*
X16300841Y67578764D01*
X17100000Y66779605D01*
X17899159Y67578764D01*
X17829941Y67820742D01*
X17341898Y67994788D01*
X17376265Y67994758D01*
X17846014Y68188854D01*
X18244816Y67790052D01*
X18244758Y67723735D01*
X18456687Y67210828D01*
X18848764Y66818066D01*
X19361300Y66605242D01*
X19916265Y66604758D01*
X20429172Y66816687D01*
X20821934Y67208764D01*
X21034758Y67721300D01*
X21035242Y68276265D01*
X20823313Y68789172D01*
X20775000Y68837569D01*
X20775000Y69516722D01*
X20851441Y69565910D01*
X20912314Y69655000D01*
X21400000Y69655000D01*
X21834346Y69741397D01*
X22202566Y69987434D01*
X22448603Y70355654D01*
X22506053Y70644474D01*
X22526601Y70665022D01*
X28961763Y70665022D01*
X28961768Y70665021D01*
X29247400Y70721838D01*
X29300443Y70732389D01*
X29587558Y70924232D01*
X33923894Y75260569D01*
X34819755Y75260569D01*
X35055072Y75304847D01*
X35271196Y75443919D01*
X35410645Y75648009D01*
X35931005Y75648009D01*
X26367995Y66085000D01*
X20727652Y66085000D01*
X20431236Y66381934D01*
X19918700Y66594758D01*
X19363735Y66595242D01*
X18850828Y66383313D01*
X18458066Y65991236D01*
X18245242Y65478700D01*
X18244758Y64923735D01*
X18456687Y64410828D01*
X18848764Y64018066D01*
X19205591Y63869898D01*
X18850828Y63723313D01*
X18458066Y63331236D01*
X18245242Y62818700D01*
X18244758Y62263735D01*
X18456687Y61750828D01*
X18848764Y61358066D01*
X19361300Y61145242D01*
X19916265Y61144758D01*
X20429172Y61356687D01*
X20728006Y61655000D01*
X24483609Y61655000D01*
X23453609Y60625000D01*
X20727652Y60625000D01*
X20431236Y60921934D01*
X19918700Y61134758D01*
X19363735Y61135242D01*
X18850828Y60923313D01*
X18458066Y60531236D01*
X18245242Y60018700D01*
X18244758Y59463735D01*
X18456687Y58950828D01*
X18848764Y58558066D01*
X19361300Y58345242D01*
X19916265Y58344758D01*
X20429172Y58556687D01*
X20728006Y58855000D01*
X23820184Y58855000D01*
X23820189Y58854999D01*
X24102673Y58911190D01*
X24158864Y58922367D01*
X24445979Y59114210D01*
X28139999Y62808230D01*
X28139999Y8580004D01*
X28139998Y8579999D01*
X28175294Y8402560D01*
X28207366Y8241324D01*
X28328670Y8059779D01*
X28399209Y7954209D01*
X32604207Y3749212D01*
X32604209Y3749209D01*
X32891324Y3557366D01*
X32947515Y3546189D01*
X33229999Y3489998D01*
X33230004Y3489999D01*
X46243596Y3489999D01*
X46243601Y3489998D01*
X46526085Y3546189D01*
X46582276Y3557366D01*
X46869391Y3749209D01*
X46869392Y3749210D01*
X46963374Y3843193D01*
X56961797Y3843193D01*
X57255508Y3190224D01*
X57776742Y2699358D01*
X58338195Y2466805D01*
X58623000Y2583568D01*
X58623000Y4128000D01*
X58877000Y4128000D01*
X58877000Y2583568D01*
X59161805Y2466805D01*
X59723258Y2699358D01*
X60244492Y3190224D01*
X60538203Y3843193D01*
X60421858Y4128000D01*
X58877000Y4128000D01*
X58623000Y4128000D01*
X57078142Y4128000D01*
X56961797Y3843193D01*
X46963374Y3843193D01*
X48609431Y5489250D01*
X51990000Y5489250D01*
X51990000Y4898691D01*
X52086673Y4665302D01*
X52265301Y4486673D01*
X52498690Y4390000D01*
X52964250Y4390000D01*
X53123000Y4548750D01*
X53123000Y5648000D01*
X53377000Y5648000D01*
X53377000Y4548750D01*
X53535750Y4390000D01*
X54001310Y4390000D01*
X54234699Y4486673D01*
X54413327Y4665302D01*
X54413950Y4666807D01*
X56961797Y4666807D01*
X57078142Y4382000D01*
X58623000Y4382000D01*
X58623000Y5926432D01*
X58877000Y5926432D01*
X58877000Y4382000D01*
X60421858Y4382000D01*
X60538203Y4666807D01*
X60244492Y5319776D01*
X59723258Y5810642D01*
X59161805Y6043195D01*
X58877000Y5926432D01*
X58623000Y5926432D01*
X58338195Y6043195D01*
X57776742Y5810642D01*
X57255508Y5319776D01*
X56961797Y4666807D01*
X54413950Y4666807D01*
X54510000Y4898691D01*
X54510000Y5489250D01*
X54351250Y5648000D01*
X53377000Y5648000D01*
X53123000Y5648000D01*
X52148750Y5648000D01*
X51990000Y5489250D01*
X48609431Y5489250D01*
X51977560Y8857379D01*
X51977560Y7525000D01*
X52021838Y7289683D01*
X52160910Y7073559D01*
X52229006Y7027031D01*
X52086673Y6884698D01*
X51990000Y6651309D01*
X51990000Y6060750D01*
X52148750Y5902000D01*
X53123000Y5902000D01*
X53123000Y5922000D01*
X53377000Y5922000D01*
X53377000Y5902000D01*
X54351250Y5902000D01*
X54510000Y6060750D01*
X54510000Y6289250D01*
X60665000Y6289250D01*
X60665000Y5698691D01*
X60761673Y5465302D01*
X60940301Y5286673D01*
X61173690Y5190000D01*
X61664250Y5190000D01*
X61823000Y5348750D01*
X61823000Y6448000D01*
X62077000Y6448000D01*
X62077000Y5348750D01*
X62235750Y5190000D01*
X62726310Y5190000D01*
X62959699Y5286673D01*
X63138327Y5465302D01*
X63235000Y5698691D01*
X63235000Y6289250D01*
X63076250Y6448000D01*
X62077000Y6448000D01*
X61823000Y6448000D01*
X60823750Y6448000D01*
X60665000Y6289250D01*
X54510000Y6289250D01*
X54510000Y6651309D01*
X54413327Y6884698D01*
X54272090Y7025936D01*
X54326441Y7060910D01*
X54471431Y7273110D01*
X54522440Y7525000D01*
X54522440Y9025000D01*
X54478162Y9260317D01*
X54339090Y9476441D01*
X54135000Y9615890D01*
X54135000Y12407024D01*
X54204312Y12476215D01*
X54479686Y13139388D01*
X54480313Y13857462D01*
X54422927Y13996347D01*
X62349888Y21923309D01*
X62349891Y21923311D01*
X62541734Y22210426D01*
X62609101Y22549101D01*
X62609101Y23228180D01*
X62877000Y24575000D01*
X62877000Y33384995D01*
X62877001Y33385000D01*
X62687000Y34340200D01*
X62687000Y52575000D01*
X62609101Y52966625D01*
X62609101Y53299995D01*
X62609102Y53300000D01*
X62541735Y53638674D01*
X62447314Y53779986D01*
X62372851Y54154335D01*
X61478230Y55493230D01*
X60139335Y56387851D01*
X58639883Y56686110D01*
X58650787Y56697014D01*
X58650790Y56697016D01*
X58842633Y56984131D01*
X58875969Y57151720D01*
X58910001Y57322806D01*
X58910000Y57322811D01*
X58910000Y64015835D01*
X82031628Y40894207D01*
X82319111Y40702117D01*
X84572015Y38449213D01*
X84572017Y38449210D01*
X84859132Y38257367D01*
X85197807Y38190000D01*
X93102560Y38190000D01*
X93102560Y37825000D01*
X93125704Y37702000D01*
X86500000Y37702000D01*
X84920665Y37387851D01*
X83581770Y36493230D01*
X82687149Y35154335D01*
X82373000Y33575000D01*
X82687149Y31995665D01*
X83581770Y30656770D01*
X84920665Y29762149D01*
X86500000Y29448000D01*
X91790466Y29448000D01*
X91537250Y28175000D01*
X91794309Y26882678D01*
X91873000Y26764908D01*
X91873000Y21143670D01*
X88638893Y21143670D01*
X88630793Y21155793D01*
X85905793Y23880793D01*
X85134639Y24396062D01*
X84225000Y24577000D01*
X74915076Y24577000D01*
X74518734Y24847809D01*
X73675000Y25018670D01*
X72175000Y25018670D01*
X71386781Y24870356D01*
X70662850Y24404520D01*
X70177191Y23693734D01*
X70137440Y23497440D01*
X69475000Y23497440D01*
X69239683Y23453162D01*
X69023559Y23314090D01*
X68878569Y23101890D01*
X68875149Y23085000D01*
X64075005Y23085000D01*
X64075000Y23085001D01*
X63792516Y23028810D01*
X63736325Y23017633D01*
X63449210Y22825790D01*
X63449208Y22825787D01*
X58374210Y17750790D01*
X58182367Y17463675D01*
X58182367Y17463674D01*
X58114999Y17125000D01*
X58115000Y17124995D01*
X58115000Y10044877D01*
X58066485Y10024831D01*
X57676539Y9635564D01*
X57465241Y9126702D01*
X57464760Y8575715D01*
X57675169Y8066485D01*
X58064436Y7676539D01*
X58573298Y7465241D01*
X59124285Y7464760D01*
X59633515Y7675169D01*
X60023461Y8064436D01*
X60158647Y8390000D01*
X60677962Y8390000D01*
X60696838Y8289683D01*
X60835910Y8073559D01*
X61048110Y7928569D01*
X61081490Y7921809D01*
X60940301Y7863327D01*
X60761673Y7684698D01*
X60665000Y7451309D01*
X60665000Y6860750D01*
X60823750Y6702000D01*
X61823000Y6702000D01*
X61823000Y6722000D01*
X62077000Y6722000D01*
X62077000Y6702000D01*
X63076250Y6702000D01*
X63235000Y6860750D01*
X63235000Y7451309D01*
X63138327Y7684698D01*
X62959699Y7863327D01*
X62823713Y7919654D01*
X62835317Y7921838D01*
X63051441Y8060910D01*
X63196431Y8273110D01*
X63247440Y8525000D01*
X63247440Y10025000D01*
X63203162Y10260317D01*
X63064090Y10476441D01*
X62851890Y10621431D01*
X62600000Y10672440D01*
X61300000Y10672440D01*
X61064683Y10628162D01*
X60848559Y10489090D01*
X60703569Y10276890D01*
X60679898Y10160000D01*
X59885000Y10160000D01*
X59885000Y13413798D01*
X64193403Y13413798D01*
X64365390Y13084640D01*
X65192346Y12757974D01*
X66081363Y12772635D01*
X66834610Y13084640D01*
X67006597Y13413798D01*
X65600000Y14820395D01*
X64193403Y13413798D01*
X59885000Y13413798D01*
X59885000Y15407654D01*
X63357974Y15407654D01*
X63372635Y14518637D01*
X63684640Y13765390D01*
X64013798Y13593403D01*
X65420395Y15000000D01*
X65779605Y15000000D01*
X67186202Y13593403D01*
X67515360Y13765390D01*
X67842026Y14592346D01*
X67827365Y15481363D01*
X67515360Y16234610D01*
X67186202Y16406597D01*
X65779605Y15000000D01*
X65420395Y15000000D01*
X64013798Y16406597D01*
X63684640Y16234610D01*
X63357974Y15407654D01*
X59885000Y15407654D01*
X59885000Y16586202D01*
X64193403Y16586202D01*
X65600000Y15179605D01*
X67006597Y16586202D01*
X66834610Y16915360D01*
X66007654Y17242026D01*
X65118637Y17227365D01*
X64365390Y16915360D01*
X64193403Y16586202D01*
X59885000Y16586202D01*
X59885000Y16758420D01*
X64441579Y21315000D01*
X68871778Y21315000D01*
X68871838Y21314683D01*
X69010910Y21098559D01*
X69223110Y20953569D01*
X69475000Y20902560D01*
X70128155Y20902560D01*
X70154644Y20761781D01*
X70620480Y20037850D01*
X71331266Y19552191D01*
X72175000Y19381330D01*
X72567667Y19381330D01*
X71529324Y19174791D01*
X70028217Y18171783D01*
X69025209Y16670676D01*
X68673000Y14900000D01*
X69025209Y13129324D01*
X70028217Y11628217D01*
X71529324Y10625209D01*
X73300000Y10273000D01*
X74443434Y10273000D01*
X76953217Y7763217D01*
X78454323Y6760210D01*
X80225000Y6408000D01*
X81995676Y6760210D01*
X82738462Y7256524D01*
X83120480Y6662850D01*
X83831266Y6177191D01*
X84675000Y6006330D01*
X94075000Y6006330D01*
X94863219Y6154644D01*
X95587150Y6620480D01*
X96072809Y7331266D01*
X96243670Y8175000D01*
X96243670Y11982210D01*
X98918230Y14656770D01*
X99133460Y14978885D01*
X99812851Y15995665D01*
X100127000Y17575000D01*
X100127000Y24048000D01*
X103100000Y24048000D01*
X104679335Y24362149D01*
X106018230Y25256770D01*
X106918230Y26156770D01*
X107035560Y26332367D01*
X107812851Y27495665D01*
X108127000Y29075000D01*
X108127000Y45424995D01*
X108127001Y45425000D01*
X107812851Y47004334D01*
X107812851Y47004335D01*
X106918230Y48343230D01*
X106918227Y48343232D01*
X105168230Y50093230D01*
X105165481Y50095067D01*
X103829335Y50987851D01*
X102250000Y51302000D01*
X100185193Y51302000D01*
X100205691Y51332678D01*
X100462750Y52625000D01*
X100205691Y53917322D01*
X99473650Y55012900D01*
X99110414Y55255606D01*
X98918230Y55543230D01*
X97968888Y56177560D01*
X98250000Y56177560D01*
X98485317Y56221838D01*
X98701441Y56360910D01*
X98846431Y56573110D01*
X98897440Y56825000D01*
X98897440Y59325000D01*
X98853162Y59560317D01*
X98714090Y59776441D01*
X98501890Y59921431D01*
X98250000Y59972440D01*
X94354139Y59972440D01*
X90462330Y63864250D01*
X93615000Y63864250D01*
X93615000Y63273691D01*
X93711673Y63040302D01*
X93890301Y62861673D01*
X94123690Y62765000D01*
X94614250Y62765000D01*
X94773000Y62923750D01*
X94773000Y64023000D01*
X95027000Y64023000D01*
X95027000Y62923750D01*
X95185750Y62765000D01*
X95676310Y62765000D01*
X95909699Y62861673D01*
X96088327Y63040302D01*
X96185000Y63273691D01*
X96185000Y63864250D01*
X96026250Y64023000D01*
X95027000Y64023000D01*
X94773000Y64023000D01*
X93773750Y64023000D01*
X93615000Y63864250D01*
X90462330Y63864250D01*
X81585790Y72740790D01*
X81566665Y72753569D01*
X81298675Y72932633D01*
X81242484Y72943810D01*
X80960000Y73000001D01*
X80959995Y73000000D01*
X74537310Y73000000D01*
X74450648Y73129698D01*
X74068562Y73385000D01*
X74450648Y73640302D01*
X74717718Y74040000D01*
X77651477Y74040000D01*
X77939436Y73751539D01*
X78448298Y73540241D01*
X78999285Y73539760D01*
X79508515Y73750169D01*
X79898461Y74139436D01*
X80109759Y74648298D01*
X80109926Y74840000D01*
X81099995Y74840000D01*
X81100000Y74839999D01*
X81382484Y74896190D01*
X81438675Y74907367D01*
X81725790Y75099210D01*
X81725791Y75099211D01*
X83829139Y77202560D01*
X86425000Y77202560D01*
X86660317Y77246838D01*
X86876441Y77385910D01*
X86971990Y77525750D01*
X86986673Y77490301D01*
X87165302Y77311673D01*
X87398691Y77215000D01*
X88839250Y77215000D01*
X88998000Y77373750D01*
X88998000Y78973000D01*
X88978000Y78973000D01*
X88978000Y79227000D01*
X88998000Y79227000D01*
X88998000Y80826250D01*
X89252000Y80826250D01*
X89252000Y79227000D01*
X91201250Y79227000D01*
X91360000Y79385750D01*
X91360000Y80476310D01*
X91263327Y80709699D01*
X91084698Y80888327D01*
X90851309Y80985000D01*
X89410750Y80985000D01*
X89252000Y80826250D01*
X88998000Y80826250D01*
X88839250Y80985000D01*
X87398691Y80985000D01*
X87165302Y80888327D01*
X86986673Y80709699D01*
X86971577Y80673253D01*
X86889090Y80801441D01*
X86676890Y80946431D01*
X86425000Y80997440D01*
X83225000Y80997440D01*
X82989683Y80953162D01*
X82773559Y80814090D01*
X82628569Y80601890D01*
X82577560Y80350000D01*
X82577560Y79535000D01*
X81547038Y79535000D01*
X81528162Y79635317D01*
X81389090Y79851441D01*
X81320994Y79897969D01*
X81463327Y80040302D01*
X81560000Y80273691D01*
X81560000Y80864250D01*
X81401250Y81023000D01*
X80427000Y81023000D01*
X80427000Y81003000D01*
X80173000Y81003000D01*
X80173000Y81023000D01*
X79198750Y81023000D01*
X79060000Y80884250D01*
X79060000Y80914250D01*
X78901250Y81073000D01*
X77902000Y81073000D01*
X77902000Y81053000D01*
X77648000Y81053000D01*
X77648000Y81073000D01*
X76648750Y81073000D01*
X76490000Y80914250D01*
X76490000Y80323691D01*
X76586673Y80090302D01*
X76765301Y79911673D01*
X76901287Y79855346D01*
X76889683Y79853162D01*
X76673559Y79714090D01*
X76528569Y79501890D01*
X76525149Y79485000D01*
X76072038Y79485000D01*
X76053162Y79585317D01*
X75914090Y79801441D01*
X75844289Y79849134D01*
X75901441Y79885910D01*
X76046431Y80098110D01*
X76097440Y80350000D01*
X76097440Y81850000D01*
X76054857Y82076309D01*
X76490000Y82076309D01*
X76490000Y81485750D01*
X76648750Y81327000D01*
X77648000Y81327000D01*
X77648000Y82426250D01*
X77902000Y82426250D01*
X77902000Y81327000D01*
X78901250Y81327000D01*
X79040000Y81465750D01*
X79040000Y81435750D01*
X79198750Y81277000D01*
X80173000Y81277000D01*
X80173000Y82376250D01*
X80427000Y82376250D01*
X80427000Y81277000D01*
X81401250Y81277000D01*
X81560000Y81435750D01*
X81560000Y82026309D01*
X81463327Y82259698D01*
X81284699Y82438327D01*
X81051310Y82535000D01*
X80585750Y82535000D01*
X80427000Y82376250D01*
X80173000Y82376250D01*
X80014250Y82535000D01*
X79548690Y82535000D01*
X79315301Y82438327D01*
X79136673Y82259698D01*
X79060000Y82074593D01*
X79060000Y82076309D01*
X78963327Y82309698D01*
X78784699Y82488327D01*
X78551310Y82585000D01*
X78060750Y82585000D01*
X77902000Y82426250D01*
X77648000Y82426250D01*
X77489250Y82585000D01*
X76998690Y82585000D01*
X76765301Y82488327D01*
X76586673Y82309698D01*
X76490000Y82076309D01*
X76054857Y82076309D01*
X76053162Y82085317D01*
X75914090Y82301441D01*
X75710000Y82440890D01*
X75710000Y83103808D01*
X75876441Y83210910D01*
X76021431Y83423110D01*
X76072440Y83675000D01*
X76072440Y84975000D01*
X76028162Y85210317D01*
X75889090Y85426441D01*
X75676890Y85571431D01*
X75425000Y85622440D01*
X74771845Y85622440D01*
X74745356Y85763219D01*
X74279520Y86487150D01*
X73568734Y86972809D01*
X73360389Y87015000D01*
X85269522Y87015000D01*
X85567630Y86716371D01*
X86080900Y86503243D01*
X86505548Y86502872D01*
X96234208Y76774213D01*
X96234210Y76774210D01*
X96521325Y76582367D01*
X96860000Y76515000D01*
X98533420Y76515000D01*
X99515000Y75533421D01*
X99515000Y75222038D01*
X99414683Y75203162D01*
X99198559Y75064090D01*
X99152031Y74995994D01*
X99009698Y75138327D01*
X98776309Y75235000D01*
X98185750Y75235000D01*
X98027000Y75076250D01*
X98027000Y74102000D01*
X98047000Y74102000D01*
X98047000Y73848000D01*
X98027000Y73848000D01*
X98027000Y72873750D01*
X98185750Y72715000D01*
X98776309Y72715000D01*
X99009698Y72811673D01*
X99150936Y72952910D01*
X99185910Y72898559D01*
X99398110Y72753569D01*
X99515000Y72729898D01*
X99515000Y71070005D01*
X99514999Y71070000D01*
X99556591Y70860910D01*
X99582367Y70731325D01*
X99746955Y70485000D01*
X99749545Y70481124D01*
X99620860Y70352440D01*
X99575000Y70352440D01*
X99339683Y70308162D01*
X99123559Y70169090D01*
X98978569Y69956890D01*
X98950824Y69819880D01*
X98928162Y69940317D01*
X98789090Y70156441D01*
X98576890Y70301431D01*
X98325000Y70352440D01*
X97675000Y70352440D01*
X97439683Y70308162D01*
X97350685Y70250894D01*
X95000790Y72600790D01*
X94887788Y72676295D01*
X94853162Y72860317D01*
X94714090Y73076441D01*
X94501890Y73221431D01*
X94385000Y73245102D01*
X94385000Y73689250D01*
X96515000Y73689250D01*
X96515000Y73223690D01*
X96611673Y72990301D01*
X96790302Y72811673D01*
X97023691Y72715000D01*
X97614250Y72715000D01*
X97773000Y72873750D01*
X97773000Y73848000D01*
X96673750Y73848000D01*
X96515000Y73689250D01*
X94385000Y73689250D01*
X94385000Y74726310D01*
X96515000Y74726310D01*
X96515000Y74260750D01*
X96673750Y74102000D01*
X97773000Y74102000D01*
X97773000Y75076250D01*
X97614250Y75235000D01*
X97023691Y75235000D01*
X96790302Y75138327D01*
X96611673Y74959699D01*
X96515000Y74726310D01*
X94385000Y74726310D01*
X94385000Y76885655D01*
X94385001Y76885660D01*
X94317633Y77224335D01*
X94298774Y77252560D01*
X94125790Y77511450D01*
X94125787Y77511452D01*
X94086450Y77550790D01*
X94006619Y77604131D01*
X93799335Y77742633D01*
X93706139Y77761171D01*
X93476708Y77806809D01*
X93185564Y78098461D01*
X92676702Y78309759D01*
X92125715Y78310240D01*
X91616485Y78099831D01*
X91360000Y77843793D01*
X91360000Y78814250D01*
X91201250Y78973000D01*
X89252000Y78973000D01*
X89252000Y77373750D01*
X89410750Y77215000D01*
X90851309Y77215000D01*
X91055963Y77299770D01*
X91015241Y77201702D01*
X91014760Y76650715D01*
X91225169Y76141485D01*
X91614436Y75751539D01*
X92123298Y75540241D01*
X92615000Y75539812D01*
X92615000Y73247038D01*
X92514683Y73228162D01*
X92298559Y73089090D01*
X92153569Y72876890D01*
X92150919Y72863803D01*
X92014090Y73076441D01*
X91801890Y73221431D01*
X91550000Y73272440D01*
X90050000Y73272440D01*
X89814683Y73228162D01*
X89598559Y73089090D01*
X89453569Y72876890D01*
X89402560Y72625000D01*
X89402560Y71325000D01*
X89446838Y71089683D01*
X89585910Y70873559D01*
X89744518Y70765186D01*
X89548559Y70639090D01*
X89403569Y70426890D01*
X89352560Y70175000D01*
X89352560Y68675000D01*
X89396838Y68439683D01*
X89535910Y68223559D01*
X89748110Y68078569D01*
X89761197Y68075919D01*
X89548559Y67939090D01*
X89403569Y67726890D01*
X89352560Y67475000D01*
X89352560Y65975000D01*
X89396838Y65739683D01*
X89535910Y65523559D01*
X89748110Y65378569D01*
X90000000Y65327560D01*
X91300000Y65327560D01*
X91535317Y65371838D01*
X91751441Y65510910D01*
X91896431Y65723110D01*
X91920102Y65840000D01*
X93662721Y65840000D01*
X93785910Y65648559D01*
X93998110Y65503569D01*
X94031490Y65496809D01*
X93890301Y65438327D01*
X93711673Y65259698D01*
X93615000Y65026309D01*
X93615000Y64435750D01*
X93773750Y64277000D01*
X94773000Y64277000D01*
X94773000Y64297000D01*
X95027000Y64297000D01*
X95027000Y64277000D01*
X96026250Y64277000D01*
X96185000Y64435750D01*
X96185000Y65026309D01*
X96088327Y65259698D01*
X95909699Y65438327D01*
X95773713Y65494654D01*
X95785317Y65496838D01*
X96001441Y65635910D01*
X96146431Y65848110D01*
X96195415Y66090000D01*
X97148852Y66090000D01*
X97210910Y65993559D01*
X97423110Y65848569D01*
X97675000Y65797560D01*
X98325000Y65797560D01*
X98465086Y65823919D01*
X98498690Y65810000D01*
X98664250Y65810000D01*
X98823000Y65968750D01*
X98823000Y66049051D01*
X98921431Y66193110D01*
X98949176Y66330120D01*
X98971838Y66209683D01*
X99077000Y66046257D01*
X99077000Y65968750D01*
X99235750Y65810000D01*
X99401310Y65810000D01*
X99438171Y65825268D01*
X99575000Y65797560D01*
X99825860Y65797560D01*
X100854208Y64769213D01*
X100854210Y64769210D01*
X101141325Y64577367D01*
X101197516Y64566190D01*
X101480000Y64509999D01*
X101480005Y64510000D01*
X104410589Y64510000D01*
X104564591Y64279519D01*
X105062581Y63946773D01*
X105650000Y63829928D01*
X106237419Y63946773D01*
X106735409Y64279519D01*
X107068155Y64777509D01*
X107185000Y65364928D01*
X107185000Y65425072D01*
X107068155Y66012491D01*
X106735409Y66510481D01*
X106497418Y66669501D01*
X106887966Y67027424D01*
X107141046Y67570258D01*
X107020997Y67808000D01*
X105777000Y67808000D01*
X105777000Y67788000D01*
X105523000Y67788000D01*
X105523000Y67808000D01*
X104279003Y67808000D01*
X104158954Y67570258D01*
X104412034Y67027424D01*
X104802582Y66669501D01*
X104564591Y66510481D01*
X104410589Y66280000D01*
X101846579Y66280000D01*
X100872440Y67254140D01*
X100872440Y67505000D01*
X100828162Y67740317D01*
X100689090Y67956441D01*
X100513768Y68076233D01*
X100676441Y68180910D01*
X100821431Y68393110D01*
X100872440Y68645000D01*
X100872440Y69100860D01*
X101361579Y69590000D01*
X104102560Y69590000D01*
X104102560Y69575000D01*
X104146838Y69339683D01*
X104285910Y69123559D01*
X104498110Y68978569D01*
X104549146Y68968234D01*
X104412034Y68842576D01*
X104158954Y68299742D01*
X104279003Y68062000D01*
X105523000Y68062000D01*
X105523000Y68082000D01*
X105777000Y68082000D01*
X105777000Y68062000D01*
X107020997Y68062000D01*
X107141046Y68299742D01*
X106887966Y68842576D01*
X106753462Y68965844D01*
X106785317Y68971838D01*
X107001441Y69110910D01*
X107146431Y69323110D01*
X107197440Y69575000D01*
X107197440Y71375000D01*
X107153162Y71610317D01*
X107014090Y71826441D01*
X106801890Y71971431D01*
X106550000Y72022440D01*
X104750000Y72022440D01*
X104514683Y71978162D01*
X104298559Y71839090D01*
X104153569Y71626890D01*
X104102560Y71375000D01*
X104102560Y71360000D01*
X101361579Y71360000D01*
X101285000Y71436580D01*
X101285000Y72727962D01*
X101385317Y72746838D01*
X101601441Y72885910D01*
X101746431Y73098110D01*
X101797440Y73350000D01*
X101797440Y74600000D01*
X101753162Y74835317D01*
X101614090Y75051441D01*
X101401890Y75196431D01*
X101285000Y75220102D01*
X101285000Y75900000D01*
X101217633Y76238675D01*
X101025790Y76525790D01*
X101025787Y76525792D01*
X99525790Y78025790D01*
X99519489Y78030000D01*
X99238675Y78217633D01*
X99182484Y78228810D01*
X98900000Y78285001D01*
X98899995Y78285000D01*
X97226579Y78285000D01*
X89008580Y86503000D01*
X89027002Y86503000D01*
X89027002Y86667523D01*
X89243072Y86545769D01*
X89735199Y86780142D01*
X90100174Y87185003D01*
X90154638Y87316501D01*
X90424803Y86912172D01*
X90878022Y86609340D01*
X91412631Y86503000D01*
X91467369Y86503000D01*
X92001978Y86609340D01*
X92455197Y86912172D01*
X92710000Y87293511D01*
X92964803Y86912172D01*
X93418022Y86609340D01*
X93952631Y86503000D01*
X94007369Y86503000D01*
X94541978Y86609340D01*
X94995197Y86912172D01*
X95250000Y87293511D01*
X95504803Y86912172D01*
X95958022Y86609340D01*
X96492631Y86503000D01*
X96547369Y86503000D01*
X97081978Y86609340D01*
X97535197Y86912172D01*
X97795586Y87301870D01*
X97874990Y87109697D01*
X98267630Y86716371D01*
X98780900Y86503243D01*
X99336661Y86502758D01*
X99850303Y86714990D01*
X100243629Y87107630D01*
X100324334Y87301990D01*
X100584803Y86912172D01*
X101038022Y86609340D01*
X101572631Y86503000D01*
X101627369Y86503000D01*
X102161978Y86609340D01*
X102615197Y86912172D01*
X102885362Y87316501D01*
X102939826Y87185003D01*
X103304801Y86780142D01*
X103796928Y86545769D01*
X104013000Y86667524D01*
X104013000Y87773000D01*
X103993000Y87773000D01*
X103993000Y88027000D01*
X104013000Y88027000D01*
X104013000Y89132476D01*
X104267000Y89132476D01*
X104267000Y88027000D01*
X104287000Y88027000D01*
X104287000Y87773000D01*
X104267000Y87773000D01*
X104267000Y86667524D01*
X104483072Y86545769D01*
X104975199Y86780142D01*
X105340174Y87185003D01*
X105402098Y87334513D01*
X105494990Y87109697D01*
X105795000Y86809163D01*
X105795000Y84604162D01*
X105789683Y84603162D01*
X105573559Y84464090D01*
X105428569Y84251890D01*
X105377560Y84000000D01*
X105377560Y83193558D01*
X105257367Y83013675D01*
X105257367Y83013674D01*
X105189999Y82675000D01*
X105190000Y82674995D01*
X105190000Y81098523D01*
X104901539Y80810564D01*
X104690241Y80301702D01*
X104689760Y79750715D01*
X104900169Y79241485D01*
X105289436Y78851539D01*
X105798298Y78640241D01*
X106349285Y78639760D01*
X106858515Y78850169D01*
X107248461Y79239436D01*
X107459759Y79748298D01*
X107460240Y80299285D01*
X107249831Y80808515D01*
X106960000Y81098852D01*
X106960000Y82102560D01*
X107525000Y82102560D01*
X107760317Y82146838D01*
X107976441Y82285910D01*
X108022969Y82354006D01*
X108165302Y82211673D01*
X108398691Y82115000D01*
X108989250Y82115000D01*
X109148000Y82273750D01*
X109148000Y83248000D01*
X109402000Y83248000D01*
X109402000Y82273750D01*
X109560750Y82115000D01*
X110151309Y82115000D01*
X110384698Y82211673D01*
X110563327Y82390301D01*
X110660000Y82623690D01*
X110660000Y83089250D01*
X110501250Y83248000D01*
X109402000Y83248000D01*
X109148000Y83248000D01*
X109128000Y83248000D01*
X109128000Y83502000D01*
X109148000Y83502000D01*
X109148000Y84476250D01*
X109402000Y84476250D01*
X109402000Y83502000D01*
X110501250Y83502000D01*
X110660000Y83660750D01*
X110660000Y84126310D01*
X110563327Y84359699D01*
X110384698Y84538327D01*
X110151309Y84635000D01*
X109560750Y84635000D01*
X109402000Y84476250D01*
X109148000Y84476250D01*
X108989250Y84635000D01*
X108398691Y84635000D01*
X108165302Y84538327D01*
X108024064Y84397090D01*
X107989090Y84451441D01*
X107776890Y84596431D01*
X107565000Y84639340D01*
X107565000Y86809522D01*
X107675457Y86919787D01*
X108419392Y86919787D01*
X108488857Y86677603D01*
X109012302Y86490856D01*
X109567368Y86518638D01*
X109951143Y86677603D01*
X110020608Y86919787D01*
X109220000Y87720395D01*
X108419392Y86919787D01*
X107675457Y86919787D01*
X107863629Y87107630D01*
X107943395Y87299727D01*
X107997603Y87168857D01*
X108239787Y87099392D01*
X109040395Y87900000D01*
X109399605Y87900000D01*
X110200213Y87099392D01*
X110442397Y87168857D01*
X110629144Y87692302D01*
X110601362Y88247368D01*
X110442397Y88631143D01*
X110200213Y88700608D01*
X109399605Y87900000D01*
X109040395Y87900000D01*
X108239787Y88700608D01*
X107997603Y88631143D01*
X107947491Y88490682D01*
X107865010Y88690303D01*
X107675432Y88880213D01*
X108419392Y88880213D01*
X109220000Y88079605D01*
X110020608Y88880213D01*
X109951143Y89122397D01*
X109427698Y89309144D01*
X108872632Y89281362D01*
X108488857Y89122397D01*
X108419392Y88880213D01*
X107675432Y88880213D01*
X107472370Y89083629D01*
X106959100Y89296757D01*
X106403339Y89297242D01*
X105889697Y89085010D01*
X105496371Y88692370D01*
X105402130Y88465412D01*
X105340174Y88614997D01*
X104975199Y89019858D01*
X104483072Y89254231D01*
X104267000Y89132476D01*
X104013000Y89132476D01*
X103796928Y89254231D01*
X103304801Y89019858D01*
X102939826Y88614997D01*
X102885362Y88483499D01*
X102615197Y88887828D01*
X102485000Y88974823D01*
X102485000Y91299995D01*
X102485001Y91300000D01*
X102417633Y91638674D01*
X102417633Y91638675D01*
X102225790Y91925790D01*
X102225787Y91925792D01*
X99325779Y94825801D01*
X99213533Y94900801D01*
X99038664Y95017644D01*
X98982473Y95028821D01*
X98699989Y95085012D01*
X98699984Y95085011D01*
X93437182Y95085011D01*
X92721382Y95800812D01*
X92434267Y95992655D01*
X92378076Y96003832D01*
X92095592Y96060023D01*
X92095587Y96060022D01*
X82402220Y96060022D01*
X82402215Y96060023D01*
X82063540Y95992655D01*
X81776425Y95800812D01*
X81776423Y95800809D01*
X76731935Y90756322D01*
X76759759Y90823330D01*
X76760240Y91374317D01*
X76549831Y91883547D01*
X76160564Y92273493D01*
X75651702Y92484791D01*
X75100715Y92485272D01*
X74591485Y92274863D01*
X74301148Y91985032D01*
X18730100Y91985032D01*
X18730095Y91985033D01*
X18447611Y91928842D01*
X18391420Y91917665D01*
X18104305Y91725822D01*
X18104303Y91725819D01*
X16709481Y90330998D01*
X16517638Y90043883D01*
X16516606Y90038696D01*
X16450270Y89705208D01*
X16450271Y89705203D01*
X16450271Y88648351D01*
X12819331Y85017412D01*
X12627488Y84730297D01*
X12616311Y84674106D01*
X12560120Y84391622D01*
X2955444Y84391622D01*
X2936071Y96790000D01*
X115141106Y96790000D01*
X115206268Y54977669D01*
X115206268Y54977669D01*
G37*
X115206268Y54977669D02*
X114928166Y54922351D01*
X114138195Y54394509D01*
X113610353Y53604538D01*
X113425000Y52672704D01*
X113425000Y52577296D01*
X113610353Y51645462D01*
X114138195Y50855491D01*
X114928166Y50327649D01*
X115213603Y50270872D01*
X115235869Y35983557D01*
X114928166Y35922351D01*
X114138195Y35394509D01*
X113610353Y34604538D01*
X113425000Y33672704D01*
X113425000Y33577296D01*
X113610353Y32645462D01*
X114138195Y31855491D01*
X114928166Y31327649D01*
X115243223Y31264980D01*
X115288891Y1961410D01*
X3083894Y2183598D01*
X3007895Y50823560D01*
X15473165Y50823560D01*
X15682353Y50462711D01*
X16619650Y50085176D01*
X17630077Y50095067D01*
X18517647Y50462711D01*
X18726835Y50823560D01*
X17100000Y52450395D01*
X15473165Y50823560D01*
X3007895Y50823560D01*
X3004321Y53110350D01*
X14555176Y53110350D01*
X14565067Y52099923D01*
X14932711Y51212353D01*
X15293560Y51003165D01*
X16920395Y52630000D01*
X17279605Y52630000D01*
X18906440Y51003165D01*
X19267289Y51212353D01*
X19644824Y52149650D01*
X19634933Y53160077D01*
X19267289Y54047647D01*
X18906440Y54256835D01*
X17279605Y52630000D01*
X16920395Y52630000D01*
X15293560Y54256835D01*
X14932711Y54047647D01*
X14555176Y53110350D01*
X3004321Y53110350D01*
X3002249Y54436440D01*
X15473165Y54436440D01*
X17100000Y52809605D01*
X18726835Y54436440D01*
X18517647Y54797289D01*
X17580350Y55174824D01*
X16569923Y55164933D01*
X15682353Y54797289D01*
X15473165Y54436440D01*
X3002249Y54436440D01*
X2955444Y84391622D01*
X12560120Y84391622D01*
X12560121Y84391617D01*
X12560121Y64794884D01*
X12560120Y64794879D01*
X12607438Y64557003D01*
X12627488Y64456204D01*
X12747195Y64277049D01*
X12819331Y64169089D01*
X15705124Y61283297D01*
X15704758Y60863735D01*
X15916687Y60350828D01*
X16308764Y59958066D01*
X16821300Y59745242D01*
X17376265Y59744758D01*
X17889172Y59956687D01*
X18281934Y60348764D01*
X18494758Y60861300D01*
X18495242Y61416265D01*
X18283313Y61929172D01*
X17891236Y62321934D01*
X17378700Y62534758D01*
X17134424Y62534971D01*
X17447049Y62550659D01*
X17829941Y62709258D01*
X17899159Y62951236D01*
X17100000Y63750395D01*
X17085858Y63736252D01*
X16906253Y63915857D01*
X16920395Y63930000D01*
X17279605Y63930000D01*
X18078764Y63130841D01*
X18320742Y63200059D01*
X18507155Y63722780D01*
X18479341Y64277049D01*
X18320742Y64659941D01*
X18078764Y64729159D01*
X17279605Y63930000D01*
X16920395Y63930000D01*
X16121236Y64729159D01*
X15879258Y64659941D01*
X15692845Y64137220D01*
X15710728Y63780851D01*
X14330121Y65161459D01*
X14330121Y65621236D01*
X16300841Y65621236D01*
X16370059Y65379258D01*
X16666512Y65273537D01*
X16370059Y65150742D01*
X16300841Y64908764D01*
X17100000Y64109605D01*
X17899159Y64908764D01*
X17829941Y65150742D01*
X17533488Y65256463D01*
X17829941Y65379258D01*
X17899159Y65621236D01*
X17100000Y66420395D01*
X16300841Y65621236D01*
X14330121Y65621236D01*
X14330121Y66807220D01*
X15692845Y66807220D01*
X15720659Y66252951D01*
X15879258Y65870059D01*
X16121236Y65800841D01*
X16920395Y66600000D01*
X17279605Y66600000D01*
X18078764Y65800841D01*
X18320742Y65870059D01*
X18507155Y66392780D01*
X18479341Y66947049D01*
X18320742Y67329941D01*
X18078764Y67399159D01*
X17279605Y66600000D01*
X16920395Y66600000D01*
X16121236Y67399159D01*
X15879258Y67329941D01*
X15692845Y66807220D01*
X14330121Y66807220D01*
X14330121Y76223560D01*
X15473165Y76223560D01*
X15682353Y75862711D01*
X16619650Y75485176D01*
X17630077Y75495067D01*
X18517647Y75862711D01*
X18726835Y76223560D01*
X17100000Y77850395D01*
X15473165Y76223560D01*
X14330121Y76223560D01*
X14330121Y78510350D01*
X14555176Y78510350D01*
X14565067Y77499923D01*
X14932711Y76612353D01*
X15293560Y76403165D01*
X16920395Y78030000D01*
X17279605Y78030000D01*
X18906440Y76403165D01*
X19267289Y76612353D01*
X19537951Y77284319D01*
X30184755Y77284319D01*
X30184755Y76818759D01*
X30343505Y76660009D01*
X31442755Y76660009D01*
X31442755Y77634259D01*
X31284005Y77793009D01*
X30693446Y77793009D01*
X30460057Y77696336D01*
X30281428Y77517708D01*
X30184755Y77284319D01*
X19537951Y77284319D01*
X19644824Y77549650D01*
X19634933Y78560077D01*
X19267289Y79447647D01*
X18906440Y79656835D01*
X17279605Y78030000D01*
X16920395Y78030000D01*
X15293560Y79656835D01*
X14932711Y79447647D01*
X14555176Y78510350D01*
X14330121Y78510350D01*
X14330121Y79836440D01*
X15473165Y79836440D01*
X17100000Y78209605D01*
X18726835Y79836440D01*
X18517647Y80197289D01*
X17580350Y80574824D01*
X16569923Y80564933D01*
X15682353Y80197289D01*
X15473165Y79836440D01*
X14330121Y79836440D01*
X14330121Y84025042D01*
X15238087Y84933009D01*
X25872315Y84933009D01*
X25872315Y81133009D01*
X25916593Y80897692D01*
X26055665Y80681568D01*
X26267865Y80536578D01*
X26519755Y80485569D01*
X28519755Y80485569D01*
X28755072Y80529847D01*
X28971196Y80668919D01*
X29116186Y80881119D01*
X29167195Y81133009D01*
X29167195Y84933009D01*
X29122917Y85168326D01*
X28983845Y85384450D01*
X28771645Y85529440D01*
X28519755Y85580449D01*
X26519755Y85580449D01*
X26284438Y85536171D01*
X26068314Y85397099D01*
X25923324Y85184899D01*
X25872315Y84933009D01*
X15238087Y84933009D01*
X15847333Y85542255D01*
X20921861Y85542255D01*
X20995995Y85296136D01*
X21533223Y85103035D01*
X22103454Y85130222D01*
X22504005Y85296136D01*
X22578139Y85542255D01*
X21750000Y86370395D01*
X20921861Y85542255D01*
X15847333Y85542255D01*
X17071855Y86766777D01*
X20303035Y86766777D01*
X20330222Y86196546D01*
X20496136Y85795995D01*
X20742255Y85721861D01*
X21570395Y86550000D01*
X21929605Y86550000D01*
X22757745Y85721861D01*
X23003864Y85795995D01*
X23196965Y86333223D01*
X23169778Y86903454D01*
X23003864Y87304005D01*
X22757745Y87378139D01*
X21929605Y86550000D01*
X21570395Y86550000D01*
X20742255Y87378139D01*
X20496136Y87304005D01*
X20303035Y86766777D01*
X17071855Y86766777D01*
X17862823Y87557745D01*
X20921861Y87557745D01*
X21750000Y86729605D01*
X22578139Y87557745D01*
X22504005Y87803864D01*
X21966777Y87996965D01*
X21396546Y87969778D01*
X20995995Y87803864D01*
X20921861Y87557745D01*
X17862823Y87557745D01*
X17961058Y87655980D01*
X17961061Y87655982D01*
X18152904Y87943097D01*
X18164081Y87999288D01*
X18220272Y88281772D01*
X18220271Y88281777D01*
X18220271Y88747259D01*
X29734755Y88747259D01*
X29734755Y88256699D01*
X29831428Y88023310D01*
X30010057Y87844682D01*
X30243446Y87748009D01*
X30834005Y87748009D01*
X30992755Y87906759D01*
X30992755Y88906009D01*
X29893505Y88906009D01*
X29734755Y88747259D01*
X18220271Y88747259D01*
X18220271Y89338628D01*
X19096674Y90215032D01*
X30003753Y90215032D01*
X29831428Y90042708D01*
X29734755Y89809319D01*
X29734755Y89318759D01*
X29893505Y89160009D01*
X30992755Y89160009D01*
X30992755Y89180009D01*
X31246755Y89180009D01*
X31246755Y89160009D01*
X31266755Y89160009D01*
X31266755Y88906009D01*
X31246755Y88906009D01*
X31246755Y87906759D01*
X31405505Y87748009D01*
X31996064Y87748009D01*
X32229453Y87844682D01*
X32408082Y88023310D01*
X32464409Y88159296D01*
X32466593Y88147692D01*
X32605665Y87931568D01*
X32817865Y87786578D01*
X32934755Y87762907D01*
X32934755Y86730449D01*
X32819755Y86730449D01*
X32584438Y86686171D01*
X32368314Y86547099D01*
X32223324Y86334899D01*
X32172315Y86083009D01*
X32172315Y84583009D01*
X32216593Y84347692D01*
X32323514Y84181532D01*
X32223324Y84034899D01*
X32172315Y83783009D01*
X32172315Y82283009D01*
X32216593Y82047692D01*
X32323514Y81881532D01*
X32223324Y81734899D01*
X32172315Y81483009D01*
X32172315Y80587149D01*
X31953175Y80368009D01*
X24383570Y80368009D01*
X22979675Y81771904D01*
X23001441Y81785910D01*
X23146431Y81998110D01*
X23197440Y82250000D01*
X23197440Y83850000D01*
X23153162Y84085317D01*
X23014090Y84301441D01*
X22801890Y84446431D01*
X22550000Y84497440D01*
X20950000Y84497440D01*
X20714683Y84453162D01*
X20498559Y84314090D01*
X20353569Y84101890D01*
X20302560Y83850000D01*
X20302560Y82250000D01*
X20346838Y82014683D01*
X20485910Y81798559D01*
X20698110Y81653569D01*
X20891991Y81614307D01*
X20904655Y81550642D01*
X20932367Y81411325D01*
X21084922Y81183009D01*
X21124210Y81124210D01*
X23391199Y78857222D01*
X23391201Y78857219D01*
X23659816Y78677737D01*
X23678316Y78665376D01*
X24016991Y78598009D01*
X32319750Y78598009D01*
X32319755Y78598008D01*
X32606262Y78654999D01*
X32658430Y78665376D01*
X32934755Y78850009D01*
X32934755Y77664853D01*
X32868314Y77622099D01*
X32821786Y77554003D01*
X32679453Y77696336D01*
X32446064Y77793009D01*
X31855505Y77793009D01*
X31696755Y77634259D01*
X31696755Y76660009D01*
X31716755Y76660009D01*
X31716755Y76406009D01*
X31696755Y76406009D01*
X31696755Y76386009D01*
X31442755Y76386009D01*
X31442755Y76406009D01*
X30343505Y76406009D01*
X30184755Y76247259D01*
X30184755Y75781699D01*
X30281428Y75548310D01*
X30460057Y75369682D01*
X30693446Y75273009D01*
X31284005Y75273009D01*
X31442753Y75431757D01*
X31442753Y75282586D01*
X28595188Y72435022D01*
X22160022Y72435022D01*
X21821347Y72367655D01*
X21534232Y72175812D01*
X21534230Y72175809D01*
X21283421Y71925000D01*
X20913278Y71925000D01*
X20864090Y72001441D01*
X20651890Y72146431D01*
X20400000Y72197440D01*
X18880000Y72197440D01*
X18644683Y72153162D01*
X18428559Y72014090D01*
X18283569Y71801890D01*
X18232560Y71550000D01*
X18232560Y70987692D01*
X17838641Y70593773D01*
X17378700Y70784758D01*
X16823735Y70785242D01*
X16310828Y70573313D01*
X15918066Y70181236D01*
X15705242Y69668700D01*
X15704758Y69113735D01*
X15916687Y68600828D01*
X16308764Y68208066D01*
X16821300Y67995242D01*
X17065576Y67995029D01*
X16752951Y67979341D01*
X16370059Y67820742D01*
X16300841Y67578764D01*
X17100000Y66779605D01*
X17899159Y67578764D01*
X17829941Y67820742D01*
X17341898Y67994788D01*
X17376265Y67994758D01*
X17846014Y68188854D01*
X18244816Y67790052D01*
X18244758Y67723735D01*
X18456687Y67210828D01*
X18848764Y66818066D01*
X19361300Y66605242D01*
X19916265Y66604758D01*
X20429172Y66816687D01*
X20821934Y67208764D01*
X21034758Y67721300D01*
X21035242Y68276265D01*
X20823313Y68789172D01*
X20775000Y68837569D01*
X20775000Y69516722D01*
X20851441Y69565910D01*
X20912314Y69655000D01*
X21400000Y69655000D01*
X21834346Y69741397D01*
X22202566Y69987434D01*
X22448603Y70355654D01*
X22506053Y70644474D01*
X22526601Y70665022D01*
X28961763Y70665022D01*
X28961768Y70665021D01*
X29247400Y70721838D01*
X29300443Y70732389D01*
X29587558Y70924232D01*
X33923894Y75260569D01*
X34819755Y75260569D01*
X35055072Y75304847D01*
X35271196Y75443919D01*
X35410645Y75648009D01*
X35931005Y75648009D01*
X26367995Y66085000D01*
X20727652Y66085000D01*
X20431236Y66381934D01*
X19918700Y66594758D01*
X19363735Y66595242D01*
X18850828Y66383313D01*
X18458066Y65991236D01*
X18245242Y65478700D01*
X18244758Y64923735D01*
X18456687Y64410828D01*
X18848764Y64018066D01*
X19205591Y63869898D01*
X18850828Y63723313D01*
X18458066Y63331236D01*
X18245242Y62818700D01*
X18244758Y62263735D01*
X18456687Y61750828D01*
X18848764Y61358066D01*
X19361300Y61145242D01*
X19916265Y61144758D01*
X20429172Y61356687D01*
X20728006Y61655000D01*
X24483609Y61655000D01*
X23453609Y60625000D01*
X20727652Y60625000D01*
X20431236Y60921934D01*
X19918700Y61134758D01*
X19363735Y61135242D01*
X18850828Y60923313D01*
X18458066Y60531236D01*
X18245242Y60018700D01*
X18244758Y59463735D01*
X18456687Y58950828D01*
X18848764Y58558066D01*
X19361300Y58345242D01*
X19916265Y58344758D01*
X20429172Y58556687D01*
X20728006Y58855000D01*
X23820184Y58855000D01*
X23820189Y58854999D01*
X24102673Y58911190D01*
X24158864Y58922367D01*
X24445979Y59114210D01*
X28139999Y62808230D01*
X28139999Y8580004D01*
X28139998Y8579999D01*
X28175294Y8402560D01*
X28207366Y8241324D01*
X28328670Y8059779D01*
X28399209Y7954209D01*
X32604207Y3749212D01*
X32604209Y3749209D01*
X32891324Y3557366D01*
X32947515Y3546189D01*
X33229999Y3489998D01*
X33230004Y3489999D01*
X46243596Y3489999D01*
X46243601Y3489998D01*
X46526085Y3546189D01*
X46582276Y3557366D01*
X46869391Y3749209D01*
X46869392Y3749210D01*
X46963374Y3843193D01*
X56961797Y3843193D01*
X57255508Y3190224D01*
X57776742Y2699358D01*
X58338195Y2466805D01*
X58623000Y2583568D01*
X58623000Y4128000D01*
X58877000Y4128000D01*
X58877000Y2583568D01*
X59161805Y2466805D01*
X59723258Y2699358D01*
X60244492Y3190224D01*
X60538203Y3843193D01*
X60421858Y4128000D01*
X58877000Y4128000D01*
X58623000Y4128000D01*
X57078142Y4128000D01*
X56961797Y3843193D01*
X46963374Y3843193D01*
X48609431Y5489250D01*
X51990000Y5489250D01*
X51990000Y4898691D01*
X52086673Y4665302D01*
X52265301Y4486673D01*
X52498690Y4390000D01*
X52964250Y4390000D01*
X53123000Y4548750D01*
X53123000Y5648000D01*
X53377000Y5648000D01*
X53377000Y4548750D01*
X53535750Y4390000D01*
X54001310Y4390000D01*
X54234699Y4486673D01*
X54413327Y4665302D01*
X54413950Y4666807D01*
X56961797Y4666807D01*
X57078142Y4382000D01*
X58623000Y4382000D01*
X58623000Y5926432D01*
X58877000Y5926432D01*
X58877000Y4382000D01*
X60421858Y4382000D01*
X60538203Y4666807D01*
X60244492Y5319776D01*
X59723258Y5810642D01*
X59161805Y6043195D01*
X58877000Y5926432D01*
X58623000Y5926432D01*
X58338195Y6043195D01*
X57776742Y5810642D01*
X57255508Y5319776D01*
X56961797Y4666807D01*
X54413950Y4666807D01*
X54510000Y4898691D01*
X54510000Y5489250D01*
X54351250Y5648000D01*
X53377000Y5648000D01*
X53123000Y5648000D01*
X52148750Y5648000D01*
X51990000Y5489250D01*
X48609431Y5489250D01*
X51977560Y8857379D01*
X51977560Y7525000D01*
X52021838Y7289683D01*
X52160910Y7073559D01*
X52229006Y7027031D01*
X52086673Y6884698D01*
X51990000Y6651309D01*
X51990000Y6060750D01*
X52148750Y5902000D01*
X53123000Y5902000D01*
X53123000Y5922000D01*
X53377000Y5922000D01*
X53377000Y5902000D01*
X54351250Y5902000D01*
X54510000Y6060750D01*
X54510000Y6289250D01*
X60665000Y6289250D01*
X60665000Y5698691D01*
X60761673Y5465302D01*
X60940301Y5286673D01*
X61173690Y5190000D01*
X61664250Y5190000D01*
X61823000Y5348750D01*
X61823000Y6448000D01*
X62077000Y6448000D01*
X62077000Y5348750D01*
X62235750Y5190000D01*
X62726310Y5190000D01*
X62959699Y5286673D01*
X63138327Y5465302D01*
X63235000Y5698691D01*
X63235000Y6289250D01*
X63076250Y6448000D01*
X62077000Y6448000D01*
X61823000Y6448000D01*
X60823750Y6448000D01*
X60665000Y6289250D01*
X54510000Y6289250D01*
X54510000Y6651309D01*
X54413327Y6884698D01*
X54272090Y7025936D01*
X54326441Y7060910D01*
X54471431Y7273110D01*
X54522440Y7525000D01*
X54522440Y9025000D01*
X54478162Y9260317D01*
X54339090Y9476441D01*
X54135000Y9615890D01*
X54135000Y12407024D01*
X54204312Y12476215D01*
X54479686Y13139388D01*
X54480313Y13857462D01*
X54422927Y13996347D01*
X62349888Y21923309D01*
X62349891Y21923311D01*
X62541734Y22210426D01*
X62609101Y22549101D01*
X62609101Y23228180D01*
X62877000Y24575000D01*
X62877000Y33384995D01*
X62877001Y33385000D01*
X62687000Y34340200D01*
X62687000Y52575000D01*
X62609101Y52966625D01*
X62609101Y53299995D01*
X62609102Y53300000D01*
X62541735Y53638674D01*
X62447314Y53779986D01*
X62372851Y54154335D01*
X61478230Y55493230D01*
X60139335Y56387851D01*
X58639883Y56686110D01*
X58650787Y56697014D01*
X58650790Y56697016D01*
X58842633Y56984131D01*
X58875969Y57151720D01*
X58910001Y57322806D01*
X58910000Y57322811D01*
X58910000Y64015835D01*
X82031628Y40894207D01*
X82319111Y40702117D01*
X84572015Y38449213D01*
X84572017Y38449210D01*
X84859132Y38257367D01*
X85197807Y38190000D01*
X93102560Y38190000D01*
X93102560Y37825000D01*
X93125704Y37702000D01*
X86500000Y37702000D01*
X84920665Y37387851D01*
X83581770Y36493230D01*
X82687149Y35154335D01*
X82373000Y33575000D01*
X82687149Y31995665D01*
X83581770Y30656770D01*
X84920665Y29762149D01*
X86500000Y29448000D01*
X91790466Y29448000D01*
X91537250Y28175000D01*
X91794309Y26882678D01*
X91873000Y26764908D01*
X91873000Y21143670D01*
X88638893Y21143670D01*
X88630793Y21155793D01*
X85905793Y23880793D01*
X85134639Y24396062D01*
X84225000Y24577000D01*
X74915076Y24577000D01*
X74518734Y24847809D01*
X73675000Y25018670D01*
X72175000Y25018670D01*
X71386781Y24870356D01*
X70662850Y24404520D01*
X70177191Y23693734D01*
X70137440Y23497440D01*
X69475000Y23497440D01*
X69239683Y23453162D01*
X69023559Y23314090D01*
X68878569Y23101890D01*
X68875149Y23085000D01*
X64075005Y23085000D01*
X64075000Y23085001D01*
X63792516Y23028810D01*
X63736325Y23017633D01*
X63449210Y22825790D01*
X63449208Y22825787D01*
X58374210Y17750790D01*
X58182367Y17463675D01*
X58182367Y17463674D01*
X58114999Y17125000D01*
X58115000Y17124995D01*
X58115000Y10044877D01*
X58066485Y10024831D01*
X57676539Y9635564D01*
X57465241Y9126702D01*
X57464760Y8575715D01*
X57675169Y8066485D01*
X58064436Y7676539D01*
X58573298Y7465241D01*
X59124285Y7464760D01*
X59633515Y7675169D01*
X60023461Y8064436D01*
X60158647Y8390000D01*
X60677962Y8390000D01*
X60696838Y8289683D01*
X60835910Y8073559D01*
X61048110Y7928569D01*
X61081490Y7921809D01*
X60940301Y7863327D01*
X60761673Y7684698D01*
X60665000Y7451309D01*
X60665000Y6860750D01*
X60823750Y6702000D01*
X61823000Y6702000D01*
X61823000Y6722000D01*
X62077000Y6722000D01*
X62077000Y6702000D01*
X63076250Y6702000D01*
X63235000Y6860750D01*
X63235000Y7451309D01*
X63138327Y7684698D01*
X62959699Y7863327D01*
X62823713Y7919654D01*
X62835317Y7921838D01*
X63051441Y8060910D01*
X63196431Y8273110D01*
X63247440Y8525000D01*
X63247440Y10025000D01*
X63203162Y10260317D01*
X63064090Y10476441D01*
X62851890Y10621431D01*
X62600000Y10672440D01*
X61300000Y10672440D01*
X61064683Y10628162D01*
X60848559Y10489090D01*
X60703569Y10276890D01*
X60679898Y10160000D01*
X59885000Y10160000D01*
X59885000Y13413798D01*
X64193403Y13413798D01*
X64365390Y13084640D01*
X65192346Y12757974D01*
X66081363Y12772635D01*
X66834610Y13084640D01*
X67006597Y13413798D01*
X65600000Y14820395D01*
X64193403Y13413798D01*
X59885000Y13413798D01*
X59885000Y15407654D01*
X63357974Y15407654D01*
X63372635Y14518637D01*
X63684640Y13765390D01*
X64013798Y13593403D01*
X65420395Y15000000D01*
X65779605Y15000000D01*
X67186202Y13593403D01*
X67515360Y13765390D01*
X67842026Y14592346D01*
X67827365Y15481363D01*
X67515360Y16234610D01*
X67186202Y16406597D01*
X65779605Y15000000D01*
X65420395Y15000000D01*
X64013798Y16406597D01*
X63684640Y16234610D01*
X63357974Y15407654D01*
X59885000Y15407654D01*
X59885000Y16586202D01*
X64193403Y16586202D01*
X65600000Y15179605D01*
X67006597Y16586202D01*
X66834610Y16915360D01*
X66007654Y17242026D01*
X65118637Y17227365D01*
X64365390Y16915360D01*
X64193403Y16586202D01*
X59885000Y16586202D01*
X59885000Y16758420D01*
X64441579Y21315000D01*
X68871778Y21315000D01*
X68871838Y21314683D01*
X69010910Y21098559D01*
X69223110Y20953569D01*
X69475000Y20902560D01*
X70128155Y20902560D01*
X70154644Y20761781D01*
X70620480Y20037850D01*
X71331266Y19552191D01*
X72175000Y19381330D01*
X72567667Y19381330D01*
X71529324Y19174791D01*
X70028217Y18171783D01*
X69025209Y16670676D01*
X68673000Y14900000D01*
X69025209Y13129324D01*
X70028217Y11628217D01*
X71529324Y10625209D01*
X73300000Y10273000D01*
X74443434Y10273000D01*
X76953217Y7763217D01*
X78454323Y6760210D01*
X80225000Y6408000D01*
X81995676Y6760210D01*
X82738462Y7256524D01*
X83120480Y6662850D01*
X83831266Y6177191D01*
X84675000Y6006330D01*
X94075000Y6006330D01*
X94863219Y6154644D01*
X95587150Y6620480D01*
X96072809Y7331266D01*
X96243670Y8175000D01*
X96243670Y11982210D01*
X98918230Y14656770D01*
X99133460Y14978885D01*
X99812851Y15995665D01*
X100127000Y17575000D01*
X100127000Y24048000D01*
X103100000Y24048000D01*
X104679335Y24362149D01*
X106018230Y25256770D01*
X106918230Y26156770D01*
X107035560Y26332367D01*
X107812851Y27495665D01*
X108127000Y29075000D01*
X108127000Y45424995D01*
X108127001Y45425000D01*
X107812851Y47004334D01*
X107812851Y47004335D01*
X106918230Y48343230D01*
X106918227Y48343232D01*
X105168230Y50093230D01*
X105165481Y50095067D01*
X103829335Y50987851D01*
X102250000Y51302000D01*
X100185193Y51302000D01*
X100205691Y51332678D01*
X100462750Y52625000D01*
X100205691Y53917322D01*
X99473650Y55012900D01*
X99110414Y55255606D01*
X98918230Y55543230D01*
X97968888Y56177560D01*
X98250000Y56177560D01*
X98485317Y56221838D01*
X98701441Y56360910D01*
X98846431Y56573110D01*
X98897440Y56825000D01*
X98897440Y59325000D01*
X98853162Y59560317D01*
X98714090Y59776441D01*
X98501890Y59921431D01*
X98250000Y59972440D01*
X94354139Y59972440D01*
X90462330Y63864250D01*
X93615000Y63864250D01*
X93615000Y63273691D01*
X93711673Y63040302D01*
X93890301Y62861673D01*
X94123690Y62765000D01*
X94614250Y62765000D01*
X94773000Y62923750D01*
X94773000Y64023000D01*
X95027000Y64023000D01*
X95027000Y62923750D01*
X95185750Y62765000D01*
X95676310Y62765000D01*
X95909699Y62861673D01*
X96088327Y63040302D01*
X96185000Y63273691D01*
X96185000Y63864250D01*
X96026250Y64023000D01*
X95027000Y64023000D01*
X94773000Y64023000D01*
X93773750Y64023000D01*
X93615000Y63864250D01*
X90462330Y63864250D01*
X81585790Y72740790D01*
X81566665Y72753569D01*
X81298675Y72932633D01*
X81242484Y72943810D01*
X80960000Y73000001D01*
X80959995Y73000000D01*
X74537310Y73000000D01*
X74450648Y73129698D01*
X74068562Y73385000D01*
X74450648Y73640302D01*
X74717718Y74040000D01*
X77651477Y74040000D01*
X77939436Y73751539D01*
X78448298Y73540241D01*
X78999285Y73539760D01*
X79508515Y73750169D01*
X79898461Y74139436D01*
X80109759Y74648298D01*
X80109926Y74840000D01*
X81099995Y74840000D01*
X81100000Y74839999D01*
X81382484Y74896190D01*
X81438675Y74907367D01*
X81725790Y75099210D01*
X81725791Y75099211D01*
X83829139Y77202560D01*
X86425000Y77202560D01*
X86660317Y77246838D01*
X86876441Y77385910D01*
X86971990Y77525750D01*
X86986673Y77490301D01*
X87165302Y77311673D01*
X87398691Y77215000D01*
X88839250Y77215000D01*
X88998000Y77373750D01*
X88998000Y78973000D01*
X88978000Y78973000D01*
X88978000Y79227000D01*
X88998000Y79227000D01*
X88998000Y80826250D01*
X89252000Y80826250D01*
X89252000Y79227000D01*
X91201250Y79227000D01*
X91360000Y79385750D01*
X91360000Y80476310D01*
X91263327Y80709699D01*
X91084698Y80888327D01*
X90851309Y80985000D01*
X89410750Y80985000D01*
X89252000Y80826250D01*
X88998000Y80826250D01*
X88839250Y80985000D01*
X87398691Y80985000D01*
X87165302Y80888327D01*
X86986673Y80709699D01*
X86971577Y80673253D01*
X86889090Y80801441D01*
X86676890Y80946431D01*
X86425000Y80997440D01*
X83225000Y80997440D01*
X82989683Y80953162D01*
X82773559Y80814090D01*
X82628569Y80601890D01*
X82577560Y80350000D01*
X82577560Y79535000D01*
X81547038Y79535000D01*
X81528162Y79635317D01*
X81389090Y79851441D01*
X81320994Y79897969D01*
X81463327Y80040302D01*
X81560000Y80273691D01*
X81560000Y80864250D01*
X81401250Y81023000D01*
X80427000Y81023000D01*
X80427000Y81003000D01*
X80173000Y81003000D01*
X80173000Y81023000D01*
X79198750Y81023000D01*
X79060000Y80884250D01*
X79060000Y80914250D01*
X78901250Y81073000D01*
X77902000Y81073000D01*
X77902000Y81053000D01*
X77648000Y81053000D01*
X77648000Y81073000D01*
X76648750Y81073000D01*
X76490000Y80914250D01*
X76490000Y80323691D01*
X76586673Y80090302D01*
X76765301Y79911673D01*
X76901287Y79855346D01*
X76889683Y79853162D01*
X76673559Y79714090D01*
X76528569Y79501890D01*
X76525149Y79485000D01*
X76072038Y79485000D01*
X76053162Y79585317D01*
X75914090Y79801441D01*
X75844289Y79849134D01*
X75901441Y79885910D01*
X76046431Y80098110D01*
X76097440Y80350000D01*
X76097440Y81850000D01*
X76054857Y82076309D01*
X76490000Y82076309D01*
X76490000Y81485750D01*
X76648750Y81327000D01*
X77648000Y81327000D01*
X77648000Y82426250D01*
X77902000Y82426250D01*
X77902000Y81327000D01*
X78901250Y81327000D01*
X79040000Y81465750D01*
X79040000Y81435750D01*
X79198750Y81277000D01*
X80173000Y81277000D01*
X80173000Y82376250D01*
X80427000Y82376250D01*
X80427000Y81277000D01*
X81401250Y81277000D01*
X81560000Y81435750D01*
X81560000Y82026309D01*
X81463327Y82259698D01*
X81284699Y82438327D01*
X81051310Y82535000D01*
X80585750Y82535000D01*
X80427000Y82376250D01*
X80173000Y82376250D01*
X80014250Y82535000D01*
X79548690Y82535000D01*
X79315301Y82438327D01*
X79136673Y82259698D01*
X79060000Y82074593D01*
X79060000Y82076309D01*
X78963327Y82309698D01*
X78784699Y82488327D01*
X78551310Y82585000D01*
X78060750Y82585000D01*
X77902000Y82426250D01*
X77648000Y82426250D01*
X77489250Y82585000D01*
X76998690Y82585000D01*
X76765301Y82488327D01*
X76586673Y82309698D01*
X76490000Y82076309D01*
X76054857Y82076309D01*
X76053162Y82085317D01*
X75914090Y82301441D01*
X75710000Y82440890D01*
X75710000Y83103808D01*
X75876441Y83210910D01*
X76021431Y83423110D01*
X76072440Y83675000D01*
X76072440Y84975000D01*
X76028162Y85210317D01*
X75889090Y85426441D01*
X75676890Y85571431D01*
X75425000Y85622440D01*
X74771845Y85622440D01*
X74745356Y85763219D01*
X74279520Y86487150D01*
X73568734Y86972809D01*
X73360389Y87015000D01*
X85269522Y87015000D01*
X85567630Y86716371D01*
X86080900Y86503243D01*
X86505548Y86502872D01*
X96234208Y76774213D01*
X96234210Y76774210D01*
X96521325Y76582367D01*
X96860000Y76515000D01*
X98533420Y76515000D01*
X99515000Y75533421D01*
X99515000Y75222038D01*
X99414683Y75203162D01*
X99198559Y75064090D01*
X99152031Y74995994D01*
X99009698Y75138327D01*
X98776309Y75235000D01*
X98185750Y75235000D01*
X98027000Y75076250D01*
X98027000Y74102000D01*
X98047000Y74102000D01*
X98047000Y73848000D01*
X98027000Y73848000D01*
X98027000Y72873750D01*
X98185750Y72715000D01*
X98776309Y72715000D01*
X99009698Y72811673D01*
X99150936Y72952910D01*
X99185910Y72898559D01*
X99398110Y72753569D01*
X99515000Y72729898D01*
X99515000Y71070005D01*
X99514999Y71070000D01*
X99556591Y70860910D01*
X99582367Y70731325D01*
X99746955Y70485000D01*
X99749545Y70481124D01*
X99620860Y70352440D01*
X99575000Y70352440D01*
X99339683Y70308162D01*
X99123559Y70169090D01*
X98978569Y69956890D01*
X98950824Y69819880D01*
X98928162Y69940317D01*
X98789090Y70156441D01*
X98576890Y70301431D01*
X98325000Y70352440D01*
X97675000Y70352440D01*
X97439683Y70308162D01*
X97350685Y70250894D01*
X95000790Y72600790D01*
X94887788Y72676295D01*
X94853162Y72860317D01*
X94714090Y73076441D01*
X94501890Y73221431D01*
X94385000Y73245102D01*
X94385000Y73689250D01*
X96515000Y73689250D01*
X96515000Y73223690D01*
X96611673Y72990301D01*
X96790302Y72811673D01*
X97023691Y72715000D01*
X97614250Y72715000D01*
X97773000Y72873750D01*
X97773000Y73848000D01*
X96673750Y73848000D01*
X96515000Y73689250D01*
X94385000Y73689250D01*
X94385000Y74726310D01*
X96515000Y74726310D01*
X96515000Y74260750D01*
X96673750Y74102000D01*
X97773000Y74102000D01*
X97773000Y75076250D01*
X97614250Y75235000D01*
X97023691Y75235000D01*
X96790302Y75138327D01*
X96611673Y74959699D01*
X96515000Y74726310D01*
X94385000Y74726310D01*
X94385000Y76885655D01*
X94385001Y76885660D01*
X94317633Y77224335D01*
X94298774Y77252560D01*
X94125790Y77511450D01*
X94125787Y77511452D01*
X94086450Y77550790D01*
X94006619Y77604131D01*
X93799335Y77742633D01*
X93706139Y77761171D01*
X93476708Y77806809D01*
X93185564Y78098461D01*
X92676702Y78309759D01*
X92125715Y78310240D01*
X91616485Y78099831D01*
X91360000Y77843793D01*
X91360000Y78814250D01*
X91201250Y78973000D01*
X89252000Y78973000D01*
X89252000Y77373750D01*
X89410750Y77215000D01*
X90851309Y77215000D01*
X91055963Y77299770D01*
X91015241Y77201702D01*
X91014760Y76650715D01*
X91225169Y76141485D01*
X91614436Y75751539D01*
X92123298Y75540241D01*
X92615000Y75539812D01*
X92615000Y73247038D01*
X92514683Y73228162D01*
X92298559Y73089090D01*
X92153569Y72876890D01*
X92150919Y72863803D01*
X92014090Y73076441D01*
X91801890Y73221431D01*
X91550000Y73272440D01*
X90050000Y73272440D01*
X89814683Y73228162D01*
X89598559Y73089090D01*
X89453569Y72876890D01*
X89402560Y72625000D01*
X89402560Y71325000D01*
X89446838Y71089683D01*
X89585910Y70873559D01*
X89744518Y70765186D01*
X89548559Y70639090D01*
X89403569Y70426890D01*
X89352560Y70175000D01*
X89352560Y68675000D01*
X89396838Y68439683D01*
X89535910Y68223559D01*
X89748110Y68078569D01*
X89761197Y68075919D01*
X89548559Y67939090D01*
X89403569Y67726890D01*
X89352560Y67475000D01*
X89352560Y65975000D01*
X89396838Y65739683D01*
X89535910Y65523559D01*
X89748110Y65378569D01*
X90000000Y65327560D01*
X91300000Y65327560D01*
X91535317Y65371838D01*
X91751441Y65510910D01*
X91896431Y65723110D01*
X91920102Y65840000D01*
X93662721Y65840000D01*
X93785910Y65648559D01*
X93998110Y65503569D01*
X94031490Y65496809D01*
X93890301Y65438327D01*
X93711673Y65259698D01*
X93615000Y65026309D01*
X93615000Y64435750D01*
X93773750Y64277000D01*
X94773000Y64277000D01*
X94773000Y64297000D01*
X95027000Y64297000D01*
X95027000Y64277000D01*
X96026250Y64277000D01*
X96185000Y64435750D01*
X96185000Y65026309D01*
X96088327Y65259698D01*
X95909699Y65438327D01*
X95773713Y65494654D01*
X95785317Y65496838D01*
X96001441Y65635910D01*
X96146431Y65848110D01*
X96195415Y66090000D01*
X97148852Y66090000D01*
X97210910Y65993559D01*
X97423110Y65848569D01*
X97675000Y65797560D01*
X98325000Y65797560D01*
X98465086Y65823919D01*
X98498690Y65810000D01*
X98664250Y65810000D01*
X98823000Y65968750D01*
X98823000Y66049051D01*
X98921431Y66193110D01*
X98949176Y66330120D01*
X98971838Y66209683D01*
X99077000Y66046257D01*
X99077000Y65968750D01*
X99235750Y65810000D01*
X99401310Y65810000D01*
X99438171Y65825268D01*
X99575000Y65797560D01*
X99825860Y65797560D01*
X100854208Y64769213D01*
X100854210Y64769210D01*
X101141325Y64577367D01*
X101197516Y64566190D01*
X101480000Y64509999D01*
X101480005Y64510000D01*
X104410589Y64510000D01*
X104564591Y64279519D01*
X105062581Y63946773D01*
X105650000Y63829928D01*
X106237419Y63946773D01*
X106735409Y64279519D01*
X107068155Y64777509D01*
X107185000Y65364928D01*
X107185000Y65425072D01*
X107068155Y66012491D01*
X106735409Y66510481D01*
X106497418Y66669501D01*
X106887966Y67027424D01*
X107141046Y67570258D01*
X107020997Y67808000D01*
X105777000Y67808000D01*
X105777000Y67788000D01*
X105523000Y67788000D01*
X105523000Y67808000D01*
X104279003Y67808000D01*
X104158954Y67570258D01*
X104412034Y67027424D01*
X104802582Y66669501D01*
X104564591Y66510481D01*
X104410589Y66280000D01*
X101846579Y66280000D01*
X100872440Y67254140D01*
X100872440Y67505000D01*
X100828162Y67740317D01*
X100689090Y67956441D01*
X100513768Y68076233D01*
X100676441Y68180910D01*
X100821431Y68393110D01*
X100872440Y68645000D01*
X100872440Y69100860D01*
X101361579Y69590000D01*
X104102560Y69590000D01*
X104102560Y69575000D01*
X104146838Y69339683D01*
X104285910Y69123559D01*
X104498110Y68978569D01*
X104549146Y68968234D01*
X104412034Y68842576D01*
X104158954Y68299742D01*
X104279003Y68062000D01*
X105523000Y68062000D01*
X105523000Y68082000D01*
X105777000Y68082000D01*
X105777000Y68062000D01*
X107020997Y68062000D01*
X107141046Y68299742D01*
X106887966Y68842576D01*
X106753462Y68965844D01*
X106785317Y68971838D01*
X107001441Y69110910D01*
X107146431Y69323110D01*
X107197440Y69575000D01*
X107197440Y71375000D01*
X107153162Y71610317D01*
X107014090Y71826441D01*
X106801890Y71971431D01*
X106550000Y72022440D01*
X104750000Y72022440D01*
X104514683Y71978162D01*
X104298559Y71839090D01*
X104153569Y71626890D01*
X104102560Y71375000D01*
X104102560Y71360000D01*
X101361579Y71360000D01*
X101285000Y71436580D01*
X101285000Y72727962D01*
X101385317Y72746838D01*
X101601441Y72885910D01*
X101746431Y73098110D01*
X101797440Y73350000D01*
X101797440Y74600000D01*
X101753162Y74835317D01*
X101614090Y75051441D01*
X101401890Y75196431D01*
X101285000Y75220102D01*
X101285000Y75900000D01*
X101217633Y76238675D01*
X101025790Y76525790D01*
X101025787Y76525792D01*
X99525790Y78025790D01*
X99519489Y78030000D01*
X99238675Y78217633D01*
X99182484Y78228810D01*
X98900000Y78285001D01*
X98899995Y78285000D01*
X97226579Y78285000D01*
X89008580Y86503000D01*
X89027002Y86503000D01*
X89027002Y86667523D01*
X89243072Y86545769D01*
X89735199Y86780142D01*
X90100174Y87185003D01*
X90154638Y87316501D01*
X90424803Y86912172D01*
X90878022Y86609340D01*
X91412631Y86503000D01*
X91467369Y86503000D01*
X92001978Y86609340D01*
X92455197Y86912172D01*
X92710000Y87293511D01*
X92964803Y86912172D01*
X93418022Y86609340D01*
X93952631Y86503000D01*
X94007369Y86503000D01*
X94541978Y86609340D01*
X94995197Y86912172D01*
X95250000Y87293511D01*
X95504803Y86912172D01*
X95958022Y86609340D01*
X96492631Y86503000D01*
X96547369Y86503000D01*
X97081978Y86609340D01*
X97535197Y86912172D01*
X97795586Y87301870D01*
X97874990Y87109697D01*
X98267630Y86716371D01*
X98780900Y86503243D01*
X99336661Y86502758D01*
X99850303Y86714990D01*
X100243629Y87107630D01*
X100324334Y87301990D01*
X100584803Y86912172D01*
X101038022Y86609340D01*
X101572631Y86503000D01*
X101627369Y86503000D01*
X102161978Y86609340D01*
X102615197Y86912172D01*
X102885362Y87316501D01*
X102939826Y87185003D01*
X103304801Y86780142D01*
X103796928Y86545769D01*
X104013000Y86667524D01*
X104013000Y87773000D01*
X103993000Y87773000D01*
X103993000Y88027000D01*
X104013000Y88027000D01*
X104013000Y89132476D01*
X104267000Y89132476D01*
X104267000Y88027000D01*
X104287000Y88027000D01*
X104287000Y87773000D01*
X104267000Y87773000D01*
X104267000Y86667524D01*
X104483072Y86545769D01*
X104975199Y86780142D01*
X105340174Y87185003D01*
X105402098Y87334513D01*
X105494990Y87109697D01*
X105795000Y86809163D01*
X105795000Y84604162D01*
X105789683Y84603162D01*
X105573559Y84464090D01*
X105428569Y84251890D01*
X105377560Y84000000D01*
X105377560Y83193558D01*
X105257367Y83013675D01*
X105257367Y83013674D01*
X105189999Y82675000D01*
X105190000Y82674995D01*
X105190000Y81098523D01*
X104901539Y80810564D01*
X104690241Y80301702D01*
X104689760Y79750715D01*
X104900169Y79241485D01*
X105289436Y78851539D01*
X105798298Y78640241D01*
X106349285Y78639760D01*
X106858515Y78850169D01*
X107248461Y79239436D01*
X107459759Y79748298D01*
X107460240Y80299285D01*
X107249831Y80808515D01*
X106960000Y81098852D01*
X106960000Y82102560D01*
X107525000Y82102560D01*
X107760317Y82146838D01*
X107976441Y82285910D01*
X108022969Y82354006D01*
X108165302Y82211673D01*
X108398691Y82115000D01*
X108989250Y82115000D01*
X109148000Y82273750D01*
X109148000Y83248000D01*
X109402000Y83248000D01*
X109402000Y82273750D01*
X109560750Y82115000D01*
X110151309Y82115000D01*
X110384698Y82211673D01*
X110563327Y82390301D01*
X110660000Y82623690D01*
X110660000Y83089250D01*
X110501250Y83248000D01*
X109402000Y83248000D01*
X109148000Y83248000D01*
X109128000Y83248000D01*
X109128000Y83502000D01*
X109148000Y83502000D01*
X109148000Y84476250D01*
X109402000Y84476250D01*
X109402000Y83502000D01*
X110501250Y83502000D01*
X110660000Y83660750D01*
X110660000Y84126310D01*
X110563327Y84359699D01*
X110384698Y84538327D01*
X110151309Y84635000D01*
X109560750Y84635000D01*
X109402000Y84476250D01*
X109148000Y84476250D01*
X108989250Y84635000D01*
X108398691Y84635000D01*
X108165302Y84538327D01*
X108024064Y84397090D01*
X107989090Y84451441D01*
X107776890Y84596431D01*
X107565000Y84639340D01*
X107565000Y86809522D01*
X107675457Y86919787D01*
X108419392Y86919787D01*
X108488857Y86677603D01*
X109012302Y86490856D01*
X109567368Y86518638D01*
X109951143Y86677603D01*
X110020608Y86919787D01*
X109220000Y87720395D01*
X108419392Y86919787D01*
X107675457Y86919787D01*
X107863629Y87107630D01*
X107943395Y87299727D01*
X107997603Y87168857D01*
X108239787Y87099392D01*
X109040395Y87900000D01*
X109399605Y87900000D01*
X110200213Y87099392D01*
X110442397Y87168857D01*
X110629144Y87692302D01*
X110601362Y88247368D01*
X110442397Y88631143D01*
X110200213Y88700608D01*
X109399605Y87900000D01*
X109040395Y87900000D01*
X108239787Y88700608D01*
X107997603Y88631143D01*
X107947491Y88490682D01*
X107865010Y88690303D01*
X107675432Y88880213D01*
X108419392Y88880213D01*
X109220000Y88079605D01*
X110020608Y88880213D01*
X109951143Y89122397D01*
X109427698Y89309144D01*
X108872632Y89281362D01*
X108488857Y89122397D01*
X108419392Y88880213D01*
X107675432Y88880213D01*
X107472370Y89083629D01*
X106959100Y89296757D01*
X106403339Y89297242D01*
X105889697Y89085010D01*
X105496371Y88692370D01*
X105402130Y88465412D01*
X105340174Y88614997D01*
X104975199Y89019858D01*
X104483072Y89254231D01*
X104267000Y89132476D01*
X104013000Y89132476D01*
X103796928Y89254231D01*
X103304801Y89019858D01*
X102939826Y88614997D01*
X102885362Y88483499D01*
X102615197Y88887828D01*
X102485000Y88974823D01*
X102485000Y91299995D01*
X102485001Y91300000D01*
X102417633Y91638674D01*
X102417633Y91638675D01*
X102225790Y91925790D01*
X102225787Y91925792D01*
X99325779Y94825801D01*
X99213533Y94900801D01*
X99038664Y95017644D01*
X98982473Y95028821D01*
X98699989Y95085012D01*
X98699984Y95085011D01*
X93437182Y95085011D01*
X92721382Y95800812D01*
X92434267Y95992655D01*
X92378076Y96003832D01*
X92095592Y96060023D01*
X92095587Y96060022D01*
X82402220Y96060022D01*
X82402215Y96060023D01*
X82063540Y95992655D01*
X81776425Y95800812D01*
X81776423Y95800809D01*
X76731935Y90756322D01*
X76759759Y90823330D01*
X76760240Y91374317D01*
X76549831Y91883547D01*
X76160564Y92273493D01*
X75651702Y92484791D01*
X75100715Y92485272D01*
X74591485Y92274863D01*
X74301148Y91985032D01*
X18730100Y91985032D01*
X18730095Y91985033D01*
X18447611Y91928842D01*
X18391420Y91917665D01*
X18104305Y91725822D01*
X18104303Y91725819D01*
X16709481Y90330998D01*
X16517638Y90043883D01*
X16516606Y90038696D01*
X16450270Y89705208D01*
X16450271Y89705203D01*
X16450271Y88648351D01*
X12819331Y85017412D01*
X12627488Y84730297D01*
X12616311Y84674106D01*
X12560120Y84391622D01*
X2955444Y84391622D01*
X2936071Y96790000D01*
X115141106Y96790000D01*
X115206268Y54977669D01*
G36*
X30999210Y64300790D02*
X30807367Y64013675D01*
X30800121Y63977246D01*
X30739999Y63675000D01*
X30740000Y63674995D01*
X30740000Y26175005D01*
X30739999Y26175000D01*
X30779749Y25975169D01*
X30807367Y25836325D01*
X30965801Y25599210D01*
X30999210Y25549210D01*
X33799208Y22749213D01*
X33799210Y22749210D01*
X34086325Y22557367D01*
X34127881Y22549101D01*
X34425000Y22489999D01*
X34425005Y22490000D01*
X37115052Y22490000D01*
X36990302Y22438327D01*
X36811673Y22259699D01*
X36715000Y22026310D01*
X36715000Y21560750D01*
X36873750Y21402000D01*
X37973000Y21402000D01*
X37973000Y21422000D01*
X38227000Y21422000D01*
X38227000Y21402000D01*
X38247000Y21402000D01*
X38247000Y21148000D01*
X38227000Y21148000D01*
X38227000Y20173750D01*
X38385750Y20015000D01*
X38976309Y20015000D01*
X39209698Y20111673D01*
X39350936Y20252910D01*
X39385910Y20198559D01*
X39590000Y20059110D01*
X39590000Y19407310D01*
X39460302Y19320648D01*
X39205000Y18938562D01*
X38949698Y19320648D01*
X38484151Y19631717D01*
X37935000Y19740950D01*
X37385849Y19631717D01*
X36920302Y19320648D01*
X36609233Y18855101D01*
X36500000Y18305950D01*
X36500000Y17434050D01*
X36609233Y16884899D01*
X36920302Y16419352D01*
X37050000Y16332690D01*
X37050000Y14355473D01*
X37049999Y14355468D01*
X37081981Y14194687D01*
X37117367Y14016793D01*
X37223828Y13857462D01*
X37309210Y13729678D01*
X39004469Y12034420D01*
X38986890Y12046431D01*
X38735000Y12097440D01*
X37135000Y12097440D01*
X36899683Y12053162D01*
X36683559Y11914090D01*
X36538569Y11701890D01*
X36487560Y11450000D01*
X36487560Y9050000D01*
X36531838Y8814683D01*
X36670910Y8598559D01*
X36883110Y8453569D01*
X37076991Y8414307D01*
X37104701Y8275000D01*
X37117367Y8211325D01*
X37236942Y8032367D01*
X37309210Y7924210D01*
X39973422Y5259999D01*
X33596578Y5259999D01*
X29909999Y8946579D01*
X29909999Y20989250D01*
X36715000Y20989250D01*
X36715000Y20523690D01*
X36811673Y20290301D01*
X36990302Y20111673D01*
X37223691Y20015000D01*
X37814250Y20015000D01*
X37973000Y20173750D01*
X37973000Y21148000D01*
X36873750Y21148000D01*
X36715000Y20989250D01*
X29909999Y20989250D01*
X29909999Y63305423D01*
X38294586Y71690011D01*
X38388432Y71690011D01*
X30999210Y64300790D01*
X30999210Y64300790D01*
G37*
X30999210Y64300790D02*
X30807367Y64013675D01*
X30800121Y63977246D01*
X30739999Y63675000D01*
X30740000Y63674995D01*
X30740000Y26175005D01*
X30739999Y26175000D01*
X30779749Y25975169D01*
X30807367Y25836325D01*
X30965801Y25599210D01*
X30999210Y25549210D01*
X33799208Y22749213D01*
X33799210Y22749210D01*
X34086325Y22557367D01*
X34127881Y22549101D01*
X34425000Y22489999D01*
X34425005Y22490000D01*
X37115052Y22490000D01*
X36990302Y22438327D01*
X36811673Y22259699D01*
X36715000Y22026310D01*
X36715000Y21560750D01*
X36873750Y21402000D01*
X37973000Y21402000D01*
X37973000Y21422000D01*
X38227000Y21422000D01*
X38227000Y21402000D01*
X38247000Y21402000D01*
X38247000Y21148000D01*
X38227000Y21148000D01*
X38227000Y20173750D01*
X38385750Y20015000D01*
X38976309Y20015000D01*
X39209698Y20111673D01*
X39350936Y20252910D01*
X39385910Y20198559D01*
X39590000Y20059110D01*
X39590000Y19407310D01*
X39460302Y19320648D01*
X39205000Y18938562D01*
X38949698Y19320648D01*
X38484151Y19631717D01*
X37935000Y19740950D01*
X37385849Y19631717D01*
X36920302Y19320648D01*
X36609233Y18855101D01*
X36500000Y18305950D01*
X36500000Y17434050D01*
X36609233Y16884899D01*
X36920302Y16419352D01*
X37050000Y16332690D01*
X37050000Y14355473D01*
X37049999Y14355468D01*
X37081981Y14194687D01*
X37117367Y14016793D01*
X37223828Y13857462D01*
X37309210Y13729678D01*
X39004469Y12034420D01*
X38986890Y12046431D01*
X38735000Y12097440D01*
X37135000Y12097440D01*
X36899683Y12053162D01*
X36683559Y11914090D01*
X36538569Y11701890D01*
X36487560Y11450000D01*
X36487560Y9050000D01*
X36531838Y8814683D01*
X36670910Y8598559D01*
X36883110Y8453569D01*
X37076991Y8414307D01*
X37104701Y8275000D01*
X37117367Y8211325D01*
X37236942Y8032367D01*
X37309210Y7924210D01*
X39973422Y5259999D01*
X33596578Y5259999D01*
X29909999Y8946579D01*
X29909999Y20989250D01*
X36715000Y20989250D01*
X36715000Y20523690D01*
X36811673Y20290301D01*
X36990302Y20111673D01*
X37223691Y20015000D01*
X37814250Y20015000D01*
X37973000Y20173750D01*
X37973000Y21148000D01*
X36873750Y21148000D01*
X36715000Y20989250D01*
X29909999Y20989250D01*
X29909999Y63305423D01*
X38294586Y71690011D01*
X38388432Y71690011D01*
X30999210Y64300790D01*
G36*
X37266838Y28769683D02*
X37405910Y28553559D01*
X37618110Y28408569D01*
X37870000Y28357560D01*
X39470000Y28357560D01*
X39705317Y28401838D01*
X39815000Y28472417D01*
X39815000Y27472038D01*
X39714683Y27453162D01*
X39498559Y27314090D01*
X39452031Y27245994D01*
X39309698Y27388327D01*
X39076309Y27485000D01*
X38485750Y27485000D01*
X38327000Y27326250D01*
X38327000Y26352000D01*
X38347000Y26352000D01*
X38347000Y26098000D01*
X38327000Y26098000D01*
X38327000Y26078000D01*
X38073000Y26078000D01*
X38073000Y26098000D01*
X36973750Y26098000D01*
X36815000Y25939250D01*
X36815000Y25473690D01*
X36911673Y25240301D01*
X36991963Y25160011D01*
X35344564Y25160011D01*
X34654870Y25849706D01*
X34958515Y25975169D01*
X35348461Y26364436D01*
X35559759Y26873298D01*
X35559848Y26976310D01*
X36815000Y26976310D01*
X36815000Y26510750D01*
X36973750Y26352000D01*
X38073000Y26352000D01*
X38073000Y27326250D01*
X37914250Y27485000D01*
X37323691Y27485000D01*
X37090302Y27388327D01*
X36911673Y27209699D01*
X36815000Y26976310D01*
X35559848Y26976310D01*
X35560117Y27283537D01*
X37231907Y28955327D01*
X37266838Y28769683D01*
X37266838Y28769683D01*
G37*
X37266838Y28769683D02*
X37405910Y28553559D01*
X37618110Y28408569D01*
X37870000Y28357560D01*
X39470000Y28357560D01*
X39705317Y28401838D01*
X39815000Y28472417D01*
X39815000Y27472038D01*
X39714683Y27453162D01*
X39498559Y27314090D01*
X39452031Y27245994D01*
X39309698Y27388327D01*
X39076309Y27485000D01*
X38485750Y27485000D01*
X38327000Y27326250D01*
X38327000Y26352000D01*
X38347000Y26352000D01*
X38347000Y26098000D01*
X38327000Y26098000D01*
X38327000Y26078000D01*
X38073000Y26078000D01*
X38073000Y26098000D01*
X36973750Y26098000D01*
X36815000Y25939250D01*
X36815000Y25473690D01*
X36911673Y25240301D01*
X36991963Y25160011D01*
X35344564Y25160011D01*
X34654870Y25849706D01*
X34958515Y25975169D01*
X35348461Y26364436D01*
X35559759Y26873298D01*
X35559848Y26976310D01*
X36815000Y26976310D01*
X36815000Y26510750D01*
X36973750Y26352000D01*
X38073000Y26352000D01*
X38073000Y27326250D01*
X37914250Y27485000D01*
X37323691Y27485000D01*
X37090302Y27388327D01*
X36911673Y27209699D01*
X36815000Y26976310D01*
X35559848Y26976310D01*
X35560117Y27283537D01*
X37231907Y28955327D01*
X37266838Y28769683D01*
G36*
X49478885Y32856097D02*
X48970688Y32348785D01*
X48695314Y31685612D01*
X48694687Y30967538D01*
X48968903Y30303885D01*
X49476215Y29795688D01*
X50139388Y29520314D01*
X50857462Y29519687D01*
X50996347Y29577073D01*
X52465000Y28108421D01*
X52465000Y26323523D01*
X52176539Y26035564D01*
X52035000Y25694700D01*
X52035000Y25739250D01*
X51876250Y25898000D01*
X50777000Y25898000D01*
X50777000Y25878000D01*
X50523000Y25878000D01*
X50523000Y25898000D01*
X50503000Y25898000D01*
X50503000Y26152000D01*
X50523000Y26152000D01*
X50523000Y27126250D01*
X50777000Y27126250D01*
X50777000Y26152000D01*
X51876250Y26152000D01*
X52035000Y26310750D01*
X52035000Y26776310D01*
X51938327Y27009699D01*
X51759698Y27188327D01*
X51526309Y27285000D01*
X50935750Y27285000D01*
X50777000Y27126250D01*
X50523000Y27126250D01*
X50364250Y27285000D01*
X49773691Y27285000D01*
X49540302Y27188327D01*
X49399064Y27047090D01*
X49364090Y27101441D01*
X49151890Y27246431D01*
X48900000Y27297440D01*
X47400000Y27297440D01*
X47175000Y27255103D01*
X47175000Y28667690D01*
X47304698Y28754352D01*
X47615767Y29219899D01*
X47725000Y29769050D01*
X47725000Y30640950D01*
X47615767Y31190101D01*
X47304698Y31655648D01*
X47297223Y31660643D01*
X48160787Y32524208D01*
X48160790Y32524210D01*
X48160791Y32524211D01*
X48576579Y32940000D01*
X49681946Y32940000D01*
X49478885Y32856097D01*
X49478885Y32856097D01*
G37*
X49478885Y32856097D02*
X48970688Y32348785D01*
X48695314Y31685612D01*
X48694687Y30967538D01*
X48968903Y30303885D01*
X49476215Y29795688D01*
X50139388Y29520314D01*
X50857462Y29519687D01*
X50996347Y29577073D01*
X52465000Y28108421D01*
X52465000Y26323523D01*
X52176539Y26035564D01*
X52035000Y25694700D01*
X52035000Y25739250D01*
X51876250Y25898000D01*
X50777000Y25898000D01*
X50777000Y25878000D01*
X50523000Y25878000D01*
X50523000Y25898000D01*
X50503000Y25898000D01*
X50503000Y26152000D01*
X50523000Y26152000D01*
X50523000Y27126250D01*
X50777000Y27126250D01*
X50777000Y26152000D01*
X51876250Y26152000D01*
X52035000Y26310750D01*
X52035000Y26776310D01*
X51938327Y27009699D01*
X51759698Y27188327D01*
X51526309Y27285000D01*
X50935750Y27285000D01*
X50777000Y27126250D01*
X50523000Y27126250D01*
X50364250Y27285000D01*
X49773691Y27285000D01*
X49540302Y27188327D01*
X49399064Y27047090D01*
X49364090Y27101441D01*
X49151890Y27246431D01*
X48900000Y27297440D01*
X47400000Y27297440D01*
X47175000Y27255103D01*
X47175000Y28667690D01*
X47304698Y28754352D01*
X47615767Y29219899D01*
X47725000Y29769050D01*
X47725000Y30640950D01*
X47615767Y31190101D01*
X47304698Y31655648D01*
X47297223Y31660643D01*
X48160787Y32524208D01*
X48160790Y32524210D01*
X48160791Y32524211D01*
X48576579Y32940000D01*
X49681946Y32940000D01*
X49478885Y32856097D01*
G36*
X46452000Y42077000D02*
X46472000Y42077000D01*
X46472000Y41823000D01*
X46452000Y41823000D01*
X46452000Y41803000D01*
X46198000Y41803000D01*
X46198000Y41823000D01*
X46178000Y41823000D01*
X46178000Y42077000D01*
X46198000Y42077000D01*
X46198000Y42097000D01*
X46452000Y42097000D01*
X46452000Y42077000D01*
X46452000Y42077000D01*
G37*
X46452000Y42077000D02*
X46472000Y42077000D01*
X46472000Y41823000D01*
X46452000Y41823000D01*
X46452000Y41803000D01*
X46198000Y41803000D01*
X46198000Y41823000D01*
X46178000Y41823000D01*
X46178000Y42077000D01*
X46198000Y42077000D01*
X46198000Y42097000D01*
X46452000Y42097000D01*
X46452000Y42077000D01*
G36*
X63929352Y68560302D02*
X64307707Y68307493D01*
X63875500Y67959896D01*
X63605633Y67466819D01*
X63588096Y67384039D01*
X63710085Y67162000D01*
X65253000Y67162000D01*
X65253000Y67182000D01*
X65507000Y67182000D01*
X65507000Y67162000D01*
X67049915Y67162000D01*
X67171904Y67384039D01*
X67154367Y67466819D01*
X66884500Y67959896D01*
X66452293Y68307493D01*
X66830648Y68560302D01*
X66917310Y68690000D01*
X67383420Y68690000D01*
X69664208Y66409213D01*
X69664210Y66409210D01*
X69951325Y66217367D01*
X70290000Y66150000D01*
X71462690Y66150000D01*
X71549352Y66020302D01*
X72014899Y65709233D01*
X72564050Y65600000D01*
X73435950Y65600000D01*
X73985101Y65709233D01*
X74450648Y66020302D01*
X74761717Y66485849D01*
X74870950Y67035000D01*
X74866267Y67058545D01*
X75074977Y67198000D01*
X77565654Y67198000D01*
X84123000Y60640654D01*
X84123000Y55871459D01*
X83631770Y55543230D01*
X83631768Y55543227D01*
X83581770Y55493230D01*
X82687149Y54154334D01*
X82373000Y52575000D01*
X82687149Y50995666D01*
X83581770Y49656770D01*
X84920666Y48762149D01*
X86500000Y48448000D01*
X86751367Y48498000D01*
X91814807Y48498000D01*
X91794309Y48467322D01*
X91537250Y47175000D01*
X91794309Y45882678D01*
X92416167Y44952000D01*
X84697007Y44952000D01*
X62963046Y66685961D01*
X63588096Y66685961D01*
X63605633Y66603181D01*
X63875500Y66110104D01*
X64313517Y65757834D01*
X64853000Y65600000D01*
X65253000Y65600000D01*
X65253000Y66908000D01*
X65507000Y66908000D01*
X65507000Y65600000D01*
X65907000Y65600000D01*
X66446483Y65757834D01*
X66884500Y66110104D01*
X67154367Y66603181D01*
X67171904Y66685961D01*
X67049915Y66908000D01*
X65507000Y66908000D01*
X65253000Y66908000D01*
X63710085Y66908000D01*
X63588096Y66685961D01*
X62963046Y66685961D01*
X62451999Y67197008D01*
X62451999Y68518490D01*
X62648852Y68715000D01*
X63825986Y68715000D01*
X63929352Y68560302D01*
X63929352Y68560302D01*
G37*
X63929352Y68560302D02*
X64307707Y68307493D01*
X63875500Y67959896D01*
X63605633Y67466819D01*
X63588096Y67384039D01*
X63710085Y67162000D01*
X65253000Y67162000D01*
X65253000Y67182000D01*
X65507000Y67182000D01*
X65507000Y67162000D01*
X67049915Y67162000D01*
X67171904Y67384039D01*
X67154367Y67466819D01*
X66884500Y67959896D01*
X66452293Y68307493D01*
X66830648Y68560302D01*
X66917310Y68690000D01*
X67383420Y68690000D01*
X69664208Y66409213D01*
X69664210Y66409210D01*
X69951325Y66217367D01*
X70290000Y66150000D01*
X71462690Y66150000D01*
X71549352Y66020302D01*
X72014899Y65709233D01*
X72564050Y65600000D01*
X73435950Y65600000D01*
X73985101Y65709233D01*
X74450648Y66020302D01*
X74761717Y66485849D01*
X74870950Y67035000D01*
X74866267Y67058545D01*
X75074977Y67198000D01*
X77565654Y67198000D01*
X84123000Y60640654D01*
X84123000Y55871459D01*
X83631770Y55543230D01*
X83631768Y55543227D01*
X83581770Y55493230D01*
X82687149Y54154334D01*
X82373000Y52575000D01*
X82687149Y50995666D01*
X83581770Y49656770D01*
X84920666Y48762149D01*
X86500000Y48448000D01*
X86751367Y48498000D01*
X91814807Y48498000D01*
X91794309Y48467322D01*
X91537250Y47175000D01*
X91794309Y45882678D01*
X92416167Y44952000D01*
X84697007Y44952000D01*
X62963046Y66685961D01*
X63588096Y66685961D01*
X63605633Y66603181D01*
X63875500Y66110104D01*
X64313517Y65757834D01*
X64853000Y65600000D01*
X65253000Y65600000D01*
X65253000Y66908000D01*
X65507000Y66908000D01*
X65507000Y65600000D01*
X65907000Y65600000D01*
X66446483Y65757834D01*
X66884500Y66110104D01*
X67154367Y66603181D01*
X67171904Y66685961D01*
X67049915Y66908000D01*
X65507000Y66908000D01*
X65253000Y66908000D01*
X63710085Y66908000D01*
X63588096Y66685961D01*
X62963046Y66685961D01*
X62451999Y67197008D01*
X62451999Y68518490D01*
X62648852Y68715000D01*
X63825986Y68715000D01*
X63929352Y68560302D01*
G36*
X38443663Y56187258D02*
X38443665Y56187255D01*
X38730780Y55995412D01*
X38786971Y55984235D01*
X39069455Y55928044D01*
X39069460Y55928045D01*
X39488040Y55928045D01*
X39488045Y55928044D01*
X39770529Y55984235D01*
X39826720Y55995412D01*
X40113835Y56187255D01*
X40269363Y56342783D01*
X40329006Y56302031D01*
X40186673Y56159698D01*
X40090000Y55926309D01*
X40090000Y55335750D01*
X40248750Y55177000D01*
X41223000Y55177000D01*
X41223000Y55197000D01*
X41477000Y55197000D01*
X41477000Y55177000D01*
X42451250Y55177000D01*
X42610000Y55335750D01*
X42610000Y55926309D01*
X42513327Y56159698D01*
X42372090Y56300936D01*
X42426441Y56335910D01*
X42443655Y56361104D01*
X42636325Y56232367D01*
X42655419Y56228569D01*
X42975000Y56164999D01*
X42975005Y56165000D01*
X52717806Y56165000D01*
X51744187Y55191381D01*
X51552344Y54904266D01*
X51552344Y54904265D01*
X51484976Y54565591D01*
X51484977Y54565586D01*
X51484977Y50736556D01*
X46461895Y45713475D01*
X46461895Y47488045D01*
X46417617Y47723362D01*
X46278545Y47939486D01*
X46066345Y48084476D01*
X46024455Y48092959D01*
X46024455Y50905735D01*
X46154153Y50992397D01*
X46465222Y51457944D01*
X46574455Y52007095D01*
X46574455Y52878995D01*
X46465222Y53428146D01*
X46154153Y53893693D01*
X45688606Y54204762D01*
X45139455Y54313995D01*
X44590304Y54204762D01*
X44124757Y53893693D01*
X43871948Y53515338D01*
X43524351Y53947545D01*
X43031274Y54217412D01*
X42948494Y54234949D01*
X42726457Y54112961D01*
X42726457Y54278045D01*
X42610000Y54278045D01*
X42610000Y54764250D01*
X42451250Y54923000D01*
X41477000Y54923000D01*
X41477000Y53823750D01*
X41531316Y53769434D01*
X41326962Y53515338D01*
X41161788Y53762538D01*
X41223000Y53823750D01*
X41223000Y54923000D01*
X40248750Y54923000D01*
X40090000Y54764250D01*
X40090000Y54307919D01*
X40059455Y54313995D01*
X39510304Y54204762D01*
X39044757Y53893693D01*
X38947204Y53747695D01*
X38922617Y53878362D01*
X38783545Y54094486D01*
X38571345Y54239476D01*
X38377464Y54278738D01*
X38337088Y54481719D01*
X38337088Y54481720D01*
X38145245Y54768835D01*
X38145242Y54768837D01*
X36954445Y55959635D01*
X36954445Y57676475D01*
X38443663Y56187258D01*
X38443663Y56187258D01*
G37*
X38443663Y56187258D02*
X38443665Y56187255D01*
X38730780Y55995412D01*
X38786971Y55984235D01*
X39069455Y55928044D01*
X39069460Y55928045D01*
X39488040Y55928045D01*
X39488045Y55928044D01*
X39770529Y55984235D01*
X39826720Y55995412D01*
X40113835Y56187255D01*
X40269363Y56342783D01*
X40329006Y56302031D01*
X40186673Y56159698D01*
X40090000Y55926309D01*
X40090000Y55335750D01*
X40248750Y55177000D01*
X41223000Y55177000D01*
X41223000Y55197000D01*
X41477000Y55197000D01*
X41477000Y55177000D01*
X42451250Y55177000D01*
X42610000Y55335750D01*
X42610000Y55926309D01*
X42513327Y56159698D01*
X42372090Y56300936D01*
X42426441Y56335910D01*
X42443655Y56361104D01*
X42636325Y56232367D01*
X42655419Y56228569D01*
X42975000Y56164999D01*
X42975005Y56165000D01*
X52717806Y56165000D01*
X51744187Y55191381D01*
X51552344Y54904266D01*
X51552344Y54904265D01*
X51484976Y54565591D01*
X51484977Y54565586D01*
X51484977Y50736556D01*
X46461895Y45713475D01*
X46461895Y47488045D01*
X46417617Y47723362D01*
X46278545Y47939486D01*
X46066345Y48084476D01*
X46024455Y48092959D01*
X46024455Y50905735D01*
X46154153Y50992397D01*
X46465222Y51457944D01*
X46574455Y52007095D01*
X46574455Y52878995D01*
X46465222Y53428146D01*
X46154153Y53893693D01*
X45688606Y54204762D01*
X45139455Y54313995D01*
X44590304Y54204762D01*
X44124757Y53893693D01*
X43871948Y53515338D01*
X43524351Y53947545D01*
X43031274Y54217412D01*
X42948494Y54234949D01*
X42726457Y54112961D01*
X42726457Y54278045D01*
X42610000Y54278045D01*
X42610000Y54764250D01*
X42451250Y54923000D01*
X41477000Y54923000D01*
X41477000Y53823750D01*
X41531316Y53769434D01*
X41326962Y53515338D01*
X41161788Y53762538D01*
X41223000Y53823750D01*
X41223000Y54923000D01*
X40248750Y54923000D01*
X40090000Y54764250D01*
X40090000Y54307919D01*
X40059455Y54313995D01*
X39510304Y54204762D01*
X39044757Y53893693D01*
X38947204Y53747695D01*
X38922617Y53878362D01*
X38783545Y54094486D01*
X38571345Y54239476D01*
X38377464Y54278738D01*
X38337088Y54481719D01*
X38337088Y54481720D01*
X38145245Y54768835D01*
X38145242Y54768837D01*
X36954445Y55959635D01*
X36954445Y57676475D01*
X38443663Y56187258D01*
G36*
X42726455Y52570045D02*
X42746455Y52570045D01*
X42746455Y52316045D01*
X42726455Y52316045D01*
X42726455Y50773130D01*
X42948494Y50651141D01*
X43031274Y50668678D01*
X43524351Y50938545D01*
X43871948Y51370752D01*
X44124757Y50992397D01*
X44254455Y50905735D01*
X44254455Y48135485D01*
X42614455Y48135485D01*
X42379138Y48091207D01*
X42163014Y47952135D01*
X42063822Y47806962D01*
X41978545Y47939486D01*
X41766345Y48084476D01*
X41514455Y48135485D01*
X40944455Y48135485D01*
X40944455Y50905735D01*
X41074153Y50992397D01*
X41326962Y51370752D01*
X41674559Y50938545D01*
X42167636Y50668678D01*
X42250416Y50651141D01*
X42472455Y50773130D01*
X42472455Y52316045D01*
X42452455Y52316045D01*
X42452455Y52570045D01*
X42472455Y52570045D01*
X42472455Y52590045D01*
X42726455Y52590045D01*
X42726455Y52570045D01*
X42726455Y52570045D01*
G37*
X42726455Y52570045D02*
X42746455Y52570045D01*
X42746455Y52316045D01*
X42726455Y52316045D01*
X42726455Y50773130D01*
X42948494Y50651141D01*
X43031274Y50668678D01*
X43524351Y50938545D01*
X43871948Y51370752D01*
X44124757Y50992397D01*
X44254455Y50905735D01*
X44254455Y48135485D01*
X42614455Y48135485D01*
X42379138Y48091207D01*
X42163014Y47952135D01*
X42063822Y47806962D01*
X41978545Y47939486D01*
X41766345Y48084476D01*
X41514455Y48135485D01*
X40944455Y48135485D01*
X40944455Y50905735D01*
X41074153Y50992397D01*
X41326962Y51370752D01*
X41674559Y50938545D01*
X42167636Y50668678D01*
X42250416Y50651141D01*
X42472455Y50773130D01*
X42472455Y52316045D01*
X42452455Y52316045D01*
X42452455Y52570045D01*
X42472455Y52570045D01*
X42472455Y52590045D01*
X42726455Y52590045D01*
X42726455Y52570045D01*
G36*
X54842480Y73124783D02*
X55351342Y72913485D01*
X55902329Y72913004D01*
X56154456Y73017180D01*
X56154456Y61948045D01*
X55075205Y61948045D01*
X54916455Y61789295D01*
X54916455Y60190045D01*
X54936455Y60190045D01*
X54936455Y59936045D01*
X54916455Y59936045D01*
X54916455Y59916045D01*
X54662455Y59916045D01*
X54662455Y59936045D01*
X54642455Y59936045D01*
X54642455Y60190045D01*
X54662455Y60190045D01*
X54662455Y61789295D01*
X54503705Y61948045D01*
X53063146Y61948045D01*
X52829757Y61851372D01*
X52651128Y61672744D01*
X52636032Y61636298D01*
X52553545Y61764486D01*
X52341345Y61909476D01*
X52089455Y61960485D01*
X51888475Y61960485D01*
X53215242Y63287253D01*
X53215245Y63287255D01*
X53407088Y63574370D01*
X53474455Y63913045D01*
X53474455Y68408042D01*
X53474456Y68408047D01*
X53407088Y68746722D01*
X53380004Y68787256D01*
X53215245Y69033837D01*
X53215242Y69033839D01*
X52770850Y69478231D01*
X52801092Y69484247D01*
X52857283Y69495424D01*
X53057140Y69628963D01*
X53170007Y69515899D01*
X53678869Y69304601D01*
X54229856Y69304120D01*
X54739086Y69514529D01*
X55129032Y69903796D01*
X55340330Y70412658D01*
X55340811Y70963645D01*
X55130402Y71472875D01*
X54741135Y71862821D01*
X54232273Y72074119D01*
X53681286Y72074600D01*
X53172056Y71864191D01*
X52878438Y71571084D01*
X52665658Y71528759D01*
X54550143Y73413244D01*
X54554521Y73413244D01*
X54842480Y73124783D01*
X54842480Y73124783D01*
G37*
X54842480Y73124783D02*
X55351342Y72913485D01*
X55902329Y72913004D01*
X56154456Y73017180D01*
X56154456Y61948045D01*
X55075205Y61948045D01*
X54916455Y61789295D01*
X54916455Y60190045D01*
X54936455Y60190045D01*
X54936455Y59936045D01*
X54916455Y59936045D01*
X54916455Y59916045D01*
X54662455Y59916045D01*
X54662455Y59936045D01*
X54642455Y59936045D01*
X54642455Y60190045D01*
X54662455Y60190045D01*
X54662455Y61789295D01*
X54503705Y61948045D01*
X53063146Y61948045D01*
X52829757Y61851372D01*
X52651128Y61672744D01*
X52636032Y61636298D01*
X52553545Y61764486D01*
X52341345Y61909476D01*
X52089455Y61960485D01*
X51888475Y61960485D01*
X53215242Y63287253D01*
X53215245Y63287255D01*
X53407088Y63574370D01*
X53474455Y63913045D01*
X53474455Y68408042D01*
X53474456Y68408047D01*
X53407088Y68746722D01*
X53380004Y68787256D01*
X53215245Y69033837D01*
X53215242Y69033839D01*
X52770850Y69478231D01*
X52801092Y69484247D01*
X52857283Y69495424D01*
X53057140Y69628963D01*
X53170007Y69515899D01*
X53678869Y69304601D01*
X54229856Y69304120D01*
X54739086Y69514529D01*
X55129032Y69903796D01*
X55340330Y70412658D01*
X55340811Y70963645D01*
X55130402Y71472875D01*
X54741135Y71862821D01*
X54232273Y72074119D01*
X53681286Y72074600D01*
X53172056Y71864191D01*
X52878438Y71571084D01*
X52665658Y71528759D01*
X54550143Y73413244D01*
X54554521Y73413244D01*
X54842480Y73124783D01*
G36*
X49624209Y83500789D02*
X49432366Y83213674D01*
X49432366Y83213673D01*
X49364998Y82874999D01*
X49364999Y82874994D01*
X49364999Y78655004D01*
X49364998Y78654999D01*
X49393843Y78509988D01*
X44631566Y78509988D01*
X44709759Y78698298D01*
X44710240Y79249285D01*
X44499831Y79758515D01*
X44110564Y80148461D01*
X43601702Y80359759D01*
X43050715Y80360240D01*
X42541485Y80149831D01*
X42151539Y79760564D01*
X42134592Y79719751D01*
X41318774Y80535569D01*
X43569755Y80535569D01*
X43805072Y80579847D01*
X44021196Y80718919D01*
X44166186Y80931119D01*
X44217195Y81183009D01*
X44217195Y81848009D01*
X44922315Y81848009D01*
X44922315Y81133009D01*
X44966593Y80897692D01*
X45105665Y80681568D01*
X45317865Y80536578D01*
X45569755Y80485569D01*
X48069755Y80485569D01*
X48305072Y80529847D01*
X48521196Y80668919D01*
X48666186Y80881119D01*
X48717195Y81133009D01*
X48717195Y84333009D01*
X48672917Y84568326D01*
X48533845Y84784450D01*
X48394005Y84879999D01*
X48429454Y84894682D01*
X48608082Y85073311D01*
X48704755Y85306700D01*
X48704755Y86747259D01*
X48546005Y86906009D01*
X46946755Y86906009D01*
X46946755Y86886009D01*
X46692755Y86886009D01*
X46692755Y86906009D01*
X45093505Y86906009D01*
X44934755Y86747259D01*
X44934755Y85306700D01*
X45031428Y85073311D01*
X45210056Y84894682D01*
X45246502Y84879586D01*
X45118314Y84797099D01*
X44973324Y84584899D01*
X44922315Y84333009D01*
X44922315Y83618009D01*
X44217195Y83618009D01*
X44217195Y84383009D01*
X44172917Y84618326D01*
X44033845Y84834450D01*
X43894005Y84929999D01*
X43929454Y84944682D01*
X44108082Y85123311D01*
X44204755Y85356700D01*
X44204755Y86797259D01*
X44046005Y86956009D01*
X42446755Y86956009D01*
X42446755Y86936009D01*
X42192755Y86936009D01*
X42192755Y86956009D01*
X40593505Y86956009D01*
X40434755Y86797259D01*
X40434755Y85356700D01*
X40531428Y85123311D01*
X40710056Y84944682D01*
X40746502Y84929586D01*
X40618314Y84847099D01*
X40473324Y84634899D01*
X40422315Y84383009D01*
X40422315Y82918009D01*
X39841793Y82918009D01*
X39822917Y83018326D01*
X39683845Y83234450D01*
X39471645Y83379440D01*
X39458558Y83382090D01*
X39671196Y83518919D01*
X39816186Y83731119D01*
X39867195Y83983009D01*
X39867195Y85483009D01*
X39822917Y85718326D01*
X39683845Y85934450D01*
X39471645Y86079440D01*
X39219755Y86130449D01*
X38338651Y86130449D01*
X38308430Y86150642D01*
X38252239Y86161819D01*
X37969755Y86218010D01*
X37969750Y86218009D01*
X35441793Y86218009D01*
X35422917Y86318326D01*
X35283845Y86534450D01*
X35071645Y86679440D01*
X34819755Y86730449D01*
X34704755Y86730449D01*
X34704755Y87760971D01*
X34805072Y87779847D01*
X35021196Y87918919D01*
X35166186Y88131119D01*
X35217195Y88383009D01*
X35217195Y88809318D01*
X40434755Y88809318D01*
X40434755Y87368759D01*
X40593505Y87210009D01*
X42192755Y87210009D01*
X42192755Y89159259D01*
X42446755Y89159259D01*
X42446755Y87210009D01*
X44046005Y87210009D01*
X44204755Y87368759D01*
X44204755Y88759318D01*
X44934755Y88759318D01*
X44934755Y87318759D01*
X45093505Y87160009D01*
X46692755Y87160009D01*
X46692755Y89109259D01*
X46946755Y89109259D01*
X46946755Y87160009D01*
X48546005Y87160009D01*
X48704755Y87318759D01*
X48704755Y88759318D01*
X48608082Y88992707D01*
X48429454Y89171336D01*
X48196065Y89268009D01*
X47105505Y89268009D01*
X46946755Y89109259D01*
X46692755Y89109259D01*
X46534005Y89268009D01*
X45443445Y89268009D01*
X45210056Y89171336D01*
X45031428Y88992707D01*
X44934755Y88759318D01*
X44204755Y88759318D01*
X44204755Y88809318D01*
X44108082Y89042707D01*
X43929454Y89221336D01*
X43696065Y89318009D01*
X42605505Y89318009D01*
X42446755Y89159259D01*
X42192755Y89159259D01*
X42034005Y89318009D01*
X40943445Y89318009D01*
X40710056Y89221336D01*
X40531428Y89042707D01*
X40434755Y88809318D01*
X35217195Y88809318D01*
X35217195Y89683009D01*
X35172917Y89918326D01*
X35033845Y90134450D01*
X34915909Y90215032D01*
X56338453Y90215032D01*
X49624209Y83500789D01*
X49624209Y83500789D01*
G37*
X49624209Y83500789D02*
X49432366Y83213674D01*
X49432366Y83213673D01*
X49364998Y82874999D01*
X49364999Y82874994D01*
X49364999Y78655004D01*
X49364998Y78654999D01*
X49393843Y78509988D01*
X44631566Y78509988D01*
X44709759Y78698298D01*
X44710240Y79249285D01*
X44499831Y79758515D01*
X44110564Y80148461D01*
X43601702Y80359759D01*
X43050715Y80360240D01*
X42541485Y80149831D01*
X42151539Y79760564D01*
X42134592Y79719751D01*
X41318774Y80535569D01*
X43569755Y80535569D01*
X43805072Y80579847D01*
X44021196Y80718919D01*
X44166186Y80931119D01*
X44217195Y81183009D01*
X44217195Y81848009D01*
X44922315Y81848009D01*
X44922315Y81133009D01*
X44966593Y80897692D01*
X45105665Y80681568D01*
X45317865Y80536578D01*
X45569755Y80485569D01*
X48069755Y80485569D01*
X48305072Y80529847D01*
X48521196Y80668919D01*
X48666186Y80881119D01*
X48717195Y81133009D01*
X48717195Y84333009D01*
X48672917Y84568326D01*
X48533845Y84784450D01*
X48394005Y84879999D01*
X48429454Y84894682D01*
X48608082Y85073311D01*
X48704755Y85306700D01*
X48704755Y86747259D01*
X48546005Y86906009D01*
X46946755Y86906009D01*
X46946755Y86886009D01*
X46692755Y86886009D01*
X46692755Y86906009D01*
X45093505Y86906009D01*
X44934755Y86747259D01*
X44934755Y85306700D01*
X45031428Y85073311D01*
X45210056Y84894682D01*
X45246502Y84879586D01*
X45118314Y84797099D01*
X44973324Y84584899D01*
X44922315Y84333009D01*
X44922315Y83618009D01*
X44217195Y83618009D01*
X44217195Y84383009D01*
X44172917Y84618326D01*
X44033845Y84834450D01*
X43894005Y84929999D01*
X43929454Y84944682D01*
X44108082Y85123311D01*
X44204755Y85356700D01*
X44204755Y86797259D01*
X44046005Y86956009D01*
X42446755Y86956009D01*
X42446755Y86936009D01*
X42192755Y86936009D01*
X42192755Y86956009D01*
X40593505Y86956009D01*
X40434755Y86797259D01*
X40434755Y85356700D01*
X40531428Y85123311D01*
X40710056Y84944682D01*
X40746502Y84929586D01*
X40618314Y84847099D01*
X40473324Y84634899D01*
X40422315Y84383009D01*
X40422315Y82918009D01*
X39841793Y82918009D01*
X39822917Y83018326D01*
X39683845Y83234450D01*
X39471645Y83379440D01*
X39458558Y83382090D01*
X39671196Y83518919D01*
X39816186Y83731119D01*
X39867195Y83983009D01*
X39867195Y85483009D01*
X39822917Y85718326D01*
X39683845Y85934450D01*
X39471645Y86079440D01*
X39219755Y86130449D01*
X38338651Y86130449D01*
X38308430Y86150642D01*
X38252239Y86161819D01*
X37969755Y86218010D01*
X37969750Y86218009D01*
X35441793Y86218009D01*
X35422917Y86318326D01*
X35283845Y86534450D01*
X35071645Y86679440D01*
X34819755Y86730449D01*
X34704755Y86730449D01*
X34704755Y87760971D01*
X34805072Y87779847D01*
X35021196Y87918919D01*
X35166186Y88131119D01*
X35217195Y88383009D01*
X35217195Y88809318D01*
X40434755Y88809318D01*
X40434755Y87368759D01*
X40593505Y87210009D01*
X42192755Y87210009D01*
X42192755Y89159259D01*
X42446755Y89159259D01*
X42446755Y87210009D01*
X44046005Y87210009D01*
X44204755Y87368759D01*
X44204755Y88759318D01*
X44934755Y88759318D01*
X44934755Y87318759D01*
X45093505Y87160009D01*
X46692755Y87160009D01*
X46692755Y89109259D01*
X46946755Y89109259D01*
X46946755Y87160009D01*
X48546005Y87160009D01*
X48704755Y87318759D01*
X48704755Y88759318D01*
X48608082Y88992707D01*
X48429454Y89171336D01*
X48196065Y89268009D01*
X47105505Y89268009D01*
X46946755Y89109259D01*
X46692755Y89109259D01*
X46534005Y89268009D01*
X45443445Y89268009D01*
X45210056Y89171336D01*
X45031428Y88992707D01*
X44934755Y88759318D01*
X44204755Y88759318D01*
X44204755Y88809318D01*
X44108082Y89042707D01*
X43929454Y89221336D01*
X43696065Y89318009D01*
X42605505Y89318009D01*
X42446755Y89159259D01*
X42192755Y89159259D01*
X42034005Y89318009D01*
X40943445Y89318009D01*
X40710056Y89221336D01*
X40531428Y89042707D01*
X40434755Y88809318D01*
X35217195Y88809318D01*
X35217195Y89683009D01*
X35172917Y89918326D01*
X35033845Y90134450D01*
X34915909Y90215032D01*
X56338453Y90215032D01*
X49624209Y83500789D01*
G36*
X70436781Y86995356D02*
X69712850Y86529520D01*
X69227191Y85818734D01*
X69056330Y84975000D01*
X69056330Y83675000D01*
X69204644Y82886781D01*
X69598000Y82275487D01*
X69598000Y80784779D01*
X69168670Y80355449D01*
X69168670Y80475000D01*
X69020356Y81263219D01*
X68554520Y81987150D01*
X67843734Y82472809D01*
X67000000Y82643670D01*
X65500000Y82643670D01*
X64711781Y82495356D01*
X63987850Y82029520D01*
X63502191Y81318734D01*
X63462440Y81122440D01*
X62800000Y81122440D01*
X62564683Y81078162D01*
X62348559Y80939090D01*
X62203569Y80726890D01*
X62200149Y80710000D01*
X61587279Y80710000D01*
X61464090Y80901441D01*
X61251890Y81046431D01*
X61000000Y81097440D01*
X59500000Y81097440D01*
X59264683Y81053162D01*
X59048559Y80914090D01*
X59000866Y80844289D01*
X58964090Y80901441D01*
X58957514Y80905934D01*
X59379139Y81327560D01*
X60175000Y81327560D01*
X60410317Y81371838D01*
X60626441Y81510910D01*
X60771431Y81723110D01*
X60778191Y81756490D01*
X60836673Y81615301D01*
X61015302Y81436673D01*
X61248691Y81340000D01*
X61839250Y81340000D01*
X61998000Y81498750D01*
X61998000Y82498000D01*
X62252000Y82498000D01*
X62252000Y81498750D01*
X62410750Y81340000D01*
X63001309Y81340000D01*
X63234698Y81436673D01*
X63413327Y81615301D01*
X63510000Y81848690D01*
X63510000Y82339250D01*
X63351250Y82498000D01*
X62252000Y82498000D01*
X61998000Y82498000D01*
X61978000Y82498000D01*
X61978000Y82752000D01*
X61998000Y82752000D01*
X61998000Y83751250D01*
X62252000Y83751250D01*
X62252000Y82752000D01*
X63351250Y82752000D01*
X63510000Y82910750D01*
X63510000Y83401310D01*
X63413327Y83634699D01*
X63234698Y83813327D01*
X63001309Y83910000D01*
X62410750Y83910000D01*
X62252000Y83751250D01*
X61998000Y83751250D01*
X61839250Y83910000D01*
X61248691Y83910000D01*
X61015302Y83813327D01*
X60836673Y83634699D01*
X60780346Y83498713D01*
X60778162Y83510317D01*
X60639090Y83726441D01*
X60426890Y83871431D01*
X60175000Y83922440D01*
X58675000Y83922440D01*
X58609835Y83910178D01*
X58610117Y84233537D01*
X61391579Y87015000D01*
X70541180Y87015000D01*
X70436781Y86995356D01*
X70436781Y86995356D01*
G37*
X70436781Y86995356D02*
X69712850Y86529520D01*
X69227191Y85818734D01*
X69056330Y84975000D01*
X69056330Y83675000D01*
X69204644Y82886781D01*
X69598000Y82275487D01*
X69598000Y80784779D01*
X69168670Y80355449D01*
X69168670Y80475000D01*
X69020356Y81263219D01*
X68554520Y81987150D01*
X67843734Y82472809D01*
X67000000Y82643670D01*
X65500000Y82643670D01*
X64711781Y82495356D01*
X63987850Y82029520D01*
X63502191Y81318734D01*
X63462440Y81122440D01*
X62800000Y81122440D01*
X62564683Y81078162D01*
X62348559Y80939090D01*
X62203569Y80726890D01*
X62200149Y80710000D01*
X61587279Y80710000D01*
X61464090Y80901441D01*
X61251890Y81046431D01*
X61000000Y81097440D01*
X59500000Y81097440D01*
X59264683Y81053162D01*
X59048559Y80914090D01*
X59000866Y80844289D01*
X58964090Y80901441D01*
X58957514Y80905934D01*
X59379139Y81327560D01*
X60175000Y81327560D01*
X60410317Y81371838D01*
X60626441Y81510910D01*
X60771431Y81723110D01*
X60778191Y81756490D01*
X60836673Y81615301D01*
X61015302Y81436673D01*
X61248691Y81340000D01*
X61839250Y81340000D01*
X61998000Y81498750D01*
X61998000Y82498000D01*
X62252000Y82498000D01*
X62252000Y81498750D01*
X62410750Y81340000D01*
X63001309Y81340000D01*
X63234698Y81436673D01*
X63413327Y81615301D01*
X63510000Y81848690D01*
X63510000Y82339250D01*
X63351250Y82498000D01*
X62252000Y82498000D01*
X61998000Y82498000D01*
X61978000Y82498000D01*
X61978000Y82752000D01*
X61998000Y82752000D01*
X61998000Y83751250D01*
X62252000Y83751250D01*
X62252000Y82752000D01*
X63351250Y82752000D01*
X63510000Y82910750D01*
X63510000Y83401310D01*
X63413327Y83634699D01*
X63234698Y83813327D01*
X63001309Y83910000D01*
X62410750Y83910000D01*
X62252000Y83751250D01*
X61998000Y83751250D01*
X61839250Y83910000D01*
X61248691Y83910000D01*
X61015302Y83813327D01*
X60836673Y83634699D01*
X60780346Y83498713D01*
X60778162Y83510317D01*
X60639090Y83726441D01*
X60426890Y83871431D01*
X60175000Y83922440D01*
X58675000Y83922440D01*
X58609835Y83910178D01*
X58610117Y84233537D01*
X61391579Y87015000D01*
X70541180Y87015000D01*
X70436781Y86995356D01*
G36*
X89002000Y91627000D02*
X89022000Y91627000D01*
X89022000Y91373000D01*
X89002000Y91373000D01*
X89002000Y90398750D01*
X89160750Y90240000D01*
X89751309Y90240000D01*
X89984698Y90336673D01*
X90163327Y90515301D01*
X90260000Y90748690D01*
X90260000Y91214250D01*
X90101252Y91372998D01*
X90260000Y91372998D01*
X90260000Y91408423D01*
X90555000Y91113423D01*
X90555000Y88974823D01*
X90424803Y88887828D01*
X90154638Y88483499D01*
X90100174Y88614997D01*
X89735199Y89019858D01*
X89243072Y89254231D01*
X89027000Y89132476D01*
X89027000Y88027000D01*
X89047000Y88027000D01*
X89047000Y87773000D01*
X89027000Y87773000D01*
X89027000Y87753000D01*
X88773000Y87753000D01*
X88773000Y87773000D01*
X88753000Y87773000D01*
X88753000Y88027000D01*
X88773000Y88027000D01*
X88773000Y89132476D01*
X88556928Y89254231D01*
X88064801Y89019858D01*
X87699826Y88614997D01*
X87637902Y88465487D01*
X87545010Y88690303D01*
X87245000Y88990837D01*
X87245000Y90250140D01*
X87360317Y90271838D01*
X87576441Y90410910D01*
X87622969Y90479006D01*
X87765302Y90336673D01*
X87998691Y90240000D01*
X88589250Y90240000D01*
X88748000Y90398750D01*
X88748000Y91373000D01*
X88728000Y91373000D01*
X88728000Y91627000D01*
X88748000Y91627000D01*
X88748000Y91647000D01*
X89002000Y91647000D01*
X89002000Y91627000D01*
X89002000Y91627000D01*
G37*
X89002000Y91627000D02*
X89022000Y91627000D01*
X89022000Y91373000D01*
X89002000Y91373000D01*
X89002000Y90398750D01*
X89160750Y90240000D01*
X89751309Y90240000D01*
X89984698Y90336673D01*
X90163327Y90515301D01*
X90260000Y90748690D01*
X90260000Y91214250D01*
X90101252Y91372998D01*
X90260000Y91372998D01*
X90260000Y91408423D01*
X90555000Y91113423D01*
X90555000Y88974823D01*
X90424803Y88887828D01*
X90154638Y88483499D01*
X90100174Y88614997D01*
X89735199Y89019858D01*
X89243072Y89254231D01*
X89027000Y89132476D01*
X89027000Y88027000D01*
X89047000Y88027000D01*
X89047000Y87773000D01*
X89027000Y87773000D01*
X89027000Y87753000D01*
X88773000Y87753000D01*
X88773000Y87773000D01*
X88753000Y87773000D01*
X88753000Y88027000D01*
X88773000Y88027000D01*
X88773000Y89132476D01*
X88556928Y89254231D01*
X88064801Y89019858D01*
X87699826Y88614997D01*
X87637902Y88465487D01*
X87545010Y88690303D01*
X87245000Y88990837D01*
X87245000Y90250140D01*
X87360317Y90271838D01*
X87576441Y90410910D01*
X87622969Y90479006D01*
X87765302Y90336673D01*
X87998691Y90240000D01*
X88589250Y90240000D01*
X88748000Y90398750D01*
X88748000Y91373000D01*
X88728000Y91373000D01*
X88728000Y91627000D01*
X88748000Y91627000D01*
X88748000Y91647000D01*
X89002000Y91647000D01*
X89002000Y91627000D01*
M02*
